  0
SECTION
  2
BLOCKS
  0
ENDSEC
  0
SECTION
  2
ENTITIES
  0
LINE
  8
0
 10
46.2512
 20
55.0079
 11
46.5013
 21
55.0316
  0
LINE
  8
0
 10
46.5013
 20
55.0316
 11
46.7495
 21
55.0709
  0
LINE
  8
0
 10
46.7495
 20
55.0709
 11
46.9948
 21
55.1257
  0
LINE
  8
0
 10
46.9948
 20
55.1257
 11
47.2361
 21
55.1958
  0
LINE
  8
0
 10
47.2361
 20
55.1958
 11
47.4725
 21
55.2809
  0
LINE
  8
0
 10
47.4725
 20
55.2809
 11
47.7031
 21
55.3807
  0
LINE
  8
0
 10
47.7031
 20
55.3807
 11
47.927
 21
55.4948
  0
LINE
  8
0
 10
47.927
 20
55.4948
 11
48.1433
 21
55.6227
  0
LINE
  8
0
 10
48.1433
 20
55.6227
 11
48.3511
 21
55.7639
  0
LINE
  8
0
 10
48.3511
 20
55.7639
 11
48.5497
 21
55.918
  0
LINE
  8
0
 10
48.5497
 20
55.918
 11
48.7382
 21
56.0841
  0
LINE
  8
0
 10
48.7382
 20
56.0841
 11
48.9159
 21
56.2618
  0
LINE
  8
0
 10
48.9159
 20
56.2618
 11
49.082
 21
56.4503
  0
LINE
  8
0
 10
49.082
 20
56.4503
 11
49.2361
 21
56.6489
  0
LINE
  8
0
 10
49.2361
 20
56.6489
 11
49.3773
 21
56.8567
  0
LINE
  8
0
 10
49.3773
 20
56.8567
 11
49.5052
 21
57.073
  0
LINE
  8
0
 10
49.5052
 20
57.073
 11
49.6193
 21
57.2969
  0
LINE
  8
0
 10
49.6193
 20
57.2969
 11
49.7191
 21
57.5275
  0
LINE
  8
0
 10
49.7191
 20
57.5275
 11
49.8042
 21
57.7639
  0
LINE
  8
0
 10
49.8042
 20
57.7639
 11
49.8743
 21
58.0052
  0
LINE
  8
0
 10
49.8743
 20
58.0052
 11
49.9291
 21
58.2505
  0
LINE
  8
0
 10
49.9291
 20
58.2505
 11
49.9684
 21
58.4987
  0
LINE
  8
0
 10
49.9684
 20
58.4987
 11
49.9921
 21
58.7488
  0
LINE
  8
0
 10
49.9921
 20
58.7488
 11
50
 21
59
  0
LINE
  8
0
 10
50
 20
59
 11
50
 21
151
  0
LINE
  8
0
 10
50
 20
151
 11
49.9921
 21
151.251
  0
LINE
  8
0
 10
49.9921
 20
151.251
 11
49.9684
 21
151.501
  0
LINE
  8
0
 10
49.9684
 20
151.501
 11
49.9291
 21
151.75
  0
LINE
  8
0
 10
49.9291
 20
151.75
 11
49.8743
 21
151.995
  0
LINE
  8
0
 10
49.8743
 20
151.995
 11
49.8042
 21
152.236
  0
LINE
  8
0
 10
49.8042
 20
152.236
 11
49.7191
 21
152.472
  0
LINE
  8
0
 10
49.7191
 20
152.472
 11
49.6193
 21
152.703
  0
LINE
  8
0
 10
49.6193
 20
152.703
 11
49.5052
 21
152.927
  0
LINE
  8
0
 10
49.5052
 20
152.927
 11
49.3773
 21
153.143
  0
LINE
  8
0
 10
49.3773
 20
153.143
 11
49.2361
 21
153.351
  0
LINE
  8
0
 10
49.2361
 20
153.351
 11
49.082
 21
153.55
  0
LINE
  8
0
 10
49.082
 20
153.55
 11
48.9159
 21
153.738
  0
LINE
  8
0
 10
48.9159
 20
153.738
 11
48.7382
 21
153.916
  0
LINE
  8
0
 10
48.7382
 20
153.916
 11
48.5497
 21
154.082
  0
LINE
  8
0
 10
48.5497
 20
154.082
 11
48.3511
 21
154.236
  0
LINE
  8
0
 10
48.3511
 20
154.236
 11
48.1433
 21
154.377
  0
LINE
  8
0
 10
48.1433
 20
154.377
 11
47.927
 21
154.505
  0
LINE
  8
0
 10
47.927
 20
154.505
 11
47.7031
 21
154.619
  0
LINE
  8
0
 10
47.7031
 20
154.619
 11
47.4725
 21
154.719
  0
LINE
  8
0
 10
47.4725
 20
154.719
 11
47.2361
 21
154.804
  0
LINE
  8
0
 10
47.2361
 20
154.804
 11
46.9948
 21
154.874
  0
LINE
  8
0
 10
46.9948
 20
154.874
 11
46.7495
 21
154.929
  0
LINE
  8
0
 10
46.7495
 20
154.929
 11
46.5013
 21
154.968
  0
LINE
  8
0
 10
46.5013
 20
154.968
 11
46.2512
 21
154.992
  0
LINE
  8
0
 10
46.2512
 20
154.992
 11
46
 21
155
  0
LINE
  8
0
 10
46
 20
155
 11
-46
 21
155
  0
LINE
  8
0
 10
-46
 20
155
 11
-46.2512
 21
154.992
  0
LINE
  8
0
 10
-46.2512
 20
154.992
 11
-46.5013
 21
154.968
  0
LINE
  8
0
 10
-46.5013
 20
154.968
 11
-46.7495
 21
154.929
  0
LINE
  8
0
 10
-46.7495
 20
154.929
 11
-46.9948
 21
154.874
  0
LINE
  8
0
 10
-46.9948
 20
154.874
 11
-47.2361
 21
154.804
  0
LINE
  8
0
 10
-47.2361
 20
154.804
 11
-47.4725
 21
154.719
  0
LINE
  8
0
 10
-47.4725
 20
154.719
 11
-47.7031
 21
154.619
  0
LINE
  8
0
 10
-47.7031
 20
154.619
 11
-47.927
 21
154.505
  0
LINE
  8
0
 10
-47.927
 20
154.505
 11
-48.1433
 21
154.377
  0
LINE
  8
0
 10
-48.1433
 20
154.377
 11
-48.3511
 21
154.236
  0
LINE
  8
0
 10
-48.3511
 20
154.236
 11
-48.5497
 21
154.082
  0
LINE
  8
0
 10
-48.5497
 20
154.082
 11
-48.7382
 21
153.916
  0
LINE
  8
0
 10
-48.7382
 20
153.916
 11
-48.9159
 21
153.738
  0
LINE
  8
0
 10
-48.9159
 20
153.738
 11
-49.082
 21
153.55
  0
LINE
  8
0
 10
-49.082
 20
153.55
 11
-49.2361
 21
153.351
  0
LINE
  8
0
 10
-49.2361
 20
153.351
 11
-49.3773
 21
153.143
  0
LINE
  8
0
 10
-49.3773
 20
153.143
 11
-49.5052
 21
152.927
  0
LINE
  8
0
 10
-49.5052
 20
152.927
 11
-49.6193
 21
152.703
  0
LINE
  8
0
 10
-49.6193
 20
152.703
 11
-49.7191
 21
152.472
  0
LINE
  8
0
 10
-49.7191
 20
152.472
 11
-49.8042
 21
152.236
  0
LINE
  8
0
 10
-49.8042
 20
152.236
 11
-49.8743
 21
151.995
  0
LINE
  8
0
 10
-49.8743
 20
151.995
 11
-49.9291
 21
151.75
  0
LINE
  8
0
 10
-49.9291
 20
151.75
 11
-49.9684
 21
151.501
  0
LINE
  8
0
 10
-49.9684
 20
151.501
 11
-49.9921
 21
151.251
  0
LINE
  8
0
 10
-49.9921
 20
151.251
 11
-50
 21
151
  0
LINE
  8
0
 10
-50
 20
151
 11
-50
 21
59
  0
LINE
  8
0
 10
-50
 20
59
 11
-49.9921
 21
58.7488
  0
LINE
  8
0
 10
-49.9921
 20
58.7488
 11
-49.9684
 21
58.4987
  0
LINE
  8
0
 10
-49.9684
 20
58.4987
 11
-49.9291
 21
58.2505
  0
LINE
  8
0
 10
-49.9291
 20
58.2505
 11
-49.8743
 21
58.0052
  0
LINE
  8
0
 10
-49.8743
 20
58.0052
 11
-49.8042
 21
57.7639
  0
LINE
  8
0
 10
-49.8042
 20
57.7639
 11
-49.7191
 21
57.5275
  0
LINE
  8
0
 10
-49.7191
 20
57.5275
 11
-49.6193
 21
57.2969
  0
LINE
  8
0
 10
-49.6193
 20
57.2969
 11
-49.5052
 21
57.073
  0
LINE
  8
0
 10
-49.5052
 20
57.073
 11
-49.3773
 21
56.8567
  0
LINE
  8
0
 10
-49.3773
 20
56.8567
 11
-49.2361
 21
56.6489
  0
LINE
  8
0
 10
-49.2361
 20
56.6489
 11
-49.082
 21
56.4503
  0
LINE
  8
0
 10
-49.082
 20
56.4503
 11
-48.9159
 21
56.2618
  0
LINE
  8
0
 10
-48.9159
 20
56.2618
 11
-48.7382
 21
56.0841
  0
LINE
  8
0
 10
-48.7382
 20
56.0841
 11
-48.5497
 21
55.918
  0
LINE
  8
0
 10
-48.5497
 20
55.918
 11
-48.3511
 21
55.7639
  0
LINE
  8
0
 10
-48.3511
 20
55.7639
 11
-48.1433
 21
55.6227
  0
LINE
  8
0
 10
-48.1433
 20
55.6227
 11
-47.927
 21
55.4948
  0
LINE
  8
0
 10
-47.927
 20
55.4948
 11
-47.7031
 21
55.3807
  0
LINE
  8
0
 10
-47.7031
 20
55.3807
 11
-47.4725
 21
55.2809
  0
LINE
  8
0
 10
-47.4725
 20
55.2809
 11
-47.2361
 21
55.1958
  0
LINE
  8
0
 10
-47.2361
 20
55.1958
 11
-46.9948
 21
55.1257
  0
LINE
  8
0
 10
-46.9948
 20
55.1257
 11
-46.7495
 21
55.0709
  0
LINE
  8
0
 10
-46.7495
 20
55.0709
 11
-46.5013
 21
55.0316
  0
LINE
  8
0
 10
-46.5013
 20
55.0316
 11
-46.2512
 21
55.0079
  0
LINE
  8
0
 10
-46.2512
 20
55.0079
 11
-46
 21
55
  0
LINE
  8
0
 10
-46
 20
55
 11
46
 21
55
  0
LINE
  8
0
 10
46
 20
55
 11
46.2512
 21
55.0079
  0
LINE
  8
0
 10
44.8744
 20
148.004
 11
44.7493
 21
148.016
  0
LINE
  8
0
 10
44.7493
 20
148.016
 11
44.6252
 21
148.035
  0
LINE
  8
0
 10
44.6252
 20
148.035
 11
44.5026
 21
148.063
  0
LINE
  8
0
 10
44.5026
 20
148.063
 11
44.382
 21
148.098
  0
LINE
  8
0
 10
44.382
 20
148.098
 11
44.2637
 21
148.14
  0
LINE
  8
0
 10
44.2637
 20
148.14
 11
44.1484
 21
148.19
  0
LINE
  8
0
 10
44.1484
 20
148.19
 11
44.0365
 21
148.247
  0
LINE
  8
0
 10
44.0365
 20
148.247
 11
43.9283
 21
148.311
  0
LINE
  8
0
 10
43.9283
 20
148.311
 11
43.8244
 21
148.382
  0
LINE
  8
0
 10
43.8244
 20
148.382
 11
43.7251
 21
148.459
  0
LINE
  8
0
 10
43.7251
 20
148.459
 11
43.6309
 21
148.542
  0
LINE
  8
0
 10
43.6309
 20
148.542
 11
43.5421
 21
148.631
  0
LINE
  8
0
 10
43.5421
 20
148.631
 11
43.459
 21
148.725
  0
LINE
  8
0
 10
43.459
 20
148.725
 11
43.382
 21
148.824
  0
LINE
  8
0
 10
43.382
 20
148.824
 11
43.3113
 21
148.928
  0
LINE
  8
0
 10
43.3113
 20
148.928
 11
43.2474
 21
149.036
  0
LINE
  8
0
 10
43.2474
 20
149.036
 11
43.1903
 21
149.148
  0
LINE
  8
0
 10
43.1903
 20
149.148
 11
43.1404
 21
149.264
  0
LINE
  8
0
 10
43.1404
 20
149.264
 11
43.0979
 21
149.382
  0
LINE
  8
0
 10
43.0979
 20
149.382
 11
43.0628
 21
149.503
  0
LINE
  8
0
 10
43.0628
 20
149.503
 11
43.0354
 21
149.625
  0
LINE
  8
0
 10
43.0354
 20
149.625
 11
43.0158
 21
149.749
  0
LINE
  8
0
 10
43.0158
 20
149.749
 11
43.0039
 21
149.874
  0
LINE
  8
0
 10
43.0039
 20
149.874
 11
43
 21
150
  0
LINE
  8
0
 10
43
 20
150
 11
43.0039
 21
150.126
  0
LINE
  8
0
 10
43.0039
 20
150.126
 11
43.0158
 21
150.251
  0
LINE
  8
0
 10
43.0158
 20
150.251
 11
43.0354
 21
150.375
  0
LINE
  8
0
 10
43.0354
 20
150.375
 11
43.0628
 21
150.497
  0
LINE
  8
0
 10
43.0628
 20
150.497
 11
43.0979
 21
150.618
  0
LINE
  8
0
 10
43.0979
 20
150.618
 11
43.1404
 21
150.736
  0
LINE
  8
0
 10
43.1404
 20
150.736
 11
43.1903
 21
150.852
  0
LINE
  8
0
 10
43.1903
 20
150.852
 11
43.2474
 21
150.964
  0
LINE
  8
0
 10
43.2474
 20
150.964
 11
43.3113
 21
151.072
  0
LINE
  8
0
 10
43.3113
 20
151.072
 11
43.382
 21
151.176
  0
LINE
  8
0
 10
43.382
 20
151.176
 11
43.459
 21
151.275
  0
LINE
  8
0
 10
43.459
 20
151.275
 11
43.5421
 21
151.369
  0
LINE
  8
0
 10
43.5421
 20
151.369
 11
43.6309
 21
151.458
  0
LINE
  8
0
 10
43.6309
 20
151.458
 11
43.7251
 21
151.541
  0
LINE
  8
0
 10
43.7251
 20
151.541
 11
43.8244
 21
151.618
  0
LINE
  8
0
 10
43.8244
 20
151.618
 11
43.9283
 21
151.689
  0
LINE
  8
0
 10
43.9283
 20
151.689
 11
44.0365
 21
151.753
  0
LINE
  8
0
 10
44.0365
 20
151.753
 11
44.1484
 21
151.81
  0
LINE
  8
0
 10
44.1484
 20
151.81
 11
44.2637
 21
151.86
  0
LINE
  8
0
 10
44.2637
 20
151.86
 11
44.382
 21
151.902
  0
LINE
  8
0
 10
44.382
 20
151.902
 11
44.5026
 21
151.937
  0
LINE
  8
0
 10
44.5026
 20
151.937
 11
44.6252
 21
151.965
  0
LINE
  8
0
 10
44.6252
 20
151.965
 11
44.7493
 21
151.984
  0
LINE
  8
0
 10
44.7493
 20
151.984
 11
44.8744
 21
151.996
  0
LINE
  8
0
 10
44.8744
 20
151.996
 11
45
 21
152
  0
LINE
  8
0
 10
45
 20
152
 11
45.1256
 21
151.996
  0
LINE
  8
0
 10
45.1256
 20
151.996
 11
45.2507
 21
151.984
  0
LINE
  8
0
 10
45.2507
 20
151.984
 11
45.3748
 21
151.965
  0
LINE
  8
0
 10
45.3748
 20
151.965
 11
45.4974
 21
151.937
  0
LINE
  8
0
 10
45.4974
 20
151.937
 11
45.618
 21
151.902
  0
LINE
  8
0
 10
45.618
 20
151.902
 11
45.7362
 21
151.86
  0
LINE
  8
0
 10
45.7362
 20
151.86
 11
45.8515
 21
151.81
  0
LINE
  8
0
 10
45.8515
 20
151.81
 11
45.9635
 21
151.753
  0
LINE
  8
0
 10
45.9635
 20
151.753
 11
46.0716
 21
151.689
  0
LINE
  8
0
 10
46.0716
 20
151.689
 11
46.1756
 21
151.618
  0
LINE
  8
0
 10
46.1756
 20
151.618
 11
46.2748
 21
151.541
  0
LINE
  8
0
 10
46.2748
 20
151.541
 11
46.3691
 21
151.458
  0
LINE
  8
0
 10
46.3691
 20
151.458
 11
46.4579
 21
151.369
  0
LINE
  8
0
 10
46.4579
 20
151.369
 11
46.541
 21
151.275
  0
LINE
  8
0
 10
46.541
 20
151.275
 11
46.618
 21
151.176
  0
LINE
  8
0
 10
46.618
 20
151.176
 11
46.6886
 21
151.072
  0
LINE
  8
0
 10
46.6886
 20
151.072
 11
46.7526
 21
150.964
  0
LINE
  8
0
 10
46.7526
 20
150.964
 11
46.8096
 21
150.852
  0
LINE
  8
0
 10
46.8096
 20
150.852
 11
46.8595
 21
150.736
  0
LINE
  8
0
 10
46.8595
 20
150.736
 11
46.9021
 21
150.618
  0
LINE
  8
0
 10
46.9021
 20
150.618
 11
46.9372
 21
150.497
  0
LINE
  8
0
 10
46.9372
 20
150.497
 11
46.9646
 21
150.375
  0
LINE
  8
0
 10
46.9646
 20
150.375
 11
46.9842
 21
150.251
  0
LINE
  8
0
 10
46.9842
 20
150.251
 11
46.996
 21
150.126
  0
LINE
  8
0
 10
46.996
 20
150.126
 11
47
 21
150
  0
LINE
  8
0
 10
47
 20
150
 11
46.996
 21
149.874
  0
LINE
  8
0
 10
46.996
 20
149.874
 11
46.9842
 21
149.749
  0
LINE
  8
0
 10
46.9842
 20
149.749
 11
46.9646
 21
149.625
  0
LINE
  8
0
 10
46.9646
 20
149.625
 11
46.9372
 21
149.503
  0
LINE
  8
0
 10
46.9372
 20
149.503
 11
46.9021
 21
149.382
  0
LINE
  8
0
 10
46.9021
 20
149.382
 11
46.8595
 21
149.264
  0
LINE
  8
0
 10
46.8595
 20
149.264
 11
46.8096
 21
149.148
  0
LINE
  8
0
 10
46.8096
 20
149.148
 11
46.7526
 21
149.036
  0
LINE
  8
0
 10
46.7526
 20
149.036
 11
46.6886
 21
148.928
  0
LINE
  8
0
 10
46.6886
 20
148.928
 11
46.618
 21
148.824
  0
LINE
  8
0
 10
46.618
 20
148.824
 11
46.541
 21
148.725
  0
LINE
  8
0
 10
46.541
 20
148.725
 11
46.4579
 21
148.631
  0
LINE
  8
0
 10
46.4579
 20
148.631
 11
46.3691
 21
148.542
  0
LINE
  8
0
 10
46.3691
 20
148.542
 11
46.2748
 21
148.459
  0
LINE
  8
0
 10
46.2748
 20
148.459
 11
46.1756
 21
148.382
  0
LINE
  8
0
 10
46.1756
 20
148.382
 11
46.0716
 21
148.311
  0
LINE
  8
0
 10
46.0716
 20
148.311
 11
45.9635
 21
148.247
  0
LINE
  8
0
 10
45.9635
 20
148.247
 11
45.8515
 21
148.19
  0
LINE
  8
0
 10
45.8515
 20
148.19
 11
45.7362
 21
148.14
  0
LINE
  8
0
 10
45.7362
 20
148.14
 11
45.618
 21
148.098
  0
LINE
  8
0
 10
45.618
 20
148.098
 11
45.4974
 21
148.063
  0
LINE
  8
0
 10
45.4974
 20
148.063
 11
45.3748
 21
148.035
  0
LINE
  8
0
 10
45.3748
 20
148.035
 11
45.2507
 21
148.016
  0
LINE
  8
0
 10
45.2507
 20
148.016
 11
45.1256
 21
148.004
  0
LINE
  8
0
 10
45.1256
 20
148.004
 11
45
 21
148
  0
LINE
  8
0
 10
45
 20
148
 11
44.8744
 21
148.004
  0
LINE
  8
0
 10
-45.1256
 20
148.004
 11
-45.2507
 21
148.016
  0
LINE
  8
0
 10
-45.2507
 20
148.016
 11
-45.3748
 21
148.035
  0
LINE
  8
0
 10
-45.3748
 20
148.035
 11
-45.4974
 21
148.063
  0
LINE
  8
0
 10
-45.4974
 20
148.063
 11
-45.618
 21
148.098
  0
LINE
  8
0
 10
-45.618
 20
148.098
 11
-45.7362
 21
148.14
  0
LINE
  8
0
 10
-45.7362
 20
148.14
 11
-45.8515
 21
148.19
  0
LINE
  8
0
 10
-45.8515
 20
148.19
 11
-45.9635
 21
148.247
  0
LINE
  8
0
 10
-45.9635
 20
148.247
 11
-46.0716
 21
148.311
  0
LINE
  8
0
 10
-46.0716
 20
148.311
 11
-46.1756
 21
148.382
  0
LINE
  8
0
 10
-46.1756
 20
148.382
 11
-46.2748
 21
148.459
  0
LINE
  8
0
 10
-46.2748
 20
148.459
 11
-46.3691
 21
148.542
  0
LINE
  8
0
 10
-46.3691
 20
148.542
 11
-46.4579
 21
148.631
  0
LINE
  8
0
 10
-46.4579
 20
148.631
 11
-46.541
 21
148.725
  0
LINE
  8
0
 10
-46.541
 20
148.725
 11
-46.618
 21
148.824
  0
LINE
  8
0
 10
-46.618
 20
148.824
 11
-46.6886
 21
148.928
  0
LINE
  8
0
 10
-46.6886
 20
148.928
 11
-46.7526
 21
149.036
  0
LINE
  8
0
 10
-46.7526
 20
149.036
 11
-46.8096
 21
149.148
  0
LINE
  8
0
 10
-46.8096
 20
149.148
 11
-46.8595
 21
149.264
  0
LINE
  8
0
 10
-46.8595
 20
149.264
 11
-46.9021
 21
149.382
  0
LINE
  8
0
 10
-46.9021
 20
149.382
 11
-46.9372
 21
149.503
  0
LINE
  8
0
 10
-46.9372
 20
149.503
 11
-46.9646
 21
149.625
  0
LINE
  8
0
 10
-46.9646
 20
149.625
 11
-46.9842
 21
149.749
  0
LINE
  8
0
 10
-46.9842
 20
149.749
 11
-46.996
 21
149.874
  0
LINE
  8
0
 10
-46.996
 20
149.874
 11
-47
 21
150
  0
LINE
  8
0
 10
-47
 20
150
 11
-46.996
 21
150.126
  0
LINE
  8
0
 10
-46.996
 20
150.126
 11
-46.9842
 21
150.251
  0
LINE
  8
0
 10
-46.9842
 20
150.251
 11
-46.9646
 21
150.375
  0
LINE
  8
0
 10
-46.9646
 20
150.375
 11
-46.9372
 21
150.497
  0
LINE
  8
0
 10
-46.9372
 20
150.497
 11
-46.9021
 21
150.618
  0
LINE
  8
0
 10
-46.9021
 20
150.618
 11
-46.8595
 21
150.736
  0
LINE
  8
0
 10
-46.8595
 20
150.736
 11
-46.8096
 21
150.852
  0
LINE
  8
0
 10
-46.8096
 20
150.852
 11
-46.7526
 21
150.964
  0
LINE
  8
0
 10
-46.7526
 20
150.964
 11
-46.6886
 21
151.072
  0
LINE
  8
0
 10
-46.6886
 20
151.072
 11
-46.618
 21
151.176
  0
LINE
  8
0
 10
-46.618
 20
151.176
 11
-46.541
 21
151.275
  0
LINE
  8
0
 10
-46.541
 20
151.275
 11
-46.4579
 21
151.369
  0
LINE
  8
0
 10
-46.4579
 20
151.369
 11
-46.3691
 21
151.458
  0
LINE
  8
0
 10
-46.3691
 20
151.458
 11
-46.2748
 21
151.541
  0
LINE
  8
0
 10
-46.2748
 20
151.541
 11
-46.1756
 21
151.618
  0
LINE
  8
0
 10
-46.1756
 20
151.618
 11
-46.0716
 21
151.689
  0
LINE
  8
0
 10
-46.0716
 20
151.689
 11
-45.9635
 21
151.753
  0
LINE
  8
0
 10
-45.9635
 20
151.753
 11
-45.8515
 21
151.81
  0
LINE
  8
0
 10
-45.8515
 20
151.81
 11
-45.7362
 21
151.86
  0
LINE
  8
0
 10
-45.7362
 20
151.86
 11
-45.618
 21
151.902
  0
LINE
  8
0
 10
-45.618
 20
151.902
 11
-45.4974
 21
151.937
  0
LINE
  8
0
 10
-45.4974
 20
151.937
 11
-45.3748
 21
151.965
  0
LINE
  8
0
 10
-45.3748
 20
151.965
 11
-45.2507
 21
151.984
  0
LINE
  8
0
 10
-45.2507
 20
151.984
 11
-45.1256
 21
151.996
  0
LINE
  8
0
 10
-45.1256
 20
151.996
 11
-45
 21
152
  0
LINE
  8
0
 10
-45
 20
152
 11
-44.8744
 21
151.996
  0
LINE
  8
0
 10
-44.8744
 20
151.996
 11
-44.7493
 21
151.984
  0
LINE
  8
0
 10
-44.7493
 20
151.984
 11
-44.6252
 21
151.965
  0
LINE
  8
0
 10
-44.6252
 20
151.965
 11
-44.5026
 21
151.937
  0
LINE
  8
0
 10
-44.5026
 20
151.937
 11
-44.382
 21
151.902
  0
LINE
  8
0
 10
-44.382
 20
151.902
 11
-44.2637
 21
151.86
  0
LINE
  8
0
 10
-44.2637
 20
151.86
 11
-44.1484
 21
151.81
  0
LINE
  8
0
 10
-44.1484
 20
151.81
 11
-44.0365
 21
151.753
  0
LINE
  8
0
 10
-44.0365
 20
151.753
 11
-43.9283
 21
151.689
  0
LINE
  8
0
 10
-43.9283
 20
151.689
 11
-43.8244
 21
151.618
  0
LINE
  8
0
 10
-43.8244
 20
151.618
 11
-43.7251
 21
151.541
  0
LINE
  8
0
 10
-43.7251
 20
151.541
 11
-43.6309
 21
151.458
  0
LINE
  8
0
 10
-43.6309
 20
151.458
 11
-43.5421
 21
151.369
  0
LINE
  8
0
 10
-43.5421
 20
151.369
 11
-43.459
 21
151.275
  0
LINE
  8
0
 10
-43.459
 20
151.275
 11
-43.382
 21
151.176
  0
LINE
  8
0
 10
-43.382
 20
151.176
 11
-43.3113
 21
151.072
  0
LINE
  8
0
 10
-43.3113
 20
151.072
 11
-43.2474
 21
150.964
  0
LINE
  8
0
 10
-43.2474
 20
150.964
 11
-43.1903
 21
150.852
  0
LINE
  8
0
 10
-43.1903
 20
150.852
 11
-43.1404
 21
150.736
  0
LINE
  8
0
 10
-43.1404
 20
150.736
 11
-43.0979
 21
150.618
  0
LINE
  8
0
 10
-43.0979
 20
150.618
 11
-43.0628
 21
150.497
  0
LINE
  8
0
 10
-43.0628
 20
150.497
 11
-43.0354
 21
150.375
  0
LINE
  8
0
 10
-43.0354
 20
150.375
 11
-43.0158
 21
150.251
  0
LINE
  8
0
 10
-43.0158
 20
150.251
 11
-43.0039
 21
150.126
  0
LINE
  8
0
 10
-43.0039
 20
150.126
 11
-43
 21
150
  0
LINE
  8
0
 10
-43
 20
150
 11
-43.0039
 21
149.874
  0
LINE
  8
0
 10
-43.0039
 20
149.874
 11
-43.0158
 21
149.749
  0
LINE
  8
0
 10
-43.0158
 20
149.749
 11
-43.0354
 21
149.625
  0
LINE
  8
0
 10
-43.0354
 20
149.625
 11
-43.0628
 21
149.503
  0
LINE
  8
0
 10
-43.0628
 20
149.503
 11
-43.0979
 21
149.382
  0
LINE
  8
0
 10
-43.0979
 20
149.382
 11
-43.1404
 21
149.264
  0
LINE
  8
0
 10
-43.1404
 20
149.264
 11
-43.1903
 21
149.148
  0
LINE
  8
0
 10
-43.1903
 20
149.148
 11
-43.2474
 21
149.036
  0
LINE
  8
0
 10
-43.2474
 20
149.036
 11
-43.3113
 21
148.928
  0
LINE
  8
0
 10
-43.3113
 20
148.928
 11
-43.382
 21
148.824
  0
LINE
  8
0
 10
-43.382
 20
148.824
 11
-43.459
 21
148.725
  0
LINE
  8
0
 10
-43.459
 20
148.725
 11
-43.5421
 21
148.631
  0
LINE
  8
0
 10
-43.5421
 20
148.631
 11
-43.6309
 21
148.542
  0
LINE
  8
0
 10
-43.6309
 20
148.542
 11
-43.7251
 21
148.459
  0
LINE
  8
0
 10
-43.7251
 20
148.459
 11
-43.8244
 21
148.382
  0
LINE
  8
0
 10
-43.8244
 20
148.382
 11
-43.9283
 21
148.311
  0
LINE
  8
0
 10
-43.9283
 20
148.311
 11
-44.0365
 21
148.247
  0
LINE
  8
0
 10
-44.0365
 20
148.247
 11
-44.1484
 21
148.19
  0
LINE
  8
0
 10
-44.1484
 20
148.19
 11
-44.2637
 21
148.14
  0
LINE
  8
0
 10
-44.2637
 20
148.14
 11
-44.382
 21
148.098
  0
LINE
  8
0
 10
-44.382
 20
148.098
 11
-44.5026
 21
148.063
  0
LINE
  8
0
 10
-44.5026
 20
148.063
 11
-44.6252
 21
148.035
  0
LINE
  8
0
 10
-44.6252
 20
148.035
 11
-44.7493
 21
148.016
  0
LINE
  8
0
 10
-44.7493
 20
148.016
 11
-44.8744
 21
148.004
  0
LINE
  8
0
 10
-44.8744
 20
148.004
 11
-45
 21
148
  0
LINE
  8
0
 10
-45
 20
148
 11
-45.1256
 21
148.004
  0
LINE
  8
0
 10
-40
 20
60
 11
-40.0099
 21
60.314
  0
LINE
  8
0
 10
-40.0099
 20
60.314
 11
-40.0394
 21
60.6267
  0
LINE
  8
0
 10
-40.0394
 20
60.6267
 11
-40.0886
 21
60.9369
  0
LINE
  8
0
 10
-40.0886
 20
60.9369
 11
-40.1571
 21
61.2435
  0
LINE
  8
0
 10
-40.1571
 20
61.2435
 11
-40.2447
 21
61.5451
  0
LINE
  8
0
 10
-40.2447
 20
61.5451
 11
-40.3511
 21
61.8406
  0
LINE
  8
0
 10
-40.3511
 20
61.8406
 11
-40.4759
 21
62.1289
  0
LINE
  8
0
 10
-40.4759
 20
62.1289
 11
-40.6185
 21
62.4088
  0
LINE
  8
0
 10
-40.6185
 20
62.4088
 11
-40.7784
 21
62.6791
  0
LINE
  8
0
 10
-40.7784
 20
62.6791
 11
-40.9549
 21
62.9389
  0
LINE
  8
0
 10
-40.9549
 20
62.9389
 11
-41.1474
 21
63.1871
  0
LINE
  8
0
 10
-41.1474
 20
63.1871
 11
-41.3551
 21
63.4227
  0
LINE
  8
0
 10
-41.3551
 20
63.4227
 11
-41.5773
 21
63.6449
  0
LINE
  8
0
 10
-41.5773
 20
63.6449
 11
-41.8129
 21
63.8526
  0
LINE
  8
0
 10
-41.8129
 20
63.8526
 11
-42.0611
 21
64.0451
  0
LINE
  8
0
 10
-42.0611
 20
64.0451
 11
-42.3209
 21
64.2216
  0
LINE
  8
0
 10
-42.3209
 20
64.2216
 11
-42.5912
 21
64.3815
  0
LINE
  8
0
 10
-42.5912
 20
64.3815
 11
-42.8711
 21
64.5241
  0
LINE
  8
0
 10
-42.8711
 20
64.5241
 11
-43.1594
 21
64.6489
  0
LINE
  8
0
 10
-43.1594
 20
64.6489
 11
-43.4549
 21
64.7553
  0
LINE
  8
0
 10
-43.4549
 20
64.7553
 11
-43.7565
 21
64.8429
  0
LINE
  8
0
 10
-43.7565
 20
64.8429
 11
-44.0631
 21
64.9114
  0
LINE
  8
0
 10
-44.0631
 20
64.9114
 11
-44.3733
 21
64.9606
  0
LINE
  8
0
 10
-44.3733
 20
64.9606
 11
-44.686
 21
64.9901
  0
LINE
  8
0
 10
-44.686
 20
64.9901
 11
-45
 21
65
  0
LINE
  8
0
 10
-45
 20
65
 11
-45
 21
145
  0
LINE
  8
0
 10
-45
 20
145
 11
-44.686
 21
145.01
  0
LINE
  8
0
 10
-44.686
 20
145.01
 11
-44.3733
 21
145.039
  0
LINE
  8
0
 10
-44.3733
 20
145.039
 11
-44.0631
 21
145.089
  0
LINE
  8
0
 10
-44.0631
 20
145.089
 11
-43.7565
 21
145.157
  0
LINE
  8
0
 10
-43.7565
 20
145.157
 11
-43.4549
 21
145.245
  0
LINE
  8
0
 10
-43.4549
 20
145.245
 11
-43.1594
 21
145.351
  0
LINE
  8
0
 10
-43.1594
 20
145.351
 11
-42.8711
 21
145.476
  0
LINE
  8
0
 10
-42.8711
 20
145.476
 11
-42.5912
 21
145.618
  0
LINE
  8
0
 10
-42.5912
 20
145.618
 11
-42.3209
 21
145.778
  0
LINE
  8
0
 10
-42.3209
 20
145.778
 11
-42.0611
 21
145.955
  0
LINE
  8
0
 10
-42.0611
 20
145.955
 11
-41.8129
 21
146.147
  0
LINE
  8
0
 10
-41.8129
 20
146.147
 11
-41.5773
 21
146.355
  0
LINE
  8
0
 10
-41.5773
 20
146.355
 11
-41.3551
 21
146.577
  0
LINE
  8
0
 10
-41.3551
 20
146.577
 11
-41.1474
 21
146.813
  0
LINE
  8
0
 10
-41.1474
 20
146.813
 11
-40.9549
 21
147.061
  0
LINE
  8
0
 10
-40.9549
 20
147.061
 11
-40.7784
 21
147.321
  0
LINE
  8
0
 10
-40.7784
 20
147.321
 11
-40.6185
 21
147.591
  0
LINE
  8
0
 10
-40.6185
 20
147.591
 11
-40.4759
 21
147.871
  0
LINE
  8
0
 10
-40.4759
 20
147.871
 11
-40.3511
 21
148.159
  0
LINE
  8
0
 10
-40.3511
 20
148.159
 11
-40.2447
 21
148.455
  0
LINE
  8
0
 10
-40.2447
 20
148.455
 11
-40.1571
 21
148.757
  0
LINE
  8
0
 10
-40.1571
 20
148.757
 11
-40.0886
 21
149.063
  0
LINE
  8
0
 10
-40.0886
 20
149.063
 11
-40.0394
 21
149.373
  0
LINE
  8
0
 10
-40.0394
 20
149.373
 11
-40.0099
 21
149.686
  0
LINE
  8
0
 10
-40.0099
 20
149.686
 11
-40
 21
150
  0
LINE
  8
0
 10
-40
 20
150
 11
40
 21
150
  0
LINE
  8
0
 10
40
 20
150
 11
40.0099
 21
149.686
  0
LINE
  8
0
 10
40.0099
 20
149.686
 11
40.0394
 21
149.373
  0
LINE
  8
0
 10
40.0394
 20
149.373
 11
40.0886
 21
149.063
  0
LINE
  8
0
 10
40.0886
 20
149.063
 11
40.1571
 21
148.757
  0
LINE
  8
0
 10
40.1571
 20
148.757
 11
40.2447
 21
148.455
  0
LINE
  8
0
 10
40.2447
 20
148.455
 11
40.3511
 21
148.159
  0
LINE
  8
0
 10
40.3511
 20
148.159
 11
40.4759
 21
147.871
  0
LINE
  8
0
 10
40.4759
 20
147.871
 11
40.6185
 21
147.591
  0
LINE
  8
0
 10
40.6185
 20
147.591
 11
40.7784
 21
147.321
  0
LINE
  8
0
 10
40.7784
 20
147.321
 11
40.9549
 21
147.061
  0
LINE
  8
0
 10
40.9549
 20
147.061
 11
41.1474
 21
146.813
  0
LINE
  8
0
 10
41.1474
 20
146.813
 11
41.3551
 21
146.577
  0
LINE
  8
0
 10
41.3551
 20
146.577
 11
41.5773
 21
146.355
  0
LINE
  8
0
 10
41.5773
 20
146.355
 11
41.8129
 21
146.147
  0
LINE
  8
0
 10
41.8129
 20
146.147
 11
42.0611
 21
145.955
  0
LINE
  8
0
 10
42.0611
 20
145.955
 11
42.3209
 21
145.778
  0
LINE
  8
0
 10
42.3209
 20
145.778
 11
42.5912
 21
145.618
  0
LINE
  8
0
 10
42.5912
 20
145.618
 11
42.8711
 21
145.476
  0
LINE
  8
0
 10
42.8711
 20
145.476
 11
43.1594
 21
145.351
  0
LINE
  8
0
 10
43.1594
 20
145.351
 11
43.4549
 21
145.245
  0
LINE
  8
0
 10
43.4549
 20
145.245
 11
43.7565
 21
145.157
  0
LINE
  8
0
 10
43.7565
 20
145.157
 11
44.0631
 21
145.089
  0
LINE
  8
0
 10
44.0631
 20
145.089
 11
44.3733
 21
145.039
  0
LINE
  8
0
 10
44.3733
 20
145.039
 11
44.686
 21
145.01
  0
LINE
  8
0
 10
44.686
 20
145.01
 11
45
 21
145
  0
LINE
  8
0
 10
45
 20
145
 11
45
 21
65
  0
LINE
  8
0
 10
45
 20
65
 11
44.686
 21
64.9901
  0
LINE
  8
0
 10
44.686
 20
64.9901
 11
44.3733
 21
64.9606
  0
LINE
  8
0
 10
44.3733
 20
64.9606
 11
44.0631
 21
64.9114
  0
LINE
  8
0
 10
44.0631
 20
64.9114
 11
43.7565
 21
64.8429
  0
LINE
  8
0
 10
43.7565
 20
64.8429
 11
43.4549
 21
64.7553
  0
LINE
  8
0
 10
43.4549
 20
64.7553
 11
43.1594
 21
64.6489
  0
LINE
  8
0
 10
43.1594
 20
64.6489
 11
42.8711
 21
64.5241
  0
LINE
  8
0
 10
42.8711
 20
64.5241
 11
42.5912
 21
64.3815
  0
LINE
  8
0
 10
42.5912
 20
64.3815
 11
42.3209
 21
64.2216
  0
LINE
  8
0
 10
42.3209
 20
64.2216
 11
42.0611
 21
64.0451
  0
LINE
  8
0
 10
42.0611
 20
64.0451
 11
41.8129
 21
63.8526
  0
LINE
  8
0
 10
41.8129
 20
63.8526
 11
41.5773
 21
63.6449
  0
LINE
  8
0
 10
41.5773
 20
63.6449
 11
41.3551
 21
63.4227
  0
LINE
  8
0
 10
41.3551
 20
63.4227
 11
41.1474
 21
63.1871
  0
LINE
  8
0
 10
41.1474
 20
63.1871
 11
40.9549
 21
62.9389
  0
LINE
  8
0
 10
40.9549
 20
62.9389
 11
40.7784
 21
62.6791
  0
LINE
  8
0
 10
40.7784
 20
62.6791
 11
40.6185
 21
62.4088
  0
LINE
  8
0
 10
40.6185
 20
62.4088
 11
40.4759
 21
62.1289
  0
LINE
  8
0
 10
40.4759
 20
62.1289
 11
40.3511
 21
61.8406
  0
LINE
  8
0
 10
40.3511
 20
61.8406
 11
40.2447
 21
61.5451
  0
LINE
  8
0
 10
40.2447
 20
61.5451
 11
40.1571
 21
61.2435
  0
LINE
  8
0
 10
40.1571
 20
61.2435
 11
40.0886
 21
60.9369
  0
LINE
  8
0
 10
40.0886
 20
60.9369
 11
40.0394
 21
60.6267
  0
LINE
  8
0
 10
40.0394
 20
60.6267
 11
40.0099
 21
60.314
  0
LINE
  8
0
 10
40.0099
 20
60.314
 11
40
 21
60
  0
LINE
  8
0
 10
40
 20
60
 11
-40
 21
60
  0
LINE
  8
0
 10
-45.1256
 20
58.004
 11
-45.2507
 21
58.0158
  0
LINE
  8
0
 10
-45.2507
 20
58.0158
 11
-45.3748
 21
58.0354
  0
LINE
  8
0
 10
-45.3748
 20
58.0354
 11
-45.4974
 21
58.0628
  0
LINE
  8
0
 10
-45.4974
 20
58.0628
 11
-45.618
 21
58.0979
  0
LINE
  8
0
 10
-45.618
 20
58.0979
 11
-45.7362
 21
58.1405
  0
LINE
  8
0
 10
-45.7362
 20
58.1405
 11
-45.8515
 21
58.1904
  0
LINE
  8
0
 10
-45.8515
 20
58.1904
 11
-45.9635
 21
58.2474
  0
LINE
  8
0
 10
-45.9635
 20
58.2474
 11
-46.0716
 21
58.3114
  0
LINE
  8
0
 10
-46.0716
 20
58.3114
 11
-46.1756
 21
58.382
  0
LINE
  8
0
 10
-46.1756
 20
58.382
 11
-46.2748
 21
58.459
  0
LINE
  8
0
 10
-46.2748
 20
58.459
 11
-46.3691
 21
58.5421
  0
LINE
  8
0
 10
-46.3691
 20
58.5421
 11
-46.4579
 21
58.6309
  0
LINE
  8
0
 10
-46.4579
 20
58.6309
 11
-46.541
 21
58.7252
  0
LINE
  8
0
 10
-46.541
 20
58.7252
 11
-46.618
 21
58.8244
  0
LINE
  8
0
 10
-46.618
 20
58.8244
 11
-46.6886
 21
58.9284
  0
LINE
  8
0
 10
-46.6886
 20
58.9284
 11
-46.7526
 21
59.0365
  0
LINE
  8
0
 10
-46.7526
 20
59.0365
 11
-46.8096
 21
59.1485
  0
LINE
  8
0
 10
-46.8096
 20
59.1485
 11
-46.8595
 21
59.2638
  0
LINE
  8
0
 10
-46.8595
 20
59.2638
 11
-46.9021
 21
59.382
  0
LINE
  8
0
 10
-46.9021
 20
59.382
 11
-46.9372
 21
59.5026
  0
LINE
  8
0
 10
-46.9372
 20
59.5026
 11
-46.9646
 21
59.6252
  0
LINE
  8
0
 10
-46.9646
 20
59.6252
 11
-46.9842
 21
59.7493
  0
LINE
  8
0
 10
-46.9842
 20
59.7493
 11
-46.996
 21
59.8744
  0
LINE
  8
0
 10
-46.996
 20
59.8744
 11
-47
 21
60
  0
LINE
  8
0
 10
-47
 20
60
 11
-46.996
 21
60.1256
  0
LINE
  8
0
 10
-46.996
 20
60.1256
 11
-46.9842
 21
60.2507
  0
LINE
  8
0
 10
-46.9842
 20
60.2507
 11
-46.9646
 21
60.3748
  0
LINE
  8
0
 10
-46.9646
 20
60.3748
 11
-46.9372
 21
60.4974
  0
LINE
  8
0
 10
-46.9372
 20
60.4974
 11
-46.9021
 21
60.618
  0
LINE
  8
0
 10
-46.9021
 20
60.618
 11
-46.8595
 21
60.7363
  0
LINE
  8
0
 10
-46.8595
 20
60.7363
 11
-46.8096
 21
60.8516
  0
LINE
  8
0
 10
-46.8096
 20
60.8516
 11
-46.7526
 21
60.9635
  0
LINE
  8
0
 10
-46.7526
 20
60.9635
 11
-46.6886
 21
61.0717
  0
LINE
  8
0
 10
-46.6886
 20
61.0717
 11
-46.618
 21
61.1756
  0
LINE
  8
0
 10
-46.618
 20
61.1756
 11
-46.541
 21
61.2749
  0
LINE
  8
0
 10
-46.541
 20
61.2749
 11
-46.4579
 21
61.3691
  0
LINE
  8
0
 10
-46.4579
 20
61.3691
 11
-46.3691
 21
61.4579
  0
LINE
  8
0
 10
-46.3691
 20
61.4579
 11
-46.2748
 21
61.541
  0
LINE
  8
0
 10
-46.2748
 20
61.541
 11
-46.1756
 21
61.618
  0
LINE
  8
0
 10
-46.1756
 20
61.618
 11
-46.0716
 21
61.6887
  0
LINE
  8
0
 10
-46.0716
 20
61.6887
 11
-45.9635
 21
61.7526
  0
LINE
  8
0
 10
-45.9635
 20
61.7526
 11
-45.8515
 21
61.8097
  0
LINE
  8
0
 10
-45.8515
 20
61.8097
 11
-45.7362
 21
61.8596
  0
LINE
  8
0
 10
-45.7362
 20
61.8596
 11
-45.618
 21
61.9021
  0
LINE
  8
0
 10
-45.618
 20
61.9021
 11
-45.4974
 21
61.9372
  0
LINE
  8
0
 10
-45.4974
 20
61.9372
 11
-45.3748
 21
61.9646
  0
LINE
  8
0
 10
-45.3748
 20
61.9646
 11
-45.2507
 21
61.9842
  0
LINE
  8
0
 10
-45.2507
 20
61.9842
 11
-45.1256
 21
61.9961
  0
LINE
  8
0
 10
-45.1256
 20
61.9961
 11
-45
 21
62
  0
LINE
  8
0
 10
-45
 20
62
 11
-44.8744
 21
61.9961
  0
LINE
  8
0
 10
-44.8744
 20
61.9961
 11
-44.7493
 21
61.9842
  0
LINE
  8
0
 10
-44.7493
 20
61.9842
 11
-44.6252
 21
61.9646
  0
LINE
  8
0
 10
-44.6252
 20
61.9646
 11
-44.5026
 21
61.9372
  0
LINE
  8
0
 10
-44.5026
 20
61.9372
 11
-44.382
 21
61.9021
  0
LINE
  8
0
 10
-44.382
 20
61.9021
 11
-44.2637
 21
61.8596
  0
LINE
  8
0
 10
-44.2637
 20
61.8596
 11
-44.1484
 21
61.8097
  0
LINE
  8
0
 10
-44.1484
 20
61.8097
 11
-44.0365
 21
61.7526
  0
LINE
  8
0
 10
-44.0365
 20
61.7526
 11
-43.9283
 21
61.6887
  0
LINE
  8
0
 10
-43.9283
 20
61.6887
 11
-43.8244
 21
61.618
  0
LINE
  8
0
 10
-43.8244
 20
61.618
 11
-43.7251
 21
61.541
  0
LINE
  8
0
 10
-43.7251
 20
61.541
 11
-43.6309
 21
61.4579
  0
LINE
  8
0
 10
-43.6309
 20
61.4579
 11
-43.5421
 21
61.3691
  0
LINE
  8
0
 10
-43.5421
 20
61.3691
 11
-43.459
 21
61.2749
  0
LINE
  8
0
 10
-43.459
 20
61.2749
 11
-43.382
 21
61.1756
  0
LINE
  8
0
 10
-43.382
 20
61.1756
 11
-43.3113
 21
61.0717
  0
LINE
  8
0
 10
-43.3113
 20
61.0717
 11
-43.2474
 21
60.9635
  0
LINE
  8
0
 10
-43.2474
 20
60.9635
 11
-43.1903
 21
60.8516
  0
LINE
  8
0
 10
-43.1903
 20
60.8516
 11
-43.1404
 21
60.7363
  0
LINE
  8
0
 10
-43.1404
 20
60.7363
 11
-43.0979
 21
60.618
  0
LINE
  8
0
 10
-43.0979
 20
60.618
 11
-43.0628
 21
60.4974
  0
LINE
  8
0
 10
-43.0628
 20
60.4974
 11
-43.0354
 21
60.3748
  0
LINE
  8
0
 10
-43.0354
 20
60.3748
 11
-43.0158
 21
60.2507
  0
LINE
  8
0
 10
-43.0158
 20
60.2507
 11
-43.0039
 21
60.1256
  0
LINE
  8
0
 10
-43.0039
 20
60.1256
 11
-43
 21
60
  0
LINE
  8
0
 10
-43
 20
60
 11
-43.0039
 21
59.8744
  0
LINE
  8
0
 10
-43.0039
 20
59.8744
 11
-43.0158
 21
59.7493
  0
LINE
  8
0
 10
-43.0158
 20
59.7493
 11
-43.0354
 21
59.6252
  0
LINE
  8
0
 10
-43.0354
 20
59.6252
 11
-43.0628
 21
59.5026
  0
LINE
  8
0
 10
-43.0628
 20
59.5026
 11
-43.0979
 21
59.382
  0
LINE
  8
0
 10
-43.0979
 20
59.382
 11
-43.1404
 21
59.2638
  0
LINE
  8
0
 10
-43.1404
 20
59.2638
 11
-43.1903
 21
59.1485
  0
LINE
  8
0
 10
-43.1903
 20
59.1485
 11
-43.2474
 21
59.0365
  0
LINE
  8
0
 10
-43.2474
 20
59.0365
 11
-43.3113
 21
58.9284
  0
LINE
  8
0
 10
-43.3113
 20
58.9284
 11
-43.382
 21
58.8244
  0
LINE
  8
0
 10
-43.382
 20
58.8244
 11
-43.459
 21
58.7252
  0
LINE
  8
0
 10
-43.459
 20
58.7252
 11
-43.5421
 21
58.6309
  0
LINE
  8
0
 10
-43.5421
 20
58.6309
 11
-43.6309
 21
58.5421
  0
LINE
  8
0
 10
-43.6309
 20
58.5421
 11
-43.7251
 21
58.459
  0
LINE
  8
0
 10
-43.7251
 20
58.459
 11
-43.8244
 21
58.382
  0
LINE
  8
0
 10
-43.8244
 20
58.382
 11
-43.9283
 21
58.3114
  0
LINE
  8
0
 10
-43.9283
 20
58.3114
 11
-44.0365
 21
58.2474
  0
LINE
  8
0
 10
-44.0365
 20
58.2474
 11
-44.1484
 21
58.1904
  0
LINE
  8
0
 10
-44.1484
 20
58.1904
 11
-44.2637
 21
58.1405
  0
LINE
  8
0
 10
-44.2637
 20
58.1405
 11
-44.382
 21
58.0979
  0
LINE
  8
0
 10
-44.382
 20
58.0979
 11
-44.5026
 21
58.0628
  0
LINE
  8
0
 10
-44.5026
 20
58.0628
 11
-44.6252
 21
58.0354
  0
LINE
  8
0
 10
-44.6252
 20
58.0354
 11
-44.7493
 21
58.0158
  0
LINE
  8
0
 10
-44.7493
 20
58.0158
 11
-44.8744
 21
58.004
  0
LINE
  8
0
 10
-44.8744
 20
58.004
 11
-45
 21
58
  0
LINE
  8
0
 10
-45
 20
58
 11
-45.1256
 21
58.004
  0
LINE
  8
0
 10
44.8744
 20
58.004
 11
44.7493
 21
58.0158
  0
LINE
  8
0
 10
44.7493
 20
58.0158
 11
44.6252
 21
58.0354
  0
LINE
  8
0
 10
44.6252
 20
58.0354
 11
44.5026
 21
58.0628
  0
LINE
  8
0
 10
44.5026
 20
58.0628
 11
44.382
 21
58.0979
  0
LINE
  8
0
 10
44.382
 20
58.0979
 11
44.2637
 21
58.1405
  0
LINE
  8
0
 10
44.2637
 20
58.1405
 11
44.1484
 21
58.1904
  0
LINE
  8
0
 10
44.1484
 20
58.1904
 11
44.0365
 21
58.2474
  0
LINE
  8
0
 10
44.0365
 20
58.2474
 11
43.9283
 21
58.3114
  0
LINE
  8
0
 10
43.9283
 20
58.3114
 11
43.8244
 21
58.382
  0
LINE
  8
0
 10
43.8244
 20
58.382
 11
43.7251
 21
58.459
  0
LINE
  8
0
 10
43.7251
 20
58.459
 11
43.6309
 21
58.5421
  0
LINE
  8
0
 10
43.6309
 20
58.5421
 11
43.5421
 21
58.6309
  0
LINE
  8
0
 10
43.5421
 20
58.6309
 11
43.459
 21
58.7252
  0
LINE
  8
0
 10
43.459
 20
58.7252
 11
43.382
 21
58.8244
  0
LINE
  8
0
 10
43.382
 20
58.8244
 11
43.3113
 21
58.9284
  0
LINE
  8
0
 10
43.3113
 20
58.9284
 11
43.2474
 21
59.0365
  0
LINE
  8
0
 10
43.2474
 20
59.0365
 11
43.1903
 21
59.1485
  0
LINE
  8
0
 10
43.1903
 20
59.1485
 11
43.1404
 21
59.2638
  0
LINE
  8
0
 10
43.1404
 20
59.2638
 11
43.0979
 21
59.382
  0
LINE
  8
0
 10
43.0979
 20
59.382
 11
43.0628
 21
59.5026
  0
LINE
  8
0
 10
43.0628
 20
59.5026
 11
43.0354
 21
59.6252
  0
LINE
  8
0
 10
43.0354
 20
59.6252
 11
43.0158
 21
59.7493
  0
LINE
  8
0
 10
43.0158
 20
59.7493
 11
43.0039
 21
59.8744
  0
LINE
  8
0
 10
43.0039
 20
59.8744
 11
43
 21
60
  0
LINE
  8
0
 10
43
 20
60
 11
43.0039
 21
60.1256
  0
LINE
  8
0
 10
43.0039
 20
60.1256
 11
43.0158
 21
60.2507
  0
LINE
  8
0
 10
43.0158
 20
60.2507
 11
43.0354
 21
60.3748
  0
LINE
  8
0
 10
43.0354
 20
60.3748
 11
43.0628
 21
60.4974
  0
LINE
  8
0
 10
43.0628
 20
60.4974
 11
43.0979
 21
60.618
  0
LINE
  8
0
 10
43.0979
 20
60.618
 11
43.1404
 21
60.7363
  0
LINE
  8
0
 10
43.1404
 20
60.7363
 11
43.1903
 21
60.8516
  0
LINE
  8
0
 10
43.1903
 20
60.8516
 11
43.2474
 21
60.9635
  0
LINE
  8
0
 10
43.2474
 20
60.9635
 11
43.3113
 21
61.0717
  0
LINE
  8
0
 10
43.3113
 20
61.0717
 11
43.382
 21
61.1756
  0
LINE
  8
0
 10
43.382
 20
61.1756
 11
43.459
 21
61.2749
  0
LINE
  8
0
 10
43.459
 20
61.2749
 11
43.5421
 21
61.3691
  0
LINE
  8
0
 10
43.5421
 20
61.3691
 11
43.6309
 21
61.4579
  0
LINE
  8
0
 10
43.6309
 20
61.4579
 11
43.7251
 21
61.541
  0
LINE
  8
0
 10
43.7251
 20
61.541
 11
43.8244
 21
61.618
  0
LINE
  8
0
 10
43.8244
 20
61.618
 11
43.9283
 21
61.6887
  0
LINE
  8
0
 10
43.9283
 20
61.6887
 11
44.0365
 21
61.7526
  0
LINE
  8
0
 10
44.0365
 20
61.7526
 11
44.1484
 21
61.8097
  0
LINE
  8
0
 10
44.1484
 20
61.8097
 11
44.2637
 21
61.8596
  0
LINE
  8
0
 10
44.2637
 20
61.8596
 11
44.382
 21
61.9021
  0
LINE
  8
0
 10
44.382
 20
61.9021
 11
44.5026
 21
61.9372
  0
LINE
  8
0
 10
44.5026
 20
61.9372
 11
44.6252
 21
61.9646
  0
LINE
  8
0
 10
44.6252
 20
61.9646
 11
44.7493
 21
61.9842
  0
LINE
  8
0
 10
44.7493
 20
61.9842
 11
44.8744
 21
61.9961
  0
LINE
  8
0
 10
44.8744
 20
61.9961
 11
45
 21
62
  0
LINE
  8
0
 10
45
 20
62
 11
45.1256
 21
61.9961
  0
LINE
  8
0
 10
45.1256
 20
61.9961
 11
45.2507
 21
61.9842
  0
LINE
  8
0
 10
45.2507
 20
61.9842
 11
45.3748
 21
61.9646
  0
LINE
  8
0
 10
45.3748
 20
61.9646
 11
45.4974
 21
61.9372
  0
LINE
  8
0
 10
45.4974
 20
61.9372
 11
45.618
 21
61.9021
  0
LINE
  8
0
 10
45.618
 20
61.9021
 11
45.7362
 21
61.8596
  0
LINE
  8
0
 10
45.7362
 20
61.8596
 11
45.8515
 21
61.8097
  0
LINE
  8
0
 10
45.8515
 20
61.8097
 11
45.9635
 21
61.7526
  0
LINE
  8
0
 10
45.9635
 20
61.7526
 11
46.0716
 21
61.6887
  0
LINE
  8
0
 10
46.0716
 20
61.6887
 11
46.1756
 21
61.618
  0
LINE
  8
0
 10
46.1756
 20
61.618
 11
46.2748
 21
61.541
  0
LINE
  8
0
 10
46.2748
 20
61.541
 11
46.3691
 21
61.4579
  0
LINE
  8
0
 10
46.3691
 20
61.4579
 11
46.4579
 21
61.3691
  0
LINE
  8
0
 10
46.4579
 20
61.3691
 11
46.541
 21
61.2749
  0
LINE
  8
0
 10
46.541
 20
61.2749
 11
46.618
 21
61.1756
  0
LINE
  8
0
 10
46.618
 20
61.1756
 11
46.6886
 21
61.0717
  0
LINE
  8
0
 10
46.6886
 20
61.0717
 11
46.7526
 21
60.9635
  0
LINE
  8
0
 10
46.7526
 20
60.9635
 11
46.8096
 21
60.8516
  0
LINE
  8
0
 10
46.8096
 20
60.8516
 11
46.8595
 21
60.7363
  0
LINE
  8
0
 10
46.8595
 20
60.7363
 11
46.9021
 21
60.618
  0
LINE
  8
0
 10
46.9021
 20
60.618
 11
46.9372
 21
60.4974
  0
LINE
  8
0
 10
46.9372
 20
60.4974
 11
46.9646
 21
60.3748
  0
LINE
  8
0
 10
46.9646
 20
60.3748
 11
46.9842
 21
60.2507
  0
LINE
  8
0
 10
46.9842
 20
60.2507
 11
46.996
 21
60.1256
  0
LINE
  8
0
 10
46.996
 20
60.1256
 11
47
 21
60
  0
LINE
  8
0
 10
47
 20
60
 11
46.996
 21
59.8744
  0
LINE
  8
0
 10
46.996
 20
59.8744
 11
46.9842
 21
59.7493
  0
LINE
  8
0
 10
46.9842
 20
59.7493
 11
46.9646
 21
59.6252
  0
LINE
  8
0
 10
46.9646
 20
59.6252
 11
46.9372
 21
59.5026
  0
LINE
  8
0
 10
46.9372
 20
59.5026
 11
46.9021
 21
59.382
  0
LINE
  8
0
 10
46.9021
 20
59.382
 11
46.8595
 21
59.2638
  0
LINE
  8
0
 10
46.8595
 20
59.2638
 11
46.8096
 21
59.1485
  0
LINE
  8
0
 10
46.8096
 20
59.1485
 11
46.7526
 21
59.0365
  0
LINE
  8
0
 10
46.7526
 20
59.0365
 11
46.6886
 21
58.9284
  0
LINE
  8
0
 10
46.6886
 20
58.9284
 11
46.618
 21
58.8244
  0
LINE
  8
0
 10
46.618
 20
58.8244
 11
46.541
 21
58.7252
  0
LINE
  8
0
 10
46.541
 20
58.7252
 11
46.4579
 21
58.6309
  0
LINE
  8
0
 10
46.4579
 20
58.6309
 11
46.3691
 21
58.5421
  0
LINE
  8
0
 10
46.3691
 20
58.5421
 11
46.2748
 21
58.459
  0
LINE
  8
0
 10
46.2748
 20
58.459
 11
46.1756
 21
58.382
  0
LINE
  8
0
 10
46.1756
 20
58.382
 11
46.0716
 21
58.3114
  0
LINE
  8
0
 10
46.0716
 20
58.3114
 11
45.9635
 21
58.2474
  0
LINE
  8
0
 10
45.9635
 20
58.2474
 11
45.8515
 21
58.1904
  0
LINE
  8
0
 10
45.8515
 20
58.1904
 11
45.7362
 21
58.1405
  0
LINE
  8
0
 10
45.7362
 20
58.1405
 11
45.618
 21
58.0979
  0
LINE
  8
0
 10
45.618
 20
58.0979
 11
45.4974
 21
58.0628
  0
LINE
  8
0
 10
45.4974
 20
58.0628
 11
45.3748
 21
58.0354
  0
LINE
  8
0
 10
45.3748
 20
58.0354
 11
45.2507
 21
58.0158
  0
LINE
  8
0
 10
45.2507
 20
58.0158
 11
45.1256
 21
58.004
  0
LINE
  8
0
 10
45.1256
 20
58.004
 11
45
 21
58
  0
LINE
  8
0
 10
45
 20
58
 11
44.8744
 21
58.004
  0
LINE
  8
0
 10
151.251
 20
55.0079
 11
151.501
 21
55.0316
  0
LINE
  8
0
 10
151.501
 20
55.0316
 11
151.75
 21
55.0709
  0
LINE
  8
0
 10
151.75
 20
55.0709
 11
151.995
 21
55.1257
  0
LINE
  8
0
 10
151.995
 20
55.1257
 11
152.236
 21
55.1958
  0
LINE
  8
0
 10
152.236
 20
55.1958
 11
152.472
 21
55.2809
  0
LINE
  8
0
 10
152.472
 20
55.2809
 11
152.703
 21
55.3807
  0
LINE
  8
0
 10
152.703
 20
55.3807
 11
152.927
 21
55.4948
  0
LINE
  8
0
 10
152.927
 20
55.4948
 11
153.143
 21
55.6227
  0
LINE
  8
0
 10
153.143
 20
55.6227
 11
153.351
 21
55.7639
  0
LINE
  8
0
 10
153.351
 20
55.7639
 11
153.55
 21
55.918
  0
LINE
  8
0
 10
153.55
 20
55.918
 11
153.738
 21
56.0841
  0
LINE
  8
0
 10
153.738
 20
56.0841
 11
153.916
 21
56.2618
  0
LINE
  8
0
 10
153.916
 20
56.2618
 11
154.082
 21
56.4503
  0
LINE
  8
0
 10
154.082
 20
56.4503
 11
154.236
 21
56.6489
  0
LINE
  8
0
 10
154.236
 20
56.6489
 11
154.377
 21
56.8567
  0
LINE
  8
0
 10
154.377
 20
56.8567
 11
154.505
 21
57.073
  0
LINE
  8
0
 10
154.505
 20
57.073
 11
154.619
 21
57.2969
  0
LINE
  8
0
 10
154.619
 20
57.2969
 11
154.719
 21
57.5275
  0
LINE
  8
0
 10
154.719
 20
57.5275
 11
154.804
 21
57.7639
  0
LINE
  8
0
 10
154.804
 20
57.7639
 11
154.874
 21
58.0052
  0
LINE
  8
0
 10
154.874
 20
58.0052
 11
154.929
 21
58.2505
  0
LINE
  8
0
 10
154.929
 20
58.2505
 11
154.968
 21
58.4987
  0
LINE
  8
0
 10
154.968
 20
58.4987
 11
154.992
 21
58.7488
  0
LINE
  8
0
 10
154.992
 20
58.7488
 11
155
 21
59
  0
LINE
  8
0
 10
155
 20
59
 11
155
 21
151
  0
LINE
  8
0
 10
155
 20
151
 11
154.992
 21
151.251
  0
LINE
  8
0
 10
154.992
 20
151.251
 11
154.968
 21
151.501
  0
LINE
  8
0
 10
154.968
 20
151.501
 11
154.929
 21
151.75
  0
LINE
  8
0
 10
154.929
 20
151.75
 11
154.874
 21
151.995
  0
LINE
  8
0
 10
154.874
 20
151.995
 11
154.804
 21
152.236
  0
LINE
  8
0
 10
154.804
 20
152.236
 11
154.719
 21
152.472
  0
LINE
  8
0
 10
154.719
 20
152.472
 11
154.619
 21
152.703
  0
LINE
  8
0
 10
154.619
 20
152.703
 11
154.505
 21
152.927
  0
LINE
  8
0
 10
154.505
 20
152.927
 11
154.377
 21
153.143
  0
LINE
  8
0
 10
154.377
 20
153.143
 11
154.236
 21
153.351
  0
LINE
  8
0
 10
154.236
 20
153.351
 11
154.082
 21
153.55
  0
LINE
  8
0
 10
154.082
 20
153.55
 11
153.916
 21
153.738
  0
LINE
  8
0
 10
153.916
 20
153.738
 11
153.738
 21
153.916
  0
LINE
  8
0
 10
153.738
 20
153.916
 11
153.55
 21
154.082
  0
LINE
  8
0
 10
153.55
 20
154.082
 11
153.351
 21
154.236
  0
LINE
  8
0
 10
153.351
 20
154.236
 11
153.143
 21
154.377
  0
LINE
  8
0
 10
153.143
 20
154.377
 11
152.927
 21
154.505
  0
LINE
  8
0
 10
152.927
 20
154.505
 11
152.703
 21
154.619
  0
LINE
  8
0
 10
152.703
 20
154.619
 11
152.472
 21
154.719
  0
LINE
  8
0
 10
152.472
 20
154.719
 11
152.236
 21
154.804
  0
LINE
  8
0
 10
152.236
 20
154.804
 11
151.995
 21
154.874
  0
LINE
  8
0
 10
151.995
 20
154.874
 11
151.75
 21
154.929
  0
LINE
  8
0
 10
151.75
 20
154.929
 11
151.501
 21
154.968
  0
LINE
  8
0
 10
151.501
 20
154.968
 11
151.251
 21
154.992
  0
LINE
  8
0
 10
151.251
 20
154.992
 11
151
 21
155
  0
LINE
  8
0
 10
151
 20
155
 11
59
 21
155
  0
LINE
  8
0
 10
59
 20
155
 11
58.7488
 21
154.992
  0
LINE
  8
0
 10
58.7488
 20
154.992
 11
58.4987
 21
154.968
  0
LINE
  8
0
 10
58.4987
 20
154.968
 11
58.2505
 21
154.929
  0
LINE
  8
0
 10
58.2505
 20
154.929
 11
58.0052
 21
154.874
  0
LINE
  8
0
 10
58.0052
 20
154.874
 11
57.7639
 21
154.804
  0
LINE
  8
0
 10
57.7639
 20
154.804
 11
57.5275
 21
154.719
  0
LINE
  8
0
 10
57.5275
 20
154.719
 11
57.2969
 21
154.619
  0
LINE
  8
0
 10
57.2969
 20
154.619
 11
57.073
 21
154.505
  0
LINE
  8
0
 10
57.073
 20
154.505
 11
56.8567
 21
154.377
  0
LINE
  8
0
 10
56.8567
 20
154.377
 11
56.6489
 21
154.236
  0
LINE
  8
0
 10
56.6489
 20
154.236
 11
56.4503
 21
154.082
  0
LINE
  8
0
 10
56.4503
 20
154.082
 11
56.2618
 21
153.916
  0
LINE
  8
0
 10
56.2618
 20
153.916
 11
56.0841
 21
153.738
  0
LINE
  8
0
 10
56.0841
 20
153.738
 11
55.918
 21
153.55
  0
LINE
  8
0
 10
55.918
 20
153.55
 11
55.7639
 21
153.351
  0
LINE
  8
0
 10
55.7639
 20
153.351
 11
55.6227
 21
153.143
  0
LINE
  8
0
 10
55.6227
 20
153.143
 11
55.4948
 21
152.927
  0
LINE
  8
0
 10
55.4948
 20
152.927
 11
55.3807
 21
152.703
  0
LINE
  8
0
 10
55.3807
 20
152.703
 11
55.2809
 21
152.472
  0
LINE
  8
0
 10
55.2809
 20
152.472
 11
55.1958
 21
152.236
  0
LINE
  8
0
 10
55.1958
 20
152.236
 11
55.1257
 21
151.995
  0
LINE
  8
0
 10
55.1257
 20
151.995
 11
55.0709
 21
151.75
  0
LINE
  8
0
 10
55.0709
 20
151.75
 11
55.0316
 21
151.501
  0
LINE
  8
0
 10
55.0316
 20
151.501
 11
55.0079
 21
151.251
  0
LINE
  8
0
 10
55.0079
 20
151.251
 11
55
 21
151
  0
LINE
  8
0
 10
55
 20
151
 11
55
 21
59
  0
LINE
  8
0
 10
55
 20
59
 11
55.0079
 21
58.7488
  0
LINE
  8
0
 10
55.0079
 20
58.7488
 11
55.0316
 21
58.4987
  0
LINE
  8
0
 10
55.0316
 20
58.4987
 11
55.0709
 21
58.2505
  0
LINE
  8
0
 10
55.0709
 20
58.2505
 11
55.1257
 21
58.0052
  0
LINE
  8
0
 10
55.1257
 20
58.0052
 11
55.1958
 21
57.7639
  0
LINE
  8
0
 10
55.1958
 20
57.7639
 11
55.2809
 21
57.5275
  0
LINE
  8
0
 10
55.2809
 20
57.5275
 11
55.3807
 21
57.2969
  0
LINE
  8
0
 10
55.3807
 20
57.2969
 11
55.4948
 21
57.073
  0
LINE
  8
0
 10
55.4948
 20
57.073
 11
55.6227
 21
56.8567
  0
LINE
  8
0
 10
55.6227
 20
56.8567
 11
55.7639
 21
56.6489
  0
LINE
  8
0
 10
55.7639
 20
56.6489
 11
55.918
 21
56.4503
  0
LINE
  8
0
 10
55.918
 20
56.4503
 11
56.0841
 21
56.2618
  0
LINE
  8
0
 10
56.0841
 20
56.2618
 11
56.2618
 21
56.0841
  0
LINE
  8
0
 10
56.2618
 20
56.0841
 11
56.4503
 21
55.918
  0
LINE
  8
0
 10
56.4503
 20
55.918
 11
56.6489
 21
55.7639
  0
LINE
  8
0
 10
56.6489
 20
55.7639
 11
56.8567
 21
55.6227
  0
LINE
  8
0
 10
56.8567
 20
55.6227
 11
57.073
 21
55.4948
  0
LINE
  8
0
 10
57.073
 20
55.4948
 11
57.2969
 21
55.3807
  0
LINE
  8
0
 10
57.2969
 20
55.3807
 11
57.5275
 21
55.2809
  0
LINE
  8
0
 10
57.5275
 20
55.2809
 11
57.7639
 21
55.1958
  0
LINE
  8
0
 10
57.7639
 20
55.1958
 11
58.0052
 21
55.1257
  0
LINE
  8
0
 10
58.0052
 20
55.1257
 11
58.2505
 21
55.0709
  0
LINE
  8
0
 10
58.2505
 20
55.0709
 11
58.4987
 21
55.0316
  0
LINE
  8
0
 10
58.4987
 20
55.0316
 11
58.7488
 21
55.0079
  0
LINE
  8
0
 10
58.7488
 20
55.0079
 11
59
 21
55
  0
LINE
  8
0
 10
59
 20
55
 11
151
 21
55
  0
LINE
  8
0
 10
151
 20
55
 11
151.251
 21
55.0079
  0
LINE
  8
0
 10
59.8744
 20
148.004
 11
59.7493
 21
148.016
  0
LINE
  8
0
 10
59.7493
 20
148.016
 11
59.6252
 21
148.035
  0
LINE
  8
0
 10
59.6252
 20
148.035
 11
59.5026
 21
148.063
  0
LINE
  8
0
 10
59.5026
 20
148.063
 11
59.382
 21
148.098
  0
LINE
  8
0
 10
59.382
 20
148.098
 11
59.2638
 21
148.14
  0
LINE
  8
0
 10
59.2638
 20
148.14
 11
59.1485
 21
148.19
  0
LINE
  8
0
 10
59.1485
 20
148.19
 11
59.0365
 21
148.247
  0
LINE
  8
0
 10
59.0365
 20
148.247
 11
58.9284
 21
148.311
  0
LINE
  8
0
 10
58.9284
 20
148.311
 11
58.8244
 21
148.382
  0
LINE
  8
0
 10
58.8244
 20
148.382
 11
58.7252
 21
148.459
  0
LINE
  8
0
 10
58.7252
 20
148.459
 11
58.6309
 21
148.542
  0
LINE
  8
0
 10
58.6309
 20
148.542
 11
58.5421
 21
148.631
  0
LINE
  8
0
 10
58.5421
 20
148.631
 11
58.459
 21
148.725
  0
LINE
  8
0
 10
58.459
 20
148.725
 11
58.382
 21
148.824
  0
LINE
  8
0
 10
58.382
 20
148.824
 11
58.3114
 21
148.928
  0
LINE
  8
0
 10
58.3114
 20
148.928
 11
58.2474
 21
149.036
  0
LINE
  8
0
 10
58.2474
 20
149.036
 11
58.1904
 21
149.148
  0
LINE
  8
0
 10
58.1904
 20
149.148
 11
58.1405
 21
149.264
  0
LINE
  8
0
 10
58.1405
 20
149.264
 11
58.0979
 21
149.382
  0
LINE
  8
0
 10
58.0979
 20
149.382
 11
58.0628
 21
149.503
  0
LINE
  8
0
 10
58.0628
 20
149.503
 11
58.0354
 21
149.625
  0
LINE
  8
0
 10
58.0354
 20
149.625
 11
58.0158
 21
149.749
  0
LINE
  8
0
 10
58.0158
 20
149.749
 11
58.004
 21
149.874
  0
LINE
  8
0
 10
58.004
 20
149.874
 11
58
 21
150
  0
LINE
  8
0
 10
58
 20
150
 11
58.004
 21
150.126
  0
LINE
  8
0
 10
58.004
 20
150.126
 11
58.0158
 21
150.251
  0
LINE
  8
0
 10
58.0158
 20
150.251
 11
58.0354
 21
150.375
  0
LINE
  8
0
 10
58.0354
 20
150.375
 11
58.0628
 21
150.497
  0
LINE
  8
0
 10
58.0628
 20
150.497
 11
58.0979
 21
150.618
  0
LINE
  8
0
 10
58.0979
 20
150.618
 11
58.1405
 21
150.736
  0
LINE
  8
0
 10
58.1405
 20
150.736
 11
58.1904
 21
150.852
  0
LINE
  8
0
 10
58.1904
 20
150.852
 11
58.2474
 21
150.964
  0
LINE
  8
0
 10
58.2474
 20
150.964
 11
58.3114
 21
151.072
  0
LINE
  8
0
 10
58.3114
 20
151.072
 11
58.382
 21
151.176
  0
LINE
  8
0
 10
58.382
 20
151.176
 11
58.459
 21
151.275
  0
LINE
  8
0
 10
58.459
 20
151.275
 11
58.5421
 21
151.369
  0
LINE
  8
0
 10
58.5421
 20
151.369
 11
58.6309
 21
151.458
  0
LINE
  8
0
 10
58.6309
 20
151.458
 11
58.7252
 21
151.541
  0
LINE
  8
0
 10
58.7252
 20
151.541
 11
58.8244
 21
151.618
  0
LINE
  8
0
 10
58.8244
 20
151.618
 11
58.9284
 21
151.689
  0
LINE
  8
0
 10
58.9284
 20
151.689
 11
59.0365
 21
151.753
  0
LINE
  8
0
 10
59.0365
 20
151.753
 11
59.1485
 21
151.81
  0
LINE
  8
0
 10
59.1485
 20
151.81
 11
59.2638
 21
151.86
  0
LINE
  8
0
 10
59.2638
 20
151.86
 11
59.382
 21
151.902
  0
LINE
  8
0
 10
59.382
 20
151.902
 11
59.5026
 21
151.937
  0
LINE
  8
0
 10
59.5026
 20
151.937
 11
59.6252
 21
151.965
  0
LINE
  8
0
 10
59.6252
 20
151.965
 11
59.7493
 21
151.984
  0
LINE
  8
0
 10
59.7493
 20
151.984
 11
59.8744
 21
151.996
  0
LINE
  8
0
 10
59.8744
 20
151.996
 11
60
 21
152
  0
LINE
  8
0
 10
60
 20
152
 11
60.1256
 21
151.996
  0
LINE
  8
0
 10
60.1256
 20
151.996
 11
60.2507
 21
151.984
  0
LINE
  8
0
 10
60.2507
 20
151.984
 11
60.3748
 21
151.965
  0
LINE
  8
0
 10
60.3748
 20
151.965
 11
60.4974
 21
151.937
  0
LINE
  8
0
 10
60.4974
 20
151.937
 11
60.618
 21
151.902
  0
LINE
  8
0
 10
60.618
 20
151.902
 11
60.7363
 21
151.86
  0
LINE
  8
0
 10
60.7363
 20
151.86
 11
60.8516
 21
151.81
  0
LINE
  8
0
 10
60.8516
 20
151.81
 11
60.9635
 21
151.753
  0
LINE
  8
0
 10
60.9635
 20
151.753
 11
61.0717
 21
151.689
  0
LINE
  8
0
 10
61.0717
 20
151.689
 11
61.1756
 21
151.618
  0
LINE
  8
0
 10
61.1756
 20
151.618
 11
61.2749
 21
151.541
  0
LINE
  8
0
 10
61.2749
 20
151.541
 11
61.3691
 21
151.458
  0
LINE
  8
0
 10
61.3691
 20
151.458
 11
61.4579
 21
151.369
  0
LINE
  8
0
 10
61.4579
 20
151.369
 11
61.541
 21
151.275
  0
LINE
  8
0
 10
61.541
 20
151.275
 11
61.618
 21
151.176
  0
LINE
  8
0
 10
61.618
 20
151.176
 11
61.6887
 21
151.072
  0
LINE
  8
0
 10
61.6887
 20
151.072
 11
61.7526
 21
150.964
  0
LINE
  8
0
 10
61.7526
 20
150.964
 11
61.8097
 21
150.852
  0
LINE
  8
0
 10
61.8097
 20
150.852
 11
61.8596
 21
150.736
  0
LINE
  8
0
 10
61.8596
 20
150.736
 11
61.9021
 21
150.618
  0
LINE
  8
0
 10
61.9021
 20
150.618
 11
61.9372
 21
150.497
  0
LINE
  8
0
 10
61.9372
 20
150.497
 11
61.9646
 21
150.375
  0
LINE
  8
0
 10
61.9646
 20
150.375
 11
61.9842
 21
150.251
  0
LINE
  8
0
 10
61.9842
 20
150.251
 11
61.9961
 21
150.126
  0
LINE
  8
0
 10
61.9961
 20
150.126
 11
62
 21
150
  0
LINE
  8
0
 10
62
 20
150
 11
61.9961
 21
149.874
  0
LINE
  8
0
 10
61.9961
 20
149.874
 11
61.9842
 21
149.749
  0
LINE
  8
0
 10
61.9842
 20
149.749
 11
61.9646
 21
149.625
  0
LINE
  8
0
 10
61.9646
 20
149.625
 11
61.9372
 21
149.503
  0
LINE
  8
0
 10
61.9372
 20
149.503
 11
61.9021
 21
149.382
  0
LINE
  8
0
 10
61.9021
 20
149.382
 11
61.8596
 21
149.264
  0
LINE
  8
0
 10
61.8596
 20
149.264
 11
61.8097
 21
149.148
  0
LINE
  8
0
 10
61.8097
 20
149.148
 11
61.7526
 21
149.036
  0
LINE
  8
0
 10
61.7526
 20
149.036
 11
61.6887
 21
148.928
  0
LINE
  8
0
 10
61.6887
 20
148.928
 11
61.618
 21
148.824
  0
LINE
  8
0
 10
61.618
 20
148.824
 11
61.541
 21
148.725
  0
LINE
  8
0
 10
61.541
 20
148.725
 11
61.4579
 21
148.631
  0
LINE
  8
0
 10
61.4579
 20
148.631
 11
61.3691
 21
148.542
  0
LINE
  8
0
 10
61.3691
 20
148.542
 11
61.2749
 21
148.459
  0
LINE
  8
0
 10
61.2749
 20
148.459
 11
61.1756
 21
148.382
  0
LINE
  8
0
 10
61.1756
 20
148.382
 11
61.0717
 21
148.311
  0
LINE
  8
0
 10
61.0717
 20
148.311
 11
60.9635
 21
148.247
  0
LINE
  8
0
 10
60.9635
 20
148.247
 11
60.8516
 21
148.19
  0
LINE
  8
0
 10
60.8516
 20
148.19
 11
60.7363
 21
148.14
  0
LINE
  8
0
 10
60.7363
 20
148.14
 11
60.618
 21
148.098
  0
LINE
  8
0
 10
60.618
 20
148.098
 11
60.4974
 21
148.063
  0
LINE
  8
0
 10
60.4974
 20
148.063
 11
60.3748
 21
148.035
  0
LINE
  8
0
 10
60.3748
 20
148.035
 11
60.2507
 21
148.016
  0
LINE
  8
0
 10
60.2507
 20
148.016
 11
60.1256
 21
148.004
  0
LINE
  8
0
 10
60.1256
 20
148.004
 11
60
 21
148
  0
LINE
  8
0
 10
60
 20
148
 11
59.8744
 21
148.004
  0
LINE
  8
0
 10
149.874
 20
148.004
 11
149.749
 21
148.016
  0
LINE
  8
0
 10
149.749
 20
148.016
 11
149.625
 21
148.035
  0
LINE
  8
0
 10
149.625
 20
148.035
 11
149.503
 21
148.063
  0
LINE
  8
0
 10
149.503
 20
148.063
 11
149.382
 21
148.098
  0
LINE
  8
0
 10
149.382
 20
148.098
 11
149.264
 21
148.14
  0
LINE
  8
0
 10
149.264
 20
148.14
 11
149.148
 21
148.19
  0
LINE
  8
0
 10
149.148
 20
148.19
 11
149.036
 21
148.247
  0
LINE
  8
0
 10
149.036
 20
148.247
 11
148.928
 21
148.311
  0
LINE
  8
0
 10
148.928
 20
148.311
 11
148.824
 21
148.382
  0
LINE
  8
0
 10
148.824
 20
148.382
 11
148.725
 21
148.459
  0
LINE
  8
0
 10
148.725
 20
148.459
 11
148.631
 21
148.542
  0
LINE
  8
0
 10
148.631
 20
148.542
 11
148.542
 21
148.631
  0
LINE
  8
0
 10
148.542
 20
148.631
 11
148.459
 21
148.725
  0
LINE
  8
0
 10
148.459
 20
148.725
 11
148.382
 21
148.824
  0
LINE
  8
0
 10
148.382
 20
148.824
 11
148.311
 21
148.928
  0
LINE
  8
0
 10
148.311
 20
148.928
 11
148.247
 21
149.036
  0
LINE
  8
0
 10
148.247
 20
149.036
 11
148.19
 21
149.148
  0
LINE
  8
0
 10
148.19
 20
149.148
 11
148.14
 21
149.264
  0
LINE
  8
0
 10
148.14
 20
149.264
 11
148.098
 21
149.382
  0
LINE
  8
0
 10
148.098
 20
149.382
 11
148.063
 21
149.503
  0
LINE
  8
0
 10
148.063
 20
149.503
 11
148.035
 21
149.625
  0
LINE
  8
0
 10
148.035
 20
149.625
 11
148.016
 21
149.749
  0
LINE
  8
0
 10
148.016
 20
149.749
 11
148.004
 21
149.874
  0
LINE
  8
0
 10
148.004
 20
149.874
 11
148
 21
150
  0
LINE
  8
0
 10
148
 20
150
 11
148.004
 21
150.126
  0
LINE
  8
0
 10
148.004
 20
150.126
 11
148.016
 21
150.251
  0
LINE
  8
0
 10
148.016
 20
150.251
 11
148.035
 21
150.375
  0
LINE
  8
0
 10
148.035
 20
150.375
 11
148.063
 21
150.497
  0
LINE
  8
0
 10
148.063
 20
150.497
 11
148.098
 21
150.618
  0
LINE
  8
0
 10
148.098
 20
150.618
 11
148.14
 21
150.736
  0
LINE
  8
0
 10
148.14
 20
150.736
 11
148.19
 21
150.852
  0
LINE
  8
0
 10
148.19
 20
150.852
 11
148.247
 21
150.964
  0
LINE
  8
0
 10
148.247
 20
150.964
 11
148.311
 21
151.072
  0
LINE
  8
0
 10
148.311
 20
151.072
 11
148.382
 21
151.176
  0
LINE
  8
0
 10
148.382
 20
151.176
 11
148.459
 21
151.275
  0
LINE
  8
0
 10
148.459
 20
151.275
 11
148.542
 21
151.369
  0
LINE
  8
0
 10
148.542
 20
151.369
 11
148.631
 21
151.458
  0
LINE
  8
0
 10
148.631
 20
151.458
 11
148.725
 21
151.541
  0
LINE
  8
0
 10
148.725
 20
151.541
 11
148.824
 21
151.618
  0
LINE
  8
0
 10
148.824
 20
151.618
 11
148.928
 21
151.689
  0
LINE
  8
0
 10
148.928
 20
151.689
 11
149.036
 21
151.753
  0
LINE
  8
0
 10
149.036
 20
151.753
 11
149.148
 21
151.81
  0
LINE
  8
0
 10
149.148
 20
151.81
 11
149.264
 21
151.86
  0
LINE
  8
0
 10
149.264
 20
151.86
 11
149.382
 21
151.902
  0
LINE
  8
0
 10
149.382
 20
151.902
 11
149.503
 21
151.937
  0
LINE
  8
0
 10
149.503
 20
151.937
 11
149.625
 21
151.965
  0
LINE
  8
0
 10
149.625
 20
151.965
 11
149.749
 21
151.984
  0
LINE
  8
0
 10
149.749
 20
151.984
 11
149.874
 21
151.996
  0
LINE
  8
0
 10
149.874
 20
151.996
 11
150
 21
152
  0
LINE
  8
0
 10
150
 20
152
 11
150.126
 21
151.996
  0
LINE
  8
0
 10
150.126
 20
151.996
 11
150.251
 21
151.984
  0
LINE
  8
0
 10
150.251
 20
151.984
 11
150.375
 21
151.965
  0
LINE
  8
0
 10
150.375
 20
151.965
 11
150.497
 21
151.937
  0
LINE
  8
0
 10
150.497
 20
151.937
 11
150.618
 21
151.902
  0
LINE
  8
0
 10
150.618
 20
151.902
 11
150.736
 21
151.86
  0
LINE
  8
0
 10
150.736
 20
151.86
 11
150.852
 21
151.81
  0
LINE
  8
0
 10
150.852
 20
151.81
 11
150.964
 21
151.753
  0
LINE
  8
0
 10
150.964
 20
151.753
 11
151.072
 21
151.689
  0
LINE
  8
0
 10
151.072
 20
151.689
 11
151.176
 21
151.618
  0
LINE
  8
0
 10
151.176
 20
151.618
 11
151.275
 21
151.541
  0
LINE
  8
0
 10
151.275
 20
151.541
 11
151.369
 21
151.458
  0
LINE
  8
0
 10
151.369
 20
151.458
 11
151.458
 21
151.369
  0
LINE
  8
0
 10
151.458
 20
151.369
 11
151.541
 21
151.275
  0
LINE
  8
0
 10
151.541
 20
151.275
 11
151.618
 21
151.176
  0
LINE
  8
0
 10
151.618
 20
151.176
 11
151.689
 21
151.072
  0
LINE
  8
0
 10
151.689
 20
151.072
 11
151.753
 21
150.964
  0
LINE
  8
0
 10
151.753
 20
150.964
 11
151.81
 21
150.852
  0
LINE
  8
0
 10
151.81
 20
150.852
 11
151.86
 21
150.736
  0
LINE
  8
0
 10
151.86
 20
150.736
 11
151.902
 21
150.618
  0
LINE
  8
0
 10
151.902
 20
150.618
 11
151.937
 21
150.497
  0
LINE
  8
0
 10
151.937
 20
150.497
 11
151.965
 21
150.375
  0
LINE
  8
0
 10
151.965
 20
150.375
 11
151.984
 21
150.251
  0
LINE
  8
0
 10
151.984
 20
150.251
 11
151.996
 21
150.126
  0
LINE
  8
0
 10
151.996
 20
150.126
 11
152
 21
150
  0
LINE
  8
0
 10
152
 20
150
 11
151.996
 21
149.874
  0
LINE
  8
0
 10
151.996
 20
149.874
 11
151.984
 21
149.749
  0
LINE
  8
0
 10
151.984
 20
149.749
 11
151.965
 21
149.625
  0
LINE
  8
0
 10
151.965
 20
149.625
 11
151.937
 21
149.503
  0
LINE
  8
0
 10
151.937
 20
149.503
 11
151.902
 21
149.382
  0
LINE
  8
0
 10
151.902
 20
149.382
 11
151.86
 21
149.264
  0
LINE
  8
0
 10
151.86
 20
149.264
 11
151.81
 21
149.148
  0
LINE
  8
0
 10
151.81
 20
149.148
 11
151.753
 21
149.036
  0
LINE
  8
0
 10
151.753
 20
149.036
 11
151.689
 21
148.928
  0
LINE
  8
0
 10
151.689
 20
148.928
 11
151.618
 21
148.824
  0
LINE
  8
0
 10
151.618
 20
148.824
 11
151.541
 21
148.725
  0
LINE
  8
0
 10
151.541
 20
148.725
 11
151.458
 21
148.631
  0
LINE
  8
0
 10
151.458
 20
148.631
 11
151.369
 21
148.542
  0
LINE
  8
0
 10
151.369
 20
148.542
 11
151.275
 21
148.459
  0
LINE
  8
0
 10
151.275
 20
148.459
 11
151.176
 21
148.382
  0
LINE
  8
0
 10
151.176
 20
148.382
 11
151.072
 21
148.311
  0
LINE
  8
0
 10
151.072
 20
148.311
 11
150.964
 21
148.247
  0
LINE
  8
0
 10
150.964
 20
148.247
 11
150.852
 21
148.19
  0
LINE
  8
0
 10
150.852
 20
148.19
 11
150.736
 21
148.14
  0
LINE
  8
0
 10
150.736
 20
148.14
 11
150.618
 21
148.098
  0
LINE
  8
0
 10
150.618
 20
148.098
 11
150.497
 21
148.063
  0
LINE
  8
0
 10
150.497
 20
148.063
 11
150.375
 21
148.035
  0
LINE
  8
0
 10
150.375
 20
148.035
 11
150.251
 21
148.016
  0
LINE
  8
0
 10
150.251
 20
148.016
 11
150.126
 21
148.004
  0
LINE
  8
0
 10
150.126
 20
148.004
 11
150
 21
148
  0
LINE
  8
0
 10
150
 20
148
 11
149.874
 21
148.004
  0
LINE
  8
0
 10
65
 20
60
 11
64.9901
 21
60.314
  0
LINE
  8
0
 10
64.9901
 20
60.314
 11
64.9606
 21
60.6267
  0
LINE
  8
0
 10
64.9606
 20
60.6267
 11
64.9114
 21
60.9369
  0
LINE
  8
0
 10
64.9114
 20
60.9369
 11
64.8429
 21
61.2435
  0
LINE
  8
0
 10
64.8429
 20
61.2435
 11
64.7553
 21
61.5451
  0
LINE
  8
0
 10
64.7553
 20
61.5451
 11
64.6489
 21
61.8406
  0
LINE
  8
0
 10
64.6489
 20
61.8406
 11
64.5241
 21
62.1289
  0
LINE
  8
0
 10
64.5241
 20
62.1289
 11
64.3815
 21
62.4088
  0
LINE
  8
0
 10
64.3815
 20
62.4088
 11
64.2216
 21
62.6791
  0
LINE
  8
0
 10
64.2216
 20
62.6791
 11
64.0451
 21
62.9389
  0
LINE
  8
0
 10
64.0451
 20
62.9389
 11
63.8526
 21
63.1871
  0
LINE
  8
0
 10
63.8526
 20
63.1871
 11
63.6449
 21
63.4227
  0
LINE
  8
0
 10
63.6449
 20
63.4227
 11
63.4227
 21
63.6449
  0
LINE
  8
0
 10
63.4227
 20
63.6449
 11
63.1871
 21
63.8526
  0
LINE
  8
0
 10
63.1871
 20
63.8526
 11
62.9389
 21
64.0451
  0
LINE
  8
0
 10
62.9389
 20
64.0451
 11
62.6791
 21
64.2216
  0
LINE
  8
0
 10
62.6791
 20
64.2216
 11
62.4088
 21
64.3815
  0
LINE
  8
0
 10
62.4088
 20
64.3815
 11
62.1289
 21
64.5241
  0
LINE
  8
0
 10
62.1289
 20
64.5241
 11
61.8406
 21
64.6489
  0
LINE
  8
0
 10
61.8406
 20
64.6489
 11
61.5451
 21
64.7553
  0
LINE
  8
0
 10
61.5451
 20
64.7553
 11
61.2435
 21
64.8429
  0
LINE
  8
0
 10
61.2435
 20
64.8429
 11
60.9369
 21
64.9114
  0
LINE
  8
0
 10
60.9369
 20
64.9114
 11
60.6267
 21
64.9606
  0
LINE
  8
0
 10
60.6267
 20
64.9606
 11
60.314
 21
64.9901
  0
LINE
  8
0
 10
60.314
 20
64.9901
 11
60
 21
65
  0
LINE
  8
0
 10
60
 20
65
 11
60
 21
145
  0
LINE
  8
0
 10
60
 20
145
 11
60.314
 21
145.01
  0
LINE
  8
0
 10
60.314
 20
145.01
 11
60.6267
 21
145.039
  0
LINE
  8
0
 10
60.6267
 20
145.039
 11
60.9369
 21
145.089
  0
LINE
  8
0
 10
60.9369
 20
145.089
 11
61.2435
 21
145.157
  0
LINE
  8
0
 10
61.2435
 20
145.157
 11
61.5451
 21
145.245
  0
LINE
  8
0
 10
61.5451
 20
145.245
 11
61.8406
 21
145.351
  0
LINE
  8
0
 10
61.8406
 20
145.351
 11
62.1289
 21
145.476
  0
LINE
  8
0
 10
62.1289
 20
145.476
 11
62.4088
 21
145.618
  0
LINE
  8
0
 10
62.4088
 20
145.618
 11
62.6791
 21
145.778
  0
LINE
  8
0
 10
62.6791
 20
145.778
 11
62.9389
 21
145.955
  0
LINE
  8
0
 10
62.9389
 20
145.955
 11
63.1871
 21
146.147
  0
LINE
  8
0
 10
63.1871
 20
146.147
 11
63.4227
 21
146.355
  0
LINE
  8
0
 10
63.4227
 20
146.355
 11
63.6449
 21
146.577
  0
LINE
  8
0
 10
63.6449
 20
146.577
 11
63.8526
 21
146.813
  0
LINE
  8
0
 10
63.8526
 20
146.813
 11
64.0451
 21
147.061
  0
LINE
  8
0
 10
64.0451
 20
147.061
 11
64.2216
 21
147.321
  0
LINE
  8
0
 10
64.2216
 20
147.321
 11
64.3815
 21
147.591
  0
LINE
  8
0
 10
64.3815
 20
147.591
 11
64.5241
 21
147.871
  0
LINE
  8
0
 10
64.5241
 20
147.871
 11
64.6489
 21
148.159
  0
LINE
  8
0
 10
64.6489
 20
148.159
 11
64.7553
 21
148.455
  0
LINE
  8
0
 10
64.7553
 20
148.455
 11
64.8429
 21
148.757
  0
LINE
  8
0
 10
64.8429
 20
148.757
 11
64.9114
 21
149.063
  0
LINE
  8
0
 10
64.9114
 20
149.063
 11
64.9606
 21
149.373
  0
LINE
  8
0
 10
64.9606
 20
149.373
 11
64.9901
 21
149.686
  0
LINE
  8
0
 10
64.9901
 20
149.686
 11
65
 21
150
  0
LINE
  8
0
 10
65
 20
150
 11
145
 21
150
  0
LINE
  8
0
 10
145
 20
150
 11
145.01
 21
149.686
  0
LINE
  8
0
 10
145.01
 20
149.686
 11
145.039
 21
149.373
  0
LINE
  8
0
 10
145.039
 20
149.373
 11
145.089
 21
149.063
  0
LINE
  8
0
 10
145.089
 20
149.063
 11
145.157
 21
148.757
  0
LINE
  8
0
 10
145.157
 20
148.757
 11
145.245
 21
148.455
  0
LINE
  8
0
 10
145.245
 20
148.455
 11
145.351
 21
148.159
  0
LINE
  8
0
 10
145.351
 20
148.159
 11
145.476
 21
147.871
  0
LINE
  8
0
 10
145.476
 20
147.871
 11
145.618
 21
147.591
  0
LINE
  8
0
 10
145.618
 20
147.591
 11
145.778
 21
147.321
  0
LINE
  8
0
 10
145.778
 20
147.321
 11
145.955
 21
147.061
  0
LINE
  8
0
 10
145.955
 20
147.061
 11
146.147
 21
146.813
  0
LINE
  8
0
 10
146.147
 20
146.813
 11
146.355
 21
146.577
  0
LINE
  8
0
 10
146.355
 20
146.577
 11
146.577
 21
146.355
  0
LINE
  8
0
 10
146.577
 20
146.355
 11
146.813
 21
146.147
  0
LINE
  8
0
 10
146.813
 20
146.147
 11
147.061
 21
145.955
  0
LINE
  8
0
 10
147.061
 20
145.955
 11
147.321
 21
145.778
  0
LINE
  8
0
 10
147.321
 20
145.778
 11
147.591
 21
145.618
  0
LINE
  8
0
 10
147.591
 20
145.618
 11
147.871
 21
145.476
  0
LINE
  8
0
 10
147.871
 20
145.476
 11
148.159
 21
145.351
  0
LINE
  8
0
 10
148.159
 20
145.351
 11
148.455
 21
145.245
  0
LINE
  8
0
 10
148.455
 20
145.245
 11
148.757
 21
145.157
  0
LINE
  8
0
 10
148.757
 20
145.157
 11
149.063
 21
145.089
  0
LINE
  8
0
 10
149.063
 20
145.089
 11
149.373
 21
145.039
  0
LINE
  8
0
 10
149.373
 20
145.039
 11
149.686
 21
145.01
  0
LINE
  8
0
 10
149.686
 20
145.01
 11
150
 21
145
  0
LINE
  8
0
 10
150
 20
145
 11
150
 21
65
  0
LINE
  8
0
 10
150
 20
65
 11
149.686
 21
64.9901
  0
LINE
  8
0
 10
149.686
 20
64.9901
 11
149.373
 21
64.9606
  0
LINE
  8
0
 10
149.373
 20
64.9606
 11
149.063
 21
64.9114
  0
LINE
  8
0
 10
149.063
 20
64.9114
 11
148.757
 21
64.8429
  0
LINE
  8
0
 10
148.757
 20
64.8429
 11
148.455
 21
64.7553
  0
LINE
  8
0
 10
148.455
 20
64.7553
 11
148.159
 21
64.6489
  0
LINE
  8
0
 10
148.159
 20
64.6489
 11
147.871
 21
64.5241
  0
LINE
  8
0
 10
147.871
 20
64.5241
 11
147.591
 21
64.3815
  0
LINE
  8
0
 10
147.591
 20
64.3815
 11
147.321
 21
64.2216
  0
LINE
  8
0
 10
147.321
 20
64.2216
 11
147.061
 21
64.0451
  0
LINE
  8
0
 10
147.061
 20
64.0451
 11
146.813
 21
63.8526
  0
LINE
  8
0
 10
146.813
 20
63.8526
 11
146.577
 21
63.6449
  0
LINE
  8
0
 10
146.577
 20
63.6449
 11
146.355
 21
63.4227
  0
LINE
  8
0
 10
146.355
 20
63.4227
 11
146.147
 21
63.1871
  0
LINE
  8
0
 10
146.147
 20
63.1871
 11
145.955
 21
62.9389
  0
LINE
  8
0
 10
145.955
 20
62.9389
 11
145.778
 21
62.6791
  0
LINE
  8
0
 10
145.778
 20
62.6791
 11
145.618
 21
62.4088
  0
LINE
  8
0
 10
145.618
 20
62.4088
 11
145.476
 21
62.1289
  0
LINE
  8
0
 10
145.476
 20
62.1289
 11
145.351
 21
61.8406
  0
LINE
  8
0
 10
145.351
 20
61.8406
 11
145.245
 21
61.5451
  0
LINE
  8
0
 10
145.245
 20
61.5451
 11
145.157
 21
61.2435
  0
LINE
  8
0
 10
145.157
 20
61.2435
 11
145.089
 21
60.9369
  0
LINE
  8
0
 10
145.089
 20
60.9369
 11
145.039
 21
60.6267
  0
LINE
  8
0
 10
145.039
 20
60.6267
 11
145.01
 21
60.314
  0
LINE
  8
0
 10
145.01
 20
60.314
 11
145
 21
60
  0
LINE
  8
0
 10
145
 20
60
 11
65
 21
60
  0
LINE
  8
0
 10
59.8744
 20
58.004
 11
59.7493
 21
58.0158
  0
LINE
  8
0
 10
59.7493
 20
58.0158
 11
59.6252
 21
58.0354
  0
LINE
  8
0
 10
59.6252
 20
58.0354
 11
59.5026
 21
58.0628
  0
LINE
  8
0
 10
59.5026
 20
58.0628
 11
59.382
 21
58.0979
  0
LINE
  8
0
 10
59.382
 20
58.0979
 11
59.2638
 21
58.1405
  0
LINE
  8
0
 10
59.2638
 20
58.1405
 11
59.1485
 21
58.1904
  0
LINE
  8
0
 10
59.1485
 20
58.1904
 11
59.0365
 21
58.2474
  0
LINE
  8
0
 10
59.0365
 20
58.2474
 11
58.9284
 21
58.3114
  0
LINE
  8
0
 10
58.9284
 20
58.3114
 11
58.8244
 21
58.382
  0
LINE
  8
0
 10
58.8244
 20
58.382
 11
58.7252
 21
58.459
  0
LINE
  8
0
 10
58.7252
 20
58.459
 11
58.6309
 21
58.5421
  0
LINE
  8
0
 10
58.6309
 20
58.5421
 11
58.5421
 21
58.6309
  0
LINE
  8
0
 10
58.5421
 20
58.6309
 11
58.459
 21
58.7252
  0
LINE
  8
0
 10
58.459
 20
58.7252
 11
58.382
 21
58.8244
  0
LINE
  8
0
 10
58.382
 20
58.8244
 11
58.3114
 21
58.9284
  0
LINE
  8
0
 10
58.3114
 20
58.9284
 11
58.2474
 21
59.0365
  0
LINE
  8
0
 10
58.2474
 20
59.0365
 11
58.1904
 21
59.1485
  0
LINE
  8
0
 10
58.1904
 20
59.1485
 11
58.1405
 21
59.2638
  0
LINE
  8
0
 10
58.1405
 20
59.2638
 11
58.0979
 21
59.382
  0
LINE
  8
0
 10
58.0979
 20
59.382
 11
58.0628
 21
59.5026
  0
LINE
  8
0
 10
58.0628
 20
59.5026
 11
58.0354
 21
59.6252
  0
LINE
  8
0
 10
58.0354
 20
59.6252
 11
58.0158
 21
59.7493
  0
LINE
  8
0
 10
58.0158
 20
59.7493
 11
58.004
 21
59.8744
  0
LINE
  8
0
 10
58.004
 20
59.8744
 11
58
 21
60
  0
LINE
  8
0
 10
58
 20
60
 11
58.004
 21
60.1256
  0
LINE
  8
0
 10
58.004
 20
60.1256
 11
58.0158
 21
60.2507
  0
LINE
  8
0
 10
58.0158
 20
60.2507
 11
58.0354
 21
60.3748
  0
LINE
  8
0
 10
58.0354
 20
60.3748
 11
58.0628
 21
60.4974
  0
LINE
  8
0
 10
58.0628
 20
60.4974
 11
58.0979
 21
60.618
  0
LINE
  8
0
 10
58.0979
 20
60.618
 11
58.1405
 21
60.7363
  0
LINE
  8
0
 10
58.1405
 20
60.7363
 11
58.1904
 21
60.8516
  0
LINE
  8
0
 10
58.1904
 20
60.8516
 11
58.2474
 21
60.9635
  0
LINE
  8
0
 10
58.2474
 20
60.9635
 11
58.3114
 21
61.0717
  0
LINE
  8
0
 10
58.3114
 20
61.0717
 11
58.382
 21
61.1756
  0
LINE
  8
0
 10
58.382
 20
61.1756
 11
58.459
 21
61.2749
  0
LINE
  8
0
 10
58.459
 20
61.2749
 11
58.5421
 21
61.3691
  0
LINE
  8
0
 10
58.5421
 20
61.3691
 11
58.6309
 21
61.4579
  0
LINE
  8
0
 10
58.6309
 20
61.4579
 11
58.7252
 21
61.541
  0
LINE
  8
0
 10
58.7252
 20
61.541
 11
58.8244
 21
61.618
  0
LINE
  8
0
 10
58.8244
 20
61.618
 11
58.9284
 21
61.6887
  0
LINE
  8
0
 10
58.9284
 20
61.6887
 11
59.0365
 21
61.7526
  0
LINE
  8
0
 10
59.0365
 20
61.7526
 11
59.1485
 21
61.8097
  0
LINE
  8
0
 10
59.1485
 20
61.8097
 11
59.2638
 21
61.8596
  0
LINE
  8
0
 10
59.2638
 20
61.8596
 11
59.382
 21
61.9021
  0
LINE
  8
0
 10
59.382
 20
61.9021
 11
59.5026
 21
61.9372
  0
LINE
  8
0
 10
59.5026
 20
61.9372
 11
59.6252
 21
61.9646
  0
LINE
  8
0
 10
59.6252
 20
61.9646
 11
59.7493
 21
61.9842
  0
LINE
  8
0
 10
59.7493
 20
61.9842
 11
59.8744
 21
61.9961
  0
LINE
  8
0
 10
59.8744
 20
61.9961
 11
60
 21
62
  0
LINE
  8
0
 10
60
 20
62
 11
60.1256
 21
61.9961
  0
LINE
  8
0
 10
60.1256
 20
61.9961
 11
60.2507
 21
61.9842
  0
LINE
  8
0
 10
60.2507
 20
61.9842
 11
60.3748
 21
61.9646
  0
LINE
  8
0
 10
60.3748
 20
61.9646
 11
60.4974
 21
61.9372
  0
LINE
  8
0
 10
60.4974
 20
61.9372
 11
60.618
 21
61.9021
  0
LINE
  8
0
 10
60.618
 20
61.9021
 11
60.7363
 21
61.8596
  0
LINE
  8
0
 10
60.7363
 20
61.8596
 11
60.8516
 21
61.8097
  0
LINE
  8
0
 10
60.8516
 20
61.8097
 11
60.9635
 21
61.7526
  0
LINE
  8
0
 10
60.9635
 20
61.7526
 11
61.0717
 21
61.6887
  0
LINE
  8
0
 10
61.0717
 20
61.6887
 11
61.1756
 21
61.618
  0
LINE
  8
0
 10
61.1756
 20
61.618
 11
61.2749
 21
61.541
  0
LINE
  8
0
 10
61.2749
 20
61.541
 11
61.3691
 21
61.4579
  0
LINE
  8
0
 10
61.3691
 20
61.4579
 11
61.4579
 21
61.3691
  0
LINE
  8
0
 10
61.4579
 20
61.3691
 11
61.541
 21
61.2749
  0
LINE
  8
0
 10
61.541
 20
61.2749
 11
61.618
 21
61.1756
  0
LINE
  8
0
 10
61.618
 20
61.1756
 11
61.6887
 21
61.0717
  0
LINE
  8
0
 10
61.6887
 20
61.0717
 11
61.7526
 21
60.9635
  0
LINE
  8
0
 10
61.7526
 20
60.9635
 11
61.8097
 21
60.8516
  0
LINE
  8
0
 10
61.8097
 20
60.8516
 11
61.8596
 21
60.7363
  0
LINE
  8
0
 10
61.8596
 20
60.7363
 11
61.9021
 21
60.618
  0
LINE
  8
0
 10
61.9021
 20
60.618
 11
61.9372
 21
60.4974
  0
LINE
  8
0
 10
61.9372
 20
60.4974
 11
61.9646
 21
60.3748
  0
LINE
  8
0
 10
61.9646
 20
60.3748
 11
61.9842
 21
60.2507
  0
LINE
  8
0
 10
61.9842
 20
60.2507
 11
61.9961
 21
60.1256
  0
LINE
  8
0
 10
61.9961
 20
60.1256
 11
62
 21
60
  0
LINE
  8
0
 10
62
 20
60
 11
61.9961
 21
59.8744
  0
LINE
  8
0
 10
61.9961
 20
59.8744
 11
61.9842
 21
59.7493
  0
LINE
  8
0
 10
61.9842
 20
59.7493
 11
61.9646
 21
59.6252
  0
LINE
  8
0
 10
61.9646
 20
59.6252
 11
61.9372
 21
59.5026
  0
LINE
  8
0
 10
61.9372
 20
59.5026
 11
61.9021
 21
59.382
  0
LINE
  8
0
 10
61.9021
 20
59.382
 11
61.8596
 21
59.2638
  0
LINE
  8
0
 10
61.8596
 20
59.2638
 11
61.8097
 21
59.1485
  0
LINE
  8
0
 10
61.8097
 20
59.1485
 11
61.7526
 21
59.0365
  0
LINE
  8
0
 10
61.7526
 20
59.0365
 11
61.6887
 21
58.9284
  0
LINE
  8
0
 10
61.6887
 20
58.9284
 11
61.618
 21
58.8244
  0
LINE
  8
0
 10
61.618
 20
58.8244
 11
61.541
 21
58.7252
  0
LINE
  8
0
 10
61.541
 20
58.7252
 11
61.4579
 21
58.6309
  0
LINE
  8
0
 10
61.4579
 20
58.6309
 11
61.3691
 21
58.5421
  0
LINE
  8
0
 10
61.3691
 20
58.5421
 11
61.2749
 21
58.459
  0
LINE
  8
0
 10
61.2749
 20
58.459
 11
61.1756
 21
58.382
  0
LINE
  8
0
 10
61.1756
 20
58.382
 11
61.0717
 21
58.3114
  0
LINE
  8
0
 10
61.0717
 20
58.3114
 11
60.9635
 21
58.2474
  0
LINE
  8
0
 10
60.9635
 20
58.2474
 11
60.8516
 21
58.1904
  0
LINE
  8
0
 10
60.8516
 20
58.1904
 11
60.7363
 21
58.1405
  0
LINE
  8
0
 10
60.7363
 20
58.1405
 11
60.618
 21
58.0979
  0
LINE
  8
0
 10
60.618
 20
58.0979
 11
60.4974
 21
58.0628
  0
LINE
  8
0
 10
60.4974
 20
58.0628
 11
60.3748
 21
58.0354
  0
LINE
  8
0
 10
60.3748
 20
58.0354
 11
60.2507
 21
58.0158
  0
LINE
  8
0
 10
60.2507
 20
58.0158
 11
60.1256
 21
58.004
  0
LINE
  8
0
 10
60.1256
 20
58.004
 11
60
 21
58
  0
LINE
  8
0
 10
60
 20
58
 11
59.8744
 21
58.004
  0
LINE
  8
0
 10
149.874
 20
58.004
 11
149.749
 21
58.0158
  0
LINE
  8
0
 10
149.749
 20
58.0158
 11
149.625
 21
58.0354
  0
LINE
  8
0
 10
149.625
 20
58.0354
 11
149.503
 21
58.0628
  0
LINE
  8
0
 10
149.503
 20
58.0628
 11
149.382
 21
58.0979
  0
LINE
  8
0
 10
149.382
 20
58.0979
 11
149.264
 21
58.1405
  0
LINE
  8
0
 10
149.264
 20
58.1405
 11
149.148
 21
58.1904
  0
LINE
  8
0
 10
149.148
 20
58.1904
 11
149.036
 21
58.2474
  0
LINE
  8
0
 10
149.036
 20
58.2474
 11
148.928
 21
58.3114
  0
LINE
  8
0
 10
148.928
 20
58.3114
 11
148.824
 21
58.382
  0
LINE
  8
0
 10
148.824
 20
58.382
 11
148.725
 21
58.459
  0
LINE
  8
0
 10
148.725
 20
58.459
 11
148.631
 21
58.5421
  0
LINE
  8
0
 10
148.631
 20
58.5421
 11
148.542
 21
58.6309
  0
LINE
  8
0
 10
148.542
 20
58.6309
 11
148.459
 21
58.7252
  0
LINE
  8
0
 10
148.459
 20
58.7252
 11
148.382
 21
58.8244
  0
LINE
  8
0
 10
148.382
 20
58.8244
 11
148.311
 21
58.9284
  0
LINE
  8
0
 10
148.311
 20
58.9284
 11
148.247
 21
59.0365
  0
LINE
  8
0
 10
148.247
 20
59.0365
 11
148.19
 21
59.1485
  0
LINE
  8
0
 10
148.19
 20
59.1485
 11
148.14
 21
59.2638
  0
LINE
  8
0
 10
148.14
 20
59.2638
 11
148.098
 21
59.382
  0
LINE
  8
0
 10
148.098
 20
59.382
 11
148.063
 21
59.5026
  0
LINE
  8
0
 10
148.063
 20
59.5026
 11
148.035
 21
59.6252
  0
LINE
  8
0
 10
148.035
 20
59.6252
 11
148.016
 21
59.7493
  0
LINE
  8
0
 10
148.016
 20
59.7493
 11
148.004
 21
59.8744
  0
LINE
  8
0
 10
148.004
 20
59.8744
 11
148
 21
60
  0
LINE
  8
0
 10
148
 20
60
 11
148.004
 21
60.1256
  0
LINE
  8
0
 10
148.004
 20
60.1256
 11
148.016
 21
60.2507
  0
LINE
  8
0
 10
148.016
 20
60.2507
 11
148.035
 21
60.3748
  0
LINE
  8
0
 10
148.035
 20
60.3748
 11
148.063
 21
60.4974
  0
LINE
  8
0
 10
148.063
 20
60.4974
 11
148.098
 21
60.618
  0
LINE
  8
0
 10
148.098
 20
60.618
 11
148.14
 21
60.7363
  0
LINE
  8
0
 10
148.14
 20
60.7363
 11
148.19
 21
60.8516
  0
LINE
  8
0
 10
148.19
 20
60.8516
 11
148.247
 21
60.9635
  0
LINE
  8
0
 10
148.247
 20
60.9635
 11
148.311
 21
61.0717
  0
LINE
  8
0
 10
148.311
 20
61.0717
 11
148.382
 21
61.1756
  0
LINE
  8
0
 10
148.382
 20
61.1756
 11
148.459
 21
61.2749
  0
LINE
  8
0
 10
148.459
 20
61.2749
 11
148.542
 21
61.3691
  0
LINE
  8
0
 10
148.542
 20
61.3691
 11
148.631
 21
61.4579
  0
LINE
  8
0
 10
148.631
 20
61.4579
 11
148.725
 21
61.541
  0
LINE
  8
0
 10
148.725
 20
61.541
 11
148.824
 21
61.618
  0
LINE
  8
0
 10
148.824
 20
61.618
 11
148.928
 21
61.6887
  0
LINE
  8
0
 10
148.928
 20
61.6887
 11
149.036
 21
61.7526
  0
LINE
  8
0
 10
149.036
 20
61.7526
 11
149.148
 21
61.8097
  0
LINE
  8
0
 10
149.148
 20
61.8097
 11
149.264
 21
61.8596
  0
LINE
  8
0
 10
149.264
 20
61.8596
 11
149.382
 21
61.9021
  0
LINE
  8
0
 10
149.382
 20
61.9021
 11
149.503
 21
61.9372
  0
LINE
  8
0
 10
149.503
 20
61.9372
 11
149.625
 21
61.9646
  0
LINE
  8
0
 10
149.625
 20
61.9646
 11
149.749
 21
61.9842
  0
LINE
  8
0
 10
149.749
 20
61.9842
 11
149.874
 21
61.9961
  0
LINE
  8
0
 10
149.874
 20
61.9961
 11
150
 21
62
  0
LINE
  8
0
 10
150
 20
62
 11
150.126
 21
61.9961
  0
LINE
  8
0
 10
150.126
 20
61.9961
 11
150.251
 21
61.9842
  0
LINE
  8
0
 10
150.251
 20
61.9842
 11
150.375
 21
61.9646
  0
LINE
  8
0
 10
150.375
 20
61.9646
 11
150.497
 21
61.9372
  0
LINE
  8
0
 10
150.497
 20
61.9372
 11
150.618
 21
61.9021
  0
LINE
  8
0
 10
150.618
 20
61.9021
 11
150.736
 21
61.8596
  0
LINE
  8
0
 10
150.736
 20
61.8596
 11
150.852
 21
61.8097
  0
LINE
  8
0
 10
150.852
 20
61.8097
 11
150.964
 21
61.7526
  0
LINE
  8
0
 10
150.964
 20
61.7526
 11
151.072
 21
61.6887
  0
LINE
  8
0
 10
151.072
 20
61.6887
 11
151.176
 21
61.618
  0
LINE
  8
0
 10
151.176
 20
61.618
 11
151.275
 21
61.541
  0
LINE
  8
0
 10
151.275
 20
61.541
 11
151.369
 21
61.4579
  0
LINE
  8
0
 10
151.369
 20
61.4579
 11
151.458
 21
61.3691
  0
LINE
  8
0
 10
151.458
 20
61.3691
 11
151.541
 21
61.2749
  0
LINE
  8
0
 10
151.541
 20
61.2749
 11
151.618
 21
61.1756
  0
LINE
  8
0
 10
151.618
 20
61.1756
 11
151.689
 21
61.0717
  0
LINE
  8
0
 10
151.689
 20
61.0717
 11
151.753
 21
60.9635
  0
LINE
  8
0
 10
151.753
 20
60.9635
 11
151.81
 21
60.8516
  0
LINE
  8
0
 10
151.81
 20
60.8516
 11
151.86
 21
60.7363
  0
LINE
  8
0
 10
151.86
 20
60.7363
 11
151.902
 21
60.618
  0
LINE
  8
0
 10
151.902
 20
60.618
 11
151.937
 21
60.4974
  0
LINE
  8
0
 10
151.937
 20
60.4974
 11
151.965
 21
60.3748
  0
LINE
  8
0
 10
151.965
 20
60.3748
 11
151.984
 21
60.2507
  0
LINE
  8
0
 10
151.984
 20
60.2507
 11
151.996
 21
60.1256
  0
LINE
  8
0
 10
151.996
 20
60.1256
 11
152
 21
60
  0
LINE
  8
0
 10
152
 20
60
 11
151.996
 21
59.8744
  0
LINE
  8
0
 10
151.996
 20
59.8744
 11
151.984
 21
59.7493
  0
LINE
  8
0
 10
151.984
 20
59.7493
 11
151.965
 21
59.6252
  0
LINE
  8
0
 10
151.965
 20
59.6252
 11
151.937
 21
59.5026
  0
LINE
  8
0
 10
151.937
 20
59.5026
 11
151.902
 21
59.382
  0
LINE
  8
0
 10
151.902
 20
59.382
 11
151.86
 21
59.2638
  0
LINE
  8
0
 10
151.86
 20
59.2638
 11
151.81
 21
59.1485
  0
LINE
  8
0
 10
151.81
 20
59.1485
 11
151.753
 21
59.0365
  0
LINE
  8
0
 10
151.753
 20
59.0365
 11
151.689
 21
58.9284
  0
LINE
  8
0
 10
151.689
 20
58.9284
 11
151.618
 21
58.8244
  0
LINE
  8
0
 10
151.618
 20
58.8244
 11
151.541
 21
58.7252
  0
LINE
  8
0
 10
151.541
 20
58.7252
 11
151.458
 21
58.6309
  0
LINE
  8
0
 10
151.458
 20
58.6309
 11
151.369
 21
58.5421
  0
LINE
  8
0
 10
151.369
 20
58.5421
 11
151.275
 21
58.459
  0
LINE
  8
0
 10
151.275
 20
58.459
 11
151.176
 21
58.382
  0
LINE
  8
0
 10
151.176
 20
58.382
 11
151.072
 21
58.3114
  0
LINE
  8
0
 10
151.072
 20
58.3114
 11
150.964
 21
58.2474
  0
LINE
  8
0
 10
150.964
 20
58.2474
 11
150.852
 21
58.1904
  0
LINE
  8
0
 10
150.852
 20
58.1904
 11
150.736
 21
58.1405
  0
LINE
  8
0
 10
150.736
 20
58.1405
 11
150.618
 21
58.0979
  0
LINE
  8
0
 10
150.618
 20
58.0979
 11
150.497
 21
58.0628
  0
LINE
  8
0
 10
150.497
 20
58.0628
 11
150.375
 21
58.0354
  0
LINE
  8
0
 10
150.375
 20
58.0354
 11
150.251
 21
58.0158
  0
LINE
  8
0
 10
150.251
 20
58.0158
 11
150.126
 21
58.004
  0
LINE
  8
0
 10
150.126
 20
58.004
 11
150
 21
58
  0
LINE
  8
0
 10
150
 20
58
 11
149.874
 21
58.004
  0
LINE
  8
0
 10
46.2512
 20
-49.9921
 11
46.5013
 21
-49.9684
  0
LINE
  8
0
 10
46.5013
 20
-49.9684
 11
46.7495
 21
-49.9291
  0
LINE
  8
0
 10
46.7495
 20
-49.9291
 11
46.9948
 21
-49.8743
  0
LINE
  8
0
 10
46.9948
 20
-49.8743
 11
47.2361
 21
-49.8042
  0
LINE
  8
0
 10
47.2361
 20
-49.8042
 11
47.4725
 21
-49.7191
  0
LINE
  8
0
 10
47.4725
 20
-49.7191
 11
47.7031
 21
-49.6193
  0
LINE
  8
0
 10
47.7031
 20
-49.6193
 11
47.927
 21
-49.5052
  0
LINE
  8
0
 10
47.927
 20
-49.5052
 11
48.1433
 21
-49.3773
  0
LINE
  8
0
 10
48.1433
 20
-49.3773
 11
48.3511
 21
-49.2361
  0
LINE
  8
0
 10
48.3511
 20
-49.2361
 11
48.5497
 21
-49.082
  0
LINE
  8
0
 10
48.5497
 20
-49.082
 11
48.7382
 21
-48.9159
  0
LINE
  8
0
 10
48.7382
 20
-48.9159
 11
48.9159
 21
-48.7382
  0
LINE
  8
0
 10
48.9159
 20
-48.7382
 11
49.082
 21
-48.5497
  0
LINE
  8
0
 10
49.082
 20
-48.5497
 11
49.2361
 21
-48.3511
  0
LINE
  8
0
 10
49.2361
 20
-48.3511
 11
49.3773
 21
-48.1433
  0
LINE
  8
0
 10
49.3773
 20
-48.1433
 11
49.5052
 21
-47.927
  0
LINE
  8
0
 10
49.5052
 20
-47.927
 11
49.6193
 21
-47.7031
  0
LINE
  8
0
 10
49.6193
 20
-47.7031
 11
49.7191
 21
-47.4725
  0
LINE
  8
0
 10
49.7191
 20
-47.4725
 11
49.8042
 21
-47.2361
  0
LINE
  8
0
 10
49.8042
 20
-47.2361
 11
49.8743
 21
-46.9948
  0
LINE
  8
0
 10
49.8743
 20
-46.9948
 11
49.9291
 21
-46.7495
  0
LINE
  8
0
 10
49.9291
 20
-46.7495
 11
49.9684
 21
-46.5013
  0
LINE
  8
0
 10
49.9684
 20
-46.5013
 11
49.9921
 21
-46.2512
  0
LINE
  8
0
 10
49.9921
 20
-46.2512
 11
50
 21
-46
  0
LINE
  8
0
 10
50
 20
-46
 11
50
 21
46
  0
LINE
  8
0
 10
50
 20
46
 11
49.9921
 21
46.2512
  0
LINE
  8
0
 10
49.9921
 20
46.2512
 11
49.9684
 21
46.5013
  0
LINE
  8
0
 10
49.9684
 20
46.5013
 11
49.9291
 21
46.7495
  0
LINE
  8
0
 10
49.9291
 20
46.7495
 11
49.8743
 21
46.9948
  0
LINE
  8
0
 10
49.8743
 20
46.9948
 11
49.8042
 21
47.2361
  0
LINE
  8
0
 10
49.8042
 20
47.2361
 11
49.7191
 21
47.4725
  0
LINE
  8
0
 10
49.7191
 20
47.4725
 11
49.6193
 21
47.7031
  0
LINE
  8
0
 10
49.6193
 20
47.7031
 11
49.5052
 21
47.927
  0
LINE
  8
0
 10
49.5052
 20
47.927
 11
49.3773
 21
48.1433
  0
LINE
  8
0
 10
49.3773
 20
48.1433
 11
49.2361
 21
48.3511
  0
LINE
  8
0
 10
49.2361
 20
48.3511
 11
49.082
 21
48.5497
  0
LINE
  8
0
 10
49.082
 20
48.5497
 11
48.9159
 21
48.7382
  0
LINE
  8
0
 10
48.9159
 20
48.7382
 11
48.7382
 21
48.9159
  0
LINE
  8
0
 10
48.7382
 20
48.9159
 11
48.5497
 21
49.082
  0
LINE
  8
0
 10
48.5497
 20
49.082
 11
48.3511
 21
49.2361
  0
LINE
  8
0
 10
48.3511
 20
49.2361
 11
48.1433
 21
49.3773
  0
LINE
  8
0
 10
48.1433
 20
49.3773
 11
47.927
 21
49.5052
  0
LINE
  8
0
 10
47.927
 20
49.5052
 11
47.7031
 21
49.6193
  0
LINE
  8
0
 10
47.7031
 20
49.6193
 11
47.4725
 21
49.7191
  0
LINE
  8
0
 10
47.4725
 20
49.7191
 11
47.2361
 21
49.8042
  0
LINE
  8
0
 10
47.2361
 20
49.8042
 11
46.9948
 21
49.8743
  0
LINE
  8
0
 10
46.9948
 20
49.8743
 11
46.7495
 21
49.9291
  0
LINE
  8
0
 10
46.7495
 20
49.9291
 11
46.5013
 21
49.9684
  0
LINE
  8
0
 10
46.5013
 20
49.9684
 11
46.2512
 21
49.9921
  0
LINE
  8
0
 10
46.2512
 20
49.9921
 11
46
 21
50
  0
LINE
  8
0
 10
46
 20
50
 11
-46
 21
50
  0
LINE
  8
0
 10
-46
 20
50
 11
-46.2512
 21
49.9921
  0
LINE
  8
0
 10
-46.2512
 20
49.9921
 11
-46.5013
 21
49.9684
  0
LINE
  8
0
 10
-46.5013
 20
49.9684
 11
-46.7495
 21
49.9291
  0
LINE
  8
0
 10
-46.7495
 20
49.9291
 11
-46.9948
 21
49.8743
  0
LINE
  8
0
 10
-46.9948
 20
49.8743
 11
-47.2361
 21
49.8042
  0
LINE
  8
0
 10
-47.2361
 20
49.8042
 11
-47.4725
 21
49.7191
  0
LINE
  8
0
 10
-47.4725
 20
49.7191
 11
-47.7031
 21
49.6193
  0
LINE
  8
0
 10
-47.7031
 20
49.6193
 11
-47.927
 21
49.5052
  0
LINE
  8
0
 10
-47.927
 20
49.5052
 11
-48.1433
 21
49.3773
  0
LINE
  8
0
 10
-48.1433
 20
49.3773
 11
-48.3511
 21
49.2361
  0
LINE
  8
0
 10
-48.3511
 20
49.2361
 11
-48.5497
 21
49.082
  0
LINE
  8
0
 10
-48.5497
 20
49.082
 11
-48.7382
 21
48.9159
  0
LINE
  8
0
 10
-48.7382
 20
48.9159
 11
-48.9159
 21
48.7382
  0
LINE
  8
0
 10
-48.9159
 20
48.7382
 11
-49.082
 21
48.5497
  0
LINE
  8
0
 10
-49.082
 20
48.5497
 11
-49.2361
 21
48.3511
  0
LINE
  8
0
 10
-49.2361
 20
48.3511
 11
-49.3773
 21
48.1433
  0
LINE
  8
0
 10
-49.3773
 20
48.1433
 11
-49.5052
 21
47.927
  0
LINE
  8
0
 10
-49.5052
 20
47.927
 11
-49.6193
 21
47.7031
  0
LINE
  8
0
 10
-49.6193
 20
47.7031
 11
-49.7191
 21
47.4725
  0
LINE
  8
0
 10
-49.7191
 20
47.4725
 11
-49.8042
 21
47.2361
  0
LINE
  8
0
 10
-49.8042
 20
47.2361
 11
-49.8743
 21
46.9948
  0
LINE
  8
0
 10
-49.8743
 20
46.9948
 11
-49.9291
 21
46.7495
  0
LINE
  8
0
 10
-49.9291
 20
46.7495
 11
-49.9684
 21
46.5013
  0
LINE
  8
0
 10
-49.9684
 20
46.5013
 11
-49.9921
 21
46.2512
  0
LINE
  8
0
 10
-49.9921
 20
46.2512
 11
-50
 21
46
  0
LINE
  8
0
 10
-50
 20
46
 11
-50
 21
-46
  0
LINE
  8
0
 10
-50
 20
-46
 11
-49.9921
 21
-46.2512
  0
LINE
  8
0
 10
-49.9921
 20
-46.2512
 11
-49.9684
 21
-46.5013
  0
LINE
  8
0
 10
-49.9684
 20
-46.5013
 11
-49.9291
 21
-46.7495
  0
LINE
  8
0
 10
-49.9291
 20
-46.7495
 11
-49.8743
 21
-46.9948
  0
LINE
  8
0
 10
-49.8743
 20
-46.9948
 11
-49.8042
 21
-47.2361
  0
LINE
  8
0
 10
-49.8042
 20
-47.2361
 11
-49.7191
 21
-47.4725
  0
LINE
  8
0
 10
-49.7191
 20
-47.4725
 11
-49.6193
 21
-47.7031
  0
LINE
  8
0
 10
-49.6193
 20
-47.7031
 11
-49.5052
 21
-47.927
  0
LINE
  8
0
 10
-49.5052
 20
-47.927
 11
-49.3773
 21
-48.1433
  0
LINE
  8
0
 10
-49.3773
 20
-48.1433
 11
-49.2361
 21
-48.3511
  0
LINE
  8
0
 10
-49.2361
 20
-48.3511
 11
-49.082
 21
-48.5497
  0
LINE
  8
0
 10
-49.082
 20
-48.5497
 11
-48.9159
 21
-48.7382
  0
LINE
  8
0
 10
-48.9159
 20
-48.7382
 11
-48.7382
 21
-48.9159
  0
LINE
  8
0
 10
-48.7382
 20
-48.9159
 11
-48.5497
 21
-49.082
  0
LINE
  8
0
 10
-48.5497
 20
-49.082
 11
-48.3511
 21
-49.2361
  0
LINE
  8
0
 10
-48.3511
 20
-49.2361
 11
-48.1433
 21
-49.3773
  0
LINE
  8
0
 10
-48.1433
 20
-49.3773
 11
-47.927
 21
-49.5052
  0
LINE
  8
0
 10
-47.927
 20
-49.5052
 11
-47.7031
 21
-49.6193
  0
LINE
  8
0
 10
-47.7031
 20
-49.6193
 11
-47.4725
 21
-49.7191
  0
LINE
  8
0
 10
-47.4725
 20
-49.7191
 11
-47.2361
 21
-49.8042
  0
LINE
  8
0
 10
-47.2361
 20
-49.8042
 11
-46.9948
 21
-49.8743
  0
LINE
  8
0
 10
-46.9948
 20
-49.8743
 11
-46.7495
 21
-49.9291
  0
LINE
  8
0
 10
-46.7495
 20
-49.9291
 11
-46.5013
 21
-49.9684
  0
LINE
  8
0
 10
-46.5013
 20
-49.9684
 11
-46.2512
 21
-49.9921
  0
LINE
  8
0
 10
-46.2512
 20
-49.9921
 11
-46
 21
-50
  0
LINE
  8
0
 10
-46
 20
-50
 11
46
 21
-50
  0
LINE
  8
0
 10
46
 20
-50
 11
46.2512
 21
-49.9921
  0
LINE
  8
0
 10
-45.1256
 20
43.0039
 11
-45.2507
 21
43.0158
  0
LINE
  8
0
 10
-45.2507
 20
43.0158
 11
-45.3748
 21
43.0354
  0
LINE
  8
0
 10
-45.3748
 20
43.0354
 11
-45.4974
 21
43.0628
  0
LINE
  8
0
 10
-45.4974
 20
43.0628
 11
-45.618
 21
43.0979
  0
LINE
  8
0
 10
-45.618
 20
43.0979
 11
-45.7362
 21
43.1404
  0
LINE
  8
0
 10
-45.7362
 20
43.1404
 11
-45.8515
 21
43.1903
  0
LINE
  8
0
 10
-45.8515
 20
43.1903
 11
-45.9635
 21
43.2474
  0
LINE
  8
0
 10
-45.9635
 20
43.2474
 11
-46.0716
 21
43.3113
  0
LINE
  8
0
 10
-46.0716
 20
43.3113
 11
-46.1756
 21
43.382
  0
LINE
  8
0
 10
-46.1756
 20
43.382
 11
-46.2748
 21
43.459
  0
LINE
  8
0
 10
-46.2748
 20
43.459
 11
-46.3691
 21
43.5421
  0
LINE
  8
0
 10
-46.3691
 20
43.5421
 11
-46.4579
 21
43.6309
  0
LINE
  8
0
 10
-46.4579
 20
43.6309
 11
-46.541
 21
43.7251
  0
LINE
  8
0
 10
-46.541
 20
43.7251
 11
-46.618
 21
43.8244
  0
LINE
  8
0
 10
-46.618
 20
43.8244
 11
-46.6886
 21
43.9283
  0
LINE
  8
0
 10
-46.6886
 20
43.9283
 11
-46.7526
 21
44.0365
  0
LINE
  8
0
 10
-46.7526
 20
44.0365
 11
-46.8096
 21
44.1484
  0
LINE
  8
0
 10
-46.8096
 20
44.1484
 11
-46.8595
 21
44.2637
  0
LINE
  8
0
 10
-46.8595
 20
44.2637
 11
-46.9021
 21
44.382
  0
LINE
  8
0
 10
-46.9021
 20
44.382
 11
-46.9372
 21
44.5026
  0
LINE
  8
0
 10
-46.9372
 20
44.5026
 11
-46.9646
 21
44.6252
  0
LINE
  8
0
 10
-46.9646
 20
44.6252
 11
-46.9842
 21
44.7493
  0
LINE
  8
0
 10
-46.9842
 20
44.7493
 11
-46.996
 21
44.8744
  0
LINE
  8
0
 10
-46.996
 20
44.8744
 11
-47
 21
45
  0
LINE
  8
0
 10
-47
 20
45
 11
-46.996
 21
45.1256
  0
LINE
  8
0
 10
-46.996
 20
45.1256
 11
-46.9842
 21
45.2507
  0
LINE
  8
0
 10
-46.9842
 20
45.2507
 11
-46.9646
 21
45.3748
  0
LINE
  8
0
 10
-46.9646
 20
45.3748
 11
-46.9372
 21
45.4974
  0
LINE
  8
0
 10
-46.9372
 20
45.4974
 11
-46.9021
 21
45.618
  0
LINE
  8
0
 10
-46.9021
 20
45.618
 11
-46.8595
 21
45.7362
  0
LINE
  8
0
 10
-46.8595
 20
45.7362
 11
-46.8096
 21
45.8515
  0
LINE
  8
0
 10
-46.8096
 20
45.8515
 11
-46.7526
 21
45.9635
  0
LINE
  8
0
 10
-46.7526
 20
45.9635
 11
-46.6886
 21
46.0716
  0
LINE
  8
0
 10
-46.6886
 20
46.0716
 11
-46.618
 21
46.1756
  0
LINE
  8
0
 10
-46.618
 20
46.1756
 11
-46.541
 21
46.2748
  0
LINE
  8
0
 10
-46.541
 20
46.2748
 11
-46.4579
 21
46.3691
  0
LINE
  8
0
 10
-46.4579
 20
46.3691
 11
-46.3691
 21
46.4579
  0
LINE
  8
0
 10
-46.3691
 20
46.4579
 11
-46.2748
 21
46.541
  0
LINE
  8
0
 10
-46.2748
 20
46.541
 11
-46.1756
 21
46.618
  0
LINE
  8
0
 10
-46.1756
 20
46.618
 11
-46.0716
 21
46.6886
  0
LINE
  8
0
 10
-46.0716
 20
46.6886
 11
-45.9635
 21
46.7526
  0
LINE
  8
0
 10
-45.9635
 20
46.7526
 11
-45.8515
 21
46.8096
  0
LINE
  8
0
 10
-45.8515
 20
46.8096
 11
-45.7362
 21
46.8595
  0
LINE
  8
0
 10
-45.7362
 20
46.8595
 11
-45.618
 21
46.9021
  0
LINE
  8
0
 10
-45.618
 20
46.9021
 11
-45.4974
 21
46.9372
  0
LINE
  8
0
 10
-45.4974
 20
46.9372
 11
-45.3748
 21
46.9646
  0
LINE
  8
0
 10
-45.3748
 20
46.9646
 11
-45.2507
 21
46.9842
  0
LINE
  8
0
 10
-45.2507
 20
46.9842
 11
-45.1256
 21
46.996
  0
LINE
  8
0
 10
-45.1256
 20
46.996
 11
-45
 21
47
  0
LINE
  8
0
 10
-45
 20
47
 11
-44.8744
 21
46.996
  0
LINE
  8
0
 10
-44.8744
 20
46.996
 11
-44.7493
 21
46.9842
  0
LINE
  8
0
 10
-44.7493
 20
46.9842
 11
-44.6252
 21
46.9646
  0
LINE
  8
0
 10
-44.6252
 20
46.9646
 11
-44.5026
 21
46.9372
  0
LINE
  8
0
 10
-44.5026
 20
46.9372
 11
-44.382
 21
46.9021
  0
LINE
  8
0
 10
-44.382
 20
46.9021
 11
-44.2637
 21
46.8595
  0
LINE
  8
0
 10
-44.2637
 20
46.8595
 11
-44.1484
 21
46.8096
  0
LINE
  8
0
 10
-44.1484
 20
46.8096
 11
-44.0365
 21
46.7526
  0
LINE
  8
0
 10
-44.0365
 20
46.7526
 11
-43.9283
 21
46.6886
  0
LINE
  8
0
 10
-43.9283
 20
46.6886
 11
-43.8244
 21
46.618
  0
LINE
  8
0
 10
-43.8244
 20
46.618
 11
-43.7251
 21
46.541
  0
LINE
  8
0
 10
-43.7251
 20
46.541
 11
-43.6309
 21
46.4579
  0
LINE
  8
0
 10
-43.6309
 20
46.4579
 11
-43.5421
 21
46.3691
  0
LINE
  8
0
 10
-43.5421
 20
46.3691
 11
-43.459
 21
46.2748
  0
LINE
  8
0
 10
-43.459
 20
46.2748
 11
-43.382
 21
46.1756
  0
LINE
  8
0
 10
-43.382
 20
46.1756
 11
-43.3113
 21
46.0716
  0
LINE
  8
0
 10
-43.3113
 20
46.0716
 11
-43.2474
 21
45.9635
  0
LINE
  8
0
 10
-43.2474
 20
45.9635
 11
-43.1903
 21
45.8515
  0
LINE
  8
0
 10
-43.1903
 20
45.8515
 11
-43.1404
 21
45.7362
  0
LINE
  8
0
 10
-43.1404
 20
45.7362
 11
-43.0979
 21
45.618
  0
LINE
  8
0
 10
-43.0979
 20
45.618
 11
-43.0628
 21
45.4974
  0
LINE
  8
0
 10
-43.0628
 20
45.4974
 11
-43.0354
 21
45.3748
  0
LINE
  8
0
 10
-43.0354
 20
45.3748
 11
-43.0158
 21
45.2507
  0
LINE
  8
0
 10
-43.0158
 20
45.2507
 11
-43.0039
 21
45.1256
  0
LINE
  8
0
 10
-43.0039
 20
45.1256
 11
-43
 21
45
  0
LINE
  8
0
 10
-43
 20
45
 11
-43.0039
 21
44.8744
  0
LINE
  8
0
 10
-43.0039
 20
44.8744
 11
-43.0158
 21
44.7493
  0
LINE
  8
0
 10
-43.0158
 20
44.7493
 11
-43.0354
 21
44.6252
  0
LINE
  8
0
 10
-43.0354
 20
44.6252
 11
-43.0628
 21
44.5026
  0
LINE
  8
0
 10
-43.0628
 20
44.5026
 11
-43.0979
 21
44.382
  0
LINE
  8
0
 10
-43.0979
 20
44.382
 11
-43.1404
 21
44.2637
  0
LINE
  8
0
 10
-43.1404
 20
44.2637
 11
-43.1903
 21
44.1484
  0
LINE
  8
0
 10
-43.1903
 20
44.1484
 11
-43.2474
 21
44.0365
  0
LINE
  8
0
 10
-43.2474
 20
44.0365
 11
-43.3113
 21
43.9283
  0
LINE
  8
0
 10
-43.3113
 20
43.9283
 11
-43.382
 21
43.8244
  0
LINE
  8
0
 10
-43.382
 20
43.8244
 11
-43.459
 21
43.7251
  0
LINE
  8
0
 10
-43.459
 20
43.7251
 11
-43.5421
 21
43.6309
  0
LINE
  8
0
 10
-43.5421
 20
43.6309
 11
-43.6309
 21
43.5421
  0
LINE
  8
0
 10
-43.6309
 20
43.5421
 11
-43.7251
 21
43.459
  0
LINE
  8
0
 10
-43.7251
 20
43.459
 11
-43.8244
 21
43.382
  0
LINE
  8
0
 10
-43.8244
 20
43.382
 11
-43.9283
 21
43.3113
  0
LINE
  8
0
 10
-43.9283
 20
43.3113
 11
-44.0365
 21
43.2474
  0
LINE
  8
0
 10
-44.0365
 20
43.2474
 11
-44.1484
 21
43.1903
  0
LINE
  8
0
 10
-44.1484
 20
43.1903
 11
-44.2637
 21
43.1404
  0
LINE
  8
0
 10
-44.2637
 20
43.1404
 11
-44.382
 21
43.0979
  0
LINE
  8
0
 10
-44.382
 20
43.0979
 11
-44.5026
 21
43.0628
  0
LINE
  8
0
 10
-44.5026
 20
43.0628
 11
-44.6252
 21
43.0354
  0
LINE
  8
0
 10
-44.6252
 20
43.0354
 11
-44.7493
 21
43.0158
  0
LINE
  8
0
 10
-44.7493
 20
43.0158
 11
-44.8744
 21
43.0039
  0
LINE
  8
0
 10
-44.8744
 20
43.0039
 11
-45
 21
43
  0
LINE
  8
0
 10
-45
 20
43
 11
-45.1256
 21
43.0039
  0
LINE
  8
0
 10
44.8744
 20
43.0039
 11
44.7493
 21
43.0158
  0
LINE
  8
0
 10
44.7493
 20
43.0158
 11
44.6252
 21
43.0354
  0
LINE
  8
0
 10
44.6252
 20
43.0354
 11
44.5026
 21
43.0628
  0
LINE
  8
0
 10
44.5026
 20
43.0628
 11
44.382
 21
43.0979
  0
LINE
  8
0
 10
44.382
 20
43.0979
 11
44.2637
 21
43.1404
  0
LINE
  8
0
 10
44.2637
 20
43.1404
 11
44.1484
 21
43.1903
  0
LINE
  8
0
 10
44.1484
 20
43.1903
 11
44.0365
 21
43.2474
  0
LINE
  8
0
 10
44.0365
 20
43.2474
 11
43.9283
 21
43.3113
  0
LINE
  8
0
 10
43.9283
 20
43.3113
 11
43.8244
 21
43.382
  0
LINE
  8
0
 10
43.8244
 20
43.382
 11
43.7251
 21
43.459
  0
LINE
  8
0
 10
43.7251
 20
43.459
 11
43.6309
 21
43.5421
  0
LINE
  8
0
 10
43.6309
 20
43.5421
 11
43.5421
 21
43.6309
  0
LINE
  8
0
 10
43.5421
 20
43.6309
 11
43.459
 21
43.7251
  0
LINE
  8
0
 10
43.459
 20
43.7251
 11
43.382
 21
43.8244
  0
LINE
  8
0
 10
43.382
 20
43.8244
 11
43.3113
 21
43.9283
  0
LINE
  8
0
 10
43.3113
 20
43.9283
 11
43.2474
 21
44.0365
  0
LINE
  8
0
 10
43.2474
 20
44.0365
 11
43.1903
 21
44.1484
  0
LINE
  8
0
 10
43.1903
 20
44.1484
 11
43.1404
 21
44.2637
  0
LINE
  8
0
 10
43.1404
 20
44.2637
 11
43.0979
 21
44.382
  0
LINE
  8
0
 10
43.0979
 20
44.382
 11
43.0628
 21
44.5026
  0
LINE
  8
0
 10
43.0628
 20
44.5026
 11
43.0354
 21
44.6252
  0
LINE
  8
0
 10
43.0354
 20
44.6252
 11
43.0158
 21
44.7493
  0
LINE
  8
0
 10
43.0158
 20
44.7493
 11
43.0039
 21
44.8744
  0
LINE
  8
0
 10
43.0039
 20
44.8744
 11
43
 21
45
  0
LINE
  8
0
 10
43
 20
45
 11
43.0039
 21
45.1256
  0
LINE
  8
0
 10
43.0039
 20
45.1256
 11
43.0158
 21
45.2507
  0
LINE
  8
0
 10
43.0158
 20
45.2507
 11
43.0354
 21
45.3748
  0
LINE
  8
0
 10
43.0354
 20
45.3748
 11
43.0628
 21
45.4974
  0
LINE
  8
0
 10
43.0628
 20
45.4974
 11
43.0979
 21
45.618
  0
LINE
  8
0
 10
43.0979
 20
45.618
 11
43.1404
 21
45.7362
  0
LINE
  8
0
 10
43.1404
 20
45.7362
 11
43.1903
 21
45.8515
  0
LINE
  8
0
 10
43.1903
 20
45.8515
 11
43.2474
 21
45.9635
  0
LINE
  8
0
 10
43.2474
 20
45.9635
 11
43.3113
 21
46.0716
  0
LINE
  8
0
 10
43.3113
 20
46.0716
 11
43.382
 21
46.1756
  0
LINE
  8
0
 10
43.382
 20
46.1756
 11
43.459
 21
46.2748
  0
LINE
  8
0
 10
43.459
 20
46.2748
 11
43.5421
 21
46.3691
  0
LINE
  8
0
 10
43.5421
 20
46.3691
 11
43.6309
 21
46.4579
  0
LINE
  8
0
 10
43.6309
 20
46.4579
 11
43.7251
 21
46.541
  0
LINE
  8
0
 10
43.7251
 20
46.541
 11
43.8244
 21
46.618
  0
LINE
  8
0
 10
43.8244
 20
46.618
 11
43.9283
 21
46.6886
  0
LINE
  8
0
 10
43.9283
 20
46.6886
 11
44.0365
 21
46.7526
  0
LINE
  8
0
 10
44.0365
 20
46.7526
 11
44.1484
 21
46.8096
  0
LINE
  8
0
 10
44.1484
 20
46.8096
 11
44.2637
 21
46.8595
  0
LINE
  8
0
 10
44.2637
 20
46.8595
 11
44.382
 21
46.9021
  0
LINE
  8
0
 10
44.382
 20
46.9021
 11
44.5026
 21
46.9372
  0
LINE
  8
0
 10
44.5026
 20
46.9372
 11
44.6252
 21
46.9646
  0
LINE
  8
0
 10
44.6252
 20
46.9646
 11
44.7493
 21
46.9842
  0
LINE
  8
0
 10
44.7493
 20
46.9842
 11
44.8744
 21
46.996
  0
LINE
  8
0
 10
44.8744
 20
46.996
 11
45
 21
47
  0
LINE
  8
0
 10
45
 20
47
 11
45.1256
 21
46.996
  0
LINE
  8
0
 10
45.1256
 20
46.996
 11
45.2507
 21
46.9842
  0
LINE
  8
0
 10
45.2507
 20
46.9842
 11
45.3748
 21
46.9646
  0
LINE
  8
0
 10
45.3748
 20
46.9646
 11
45.4974
 21
46.9372
  0
LINE
  8
0
 10
45.4974
 20
46.9372
 11
45.618
 21
46.9021
  0
LINE
  8
0
 10
45.618
 20
46.9021
 11
45.7362
 21
46.8595
  0
LINE
  8
0
 10
45.7362
 20
46.8595
 11
45.8515
 21
46.8096
  0
LINE
  8
0
 10
45.8515
 20
46.8096
 11
45.9635
 21
46.7526
  0
LINE
  8
0
 10
45.9635
 20
46.7526
 11
46.0716
 21
46.6886
  0
LINE
  8
0
 10
46.0716
 20
46.6886
 11
46.1756
 21
46.618
  0
LINE
  8
0
 10
46.1756
 20
46.618
 11
46.2748
 21
46.541
  0
LINE
  8
0
 10
46.2748
 20
46.541
 11
46.3691
 21
46.4579
  0
LINE
  8
0
 10
46.3691
 20
46.4579
 11
46.4579
 21
46.3691
  0
LINE
  8
0
 10
46.4579
 20
46.3691
 11
46.541
 21
46.2748
  0
LINE
  8
0
 10
46.541
 20
46.2748
 11
46.618
 21
46.1756
  0
LINE
  8
0
 10
46.618
 20
46.1756
 11
46.6886
 21
46.0716
  0
LINE
  8
0
 10
46.6886
 20
46.0716
 11
46.7526
 21
45.9635
  0
LINE
  8
0
 10
46.7526
 20
45.9635
 11
46.8096
 21
45.8515
  0
LINE
  8
0
 10
46.8096
 20
45.8515
 11
46.8595
 21
45.7362
  0
LINE
  8
0
 10
46.8595
 20
45.7362
 11
46.9021
 21
45.618
  0
LINE
  8
0
 10
46.9021
 20
45.618
 11
46.9372
 21
45.4974
  0
LINE
  8
0
 10
46.9372
 20
45.4974
 11
46.9646
 21
45.3748
  0
LINE
  8
0
 10
46.9646
 20
45.3748
 11
46.9842
 21
45.2507
  0
LINE
  8
0
 10
46.9842
 20
45.2507
 11
46.996
 21
45.1256
  0
LINE
  8
0
 10
46.996
 20
45.1256
 11
47
 21
45
  0
LINE
  8
0
 10
47
 20
45
 11
46.996
 21
44.8744
  0
LINE
  8
0
 10
46.996
 20
44.8744
 11
46.9842
 21
44.7493
  0
LINE
  8
0
 10
46.9842
 20
44.7493
 11
46.9646
 21
44.6252
  0
LINE
  8
0
 10
46.9646
 20
44.6252
 11
46.9372
 21
44.5026
  0
LINE
  8
0
 10
46.9372
 20
44.5026
 11
46.9021
 21
44.382
  0
LINE
  8
0
 10
46.9021
 20
44.382
 11
46.8595
 21
44.2637
  0
LINE
  8
0
 10
46.8595
 20
44.2637
 11
46.8096
 21
44.1484
  0
LINE
  8
0
 10
46.8096
 20
44.1484
 11
46.7526
 21
44.0365
  0
LINE
  8
0
 10
46.7526
 20
44.0365
 11
46.6886
 21
43.9283
  0
LINE
  8
0
 10
46.6886
 20
43.9283
 11
46.618
 21
43.8244
  0
LINE
  8
0
 10
46.618
 20
43.8244
 11
46.541
 21
43.7251
  0
LINE
  8
0
 10
46.541
 20
43.7251
 11
46.4579
 21
43.6309
  0
LINE
  8
0
 10
46.4579
 20
43.6309
 11
46.3691
 21
43.5421
  0
LINE
  8
0
 10
46.3691
 20
43.5421
 11
46.2748
 21
43.459
  0
LINE
  8
0
 10
46.2748
 20
43.459
 11
46.1756
 21
43.382
  0
LINE
  8
0
 10
46.1756
 20
43.382
 11
46.0716
 21
43.3113
  0
LINE
  8
0
 10
46.0716
 20
43.3113
 11
45.9635
 21
43.2474
  0
LINE
  8
0
 10
45.9635
 20
43.2474
 11
45.8515
 21
43.1903
  0
LINE
  8
0
 10
45.8515
 20
43.1903
 11
45.7362
 21
43.1404
  0
LINE
  8
0
 10
45.7362
 20
43.1404
 11
45.618
 21
43.0979
  0
LINE
  8
0
 10
45.618
 20
43.0979
 11
45.4974
 21
43.0628
  0
LINE
  8
0
 10
45.4974
 20
43.0628
 11
45.3748
 21
43.0354
  0
LINE
  8
0
 10
45.3748
 20
43.0354
 11
45.2507
 21
43.0158
  0
LINE
  8
0
 10
45.2507
 20
43.0158
 11
45.1256
 21
43.0039
  0
LINE
  8
0
 10
45.1256
 20
43.0039
 11
45
 21
43
  0
LINE
  8
0
 10
45
 20
43
 11
44.8744
 21
43.0039
  0
LINE
  8
0
 10
-40
 20
-45
 11
-40.0099
 21
-44.686
  0
LINE
  8
0
 10
-40.0099
 20
-44.686
 11
-40.0394
 21
-44.3733
  0
LINE
  8
0
 10
-40.0394
 20
-44.3733
 11
-40.0886
 21
-44.0631
  0
LINE
  8
0
 10
-40.0886
 20
-44.0631
 11
-40.1571
 21
-43.7565
  0
LINE
  8
0
 10
-40.1571
 20
-43.7565
 11
-40.2447
 21
-43.4549
  0
LINE
  8
0
 10
-40.2447
 20
-43.4549
 11
-40.3511
 21
-43.1594
  0
LINE
  8
0
 10
-40.3511
 20
-43.1594
 11
-40.4759
 21
-42.8711
  0
LINE
  8
0
 10
-40.4759
 20
-42.8711
 11
-40.6185
 21
-42.5912
  0
LINE
  8
0
 10
-40.6185
 20
-42.5912
 11
-40.7784
 21
-42.3209
  0
LINE
  8
0
 10
-40.7784
 20
-42.3209
 11
-40.9549
 21
-42.0611
  0
LINE
  8
0
 10
-40.9549
 20
-42.0611
 11
-41.1474
 21
-41.8129
  0
LINE
  8
0
 10
-41.1474
 20
-41.8129
 11
-41.3551
 21
-41.5773
  0
LINE
  8
0
 10
-41.3551
 20
-41.5773
 11
-41.5773
 21
-41.3551
  0
LINE
  8
0
 10
-41.5773
 20
-41.3551
 11
-41.8129
 21
-41.1474
  0
LINE
  8
0
 10
-41.8129
 20
-41.1474
 11
-42.0611
 21
-40.9549
  0
LINE
  8
0
 10
-42.0611
 20
-40.9549
 11
-42.3209
 21
-40.7784
  0
LINE
  8
0
 10
-42.3209
 20
-40.7784
 11
-42.5912
 21
-40.6185
  0
LINE
  8
0
 10
-42.5912
 20
-40.6185
 11
-42.8711
 21
-40.4759
  0
LINE
  8
0
 10
-42.8711
 20
-40.4759
 11
-43.1594
 21
-40.3511
  0
LINE
  8
0
 10
-43.1594
 20
-40.3511
 11
-43.4549
 21
-40.2447
  0
LINE
  8
0
 10
-43.4549
 20
-40.2447
 11
-43.7565
 21
-40.1571
  0
LINE
  8
0
 10
-43.7565
 20
-40.1571
 11
-44.0631
 21
-40.0886
  0
LINE
  8
0
 10
-44.0631
 20
-40.0886
 11
-44.3733
 21
-40.0394
  0
LINE
  8
0
 10
-44.3733
 20
-40.0394
 11
-44.686
 21
-40.0099
  0
LINE
  8
0
 10
-44.686
 20
-40.0099
 11
-45
 21
-40
  0
LINE
  8
0
 10
-45
 20
-40
 11
-45
 21
40
  0
LINE
  8
0
 10
-45
 20
40
 11
-44.686
 21
40.0099
  0
LINE
  8
0
 10
-44.686
 20
40.0099
 11
-44.3733
 21
40.0394
  0
LINE
  8
0
 10
-44.3733
 20
40.0394
 11
-44.0631
 21
40.0886
  0
LINE
  8
0
 10
-44.0631
 20
40.0886
 11
-43.7565
 21
40.1571
  0
LINE
  8
0
 10
-43.7565
 20
40.1571
 11
-43.4549
 21
40.2447
  0
LINE
  8
0
 10
-43.4549
 20
40.2447
 11
-43.1594
 21
40.3511
  0
LINE
  8
0
 10
-43.1594
 20
40.3511
 11
-42.8711
 21
40.4759
  0
LINE
  8
0
 10
-42.8711
 20
40.4759
 11
-42.5912
 21
40.6185
  0
LINE
  8
0
 10
-42.5912
 20
40.6185
 11
-42.3209
 21
40.7784
  0
LINE
  8
0
 10
-42.3209
 20
40.7784
 11
-42.0611
 21
40.9549
  0
LINE
  8
0
 10
-42.0611
 20
40.9549
 11
-41.8129
 21
41.1474
  0
LINE
  8
0
 10
-41.8129
 20
41.1474
 11
-41.5773
 21
41.3551
  0
LINE
  8
0
 10
-41.5773
 20
41.3551
 11
-41.3551
 21
41.5773
  0
LINE
  8
0
 10
-41.3551
 20
41.5773
 11
-41.1474
 21
41.8129
  0
LINE
  8
0
 10
-41.1474
 20
41.8129
 11
-40.9549
 21
42.0611
  0
LINE
  8
0
 10
-40.9549
 20
42.0611
 11
-40.7784
 21
42.3209
  0
LINE
  8
0
 10
-40.7784
 20
42.3209
 11
-40.6185
 21
42.5912
  0
LINE
  8
0
 10
-40.6185
 20
42.5912
 11
-40.4759
 21
42.8711
  0
LINE
  8
0
 10
-40.4759
 20
42.8711
 11
-40.3511
 21
43.1594
  0
LINE
  8
0
 10
-40.3511
 20
43.1594
 11
-40.2447
 21
43.4549
  0
LINE
  8
0
 10
-40.2447
 20
43.4549
 11
-40.1571
 21
43.7565
  0
LINE
  8
0
 10
-40.1571
 20
43.7565
 11
-40.0886
 21
44.0631
  0
LINE
  8
0
 10
-40.0886
 20
44.0631
 11
-40.0394
 21
44.3733
  0
LINE
  8
0
 10
-40.0394
 20
44.3733
 11
-40.0099
 21
44.686
  0
LINE
  8
0
 10
-40.0099
 20
44.686
 11
-40
 21
45
  0
LINE
  8
0
 10
-40
 20
45
 11
40
 21
45
  0
LINE
  8
0
 10
40
 20
45
 11
40.0099
 21
44.686
  0
LINE
  8
0
 10
40.0099
 20
44.686
 11
40.0394
 21
44.3733
  0
LINE
  8
0
 10
40.0394
 20
44.3733
 11
40.0886
 21
44.0631
  0
LINE
  8
0
 10
40.0886
 20
44.0631
 11
40.1571
 21
43.7565
  0
LINE
  8
0
 10
40.1571
 20
43.7565
 11
40.2447
 21
43.4549
  0
LINE
  8
0
 10
40.2447
 20
43.4549
 11
40.3511
 21
43.1594
  0
LINE
  8
0
 10
40.3511
 20
43.1594
 11
40.4759
 21
42.8711
  0
LINE
  8
0
 10
40.4759
 20
42.8711
 11
40.6185
 21
42.5912
  0
LINE
  8
0
 10
40.6185
 20
42.5912
 11
40.7784
 21
42.3209
  0
LINE
  8
0
 10
40.7784
 20
42.3209
 11
40.9549
 21
42.0611
  0
LINE
  8
0
 10
40.9549
 20
42.0611
 11
41.1474
 21
41.8129
  0
LINE
  8
0
 10
41.1474
 20
41.8129
 11
41.3551
 21
41.5773
  0
LINE
  8
0
 10
41.3551
 20
41.5773
 11
41.5773
 21
41.3551
  0
LINE
  8
0
 10
41.5773
 20
41.3551
 11
41.8129
 21
41.1474
  0
LINE
  8
0
 10
41.8129
 20
41.1474
 11
42.0611
 21
40.9549
  0
LINE
  8
0
 10
42.0611
 20
40.9549
 11
42.3209
 21
40.7784
  0
LINE
  8
0
 10
42.3209
 20
40.7784
 11
42.5912
 21
40.6185
  0
LINE
  8
0
 10
42.5912
 20
40.6185
 11
42.8711
 21
40.4759
  0
LINE
  8
0
 10
42.8711
 20
40.4759
 11
43.1594
 21
40.3511
  0
LINE
  8
0
 10
43.1594
 20
40.3511
 11
43.4549
 21
40.2447
  0
LINE
  8
0
 10
43.4549
 20
40.2447
 11
43.7565
 21
40.1571
  0
LINE
  8
0
 10
43.7565
 20
40.1571
 11
44.0631
 21
40.0886
  0
LINE
  8
0
 10
44.0631
 20
40.0886
 11
44.3733
 21
40.0394
  0
LINE
  8
0
 10
44.3733
 20
40.0394
 11
44.686
 21
40.0099
  0
LINE
  8
0
 10
44.686
 20
40.0099
 11
45
 21
40
  0
LINE
  8
0
 10
45
 20
40
 11
45
 21
-40
  0
LINE
  8
0
 10
45
 20
-40
 11
44.686
 21
-40.0099
  0
LINE
  8
0
 10
44.686
 20
-40.0099
 11
44.3733
 21
-40.0394
  0
LINE
  8
0
 10
44.3733
 20
-40.0394
 11
44.0631
 21
-40.0886
  0
LINE
  8
0
 10
44.0631
 20
-40.0886
 11
43.7565
 21
-40.1571
  0
LINE
  8
0
 10
43.7565
 20
-40.1571
 11
43.4549
 21
-40.2447
  0
LINE
  8
0
 10
43.4549
 20
-40.2447
 11
43.1594
 21
-40.3511
  0
LINE
  8
0
 10
43.1594
 20
-40.3511
 11
42.8711
 21
-40.4759
  0
LINE
  8
0
 10
42.8711
 20
-40.4759
 11
42.5912
 21
-40.6185
  0
LINE
  8
0
 10
42.5912
 20
-40.6185
 11
42.3209
 21
-40.7784
  0
LINE
  8
0
 10
42.3209
 20
-40.7784
 11
42.0611
 21
-40.9549
  0
LINE
  8
0
 10
42.0611
 20
-40.9549
 11
41.8129
 21
-41.1474
  0
LINE
  8
0
 10
41.8129
 20
-41.1474
 11
41.5773
 21
-41.3551
  0
LINE
  8
0
 10
41.5773
 20
-41.3551
 11
41.3551
 21
-41.5773
  0
LINE
  8
0
 10
41.3551
 20
-41.5773
 11
41.1474
 21
-41.8129
  0
LINE
  8
0
 10
41.1474
 20
-41.8129
 11
40.9549
 21
-42.0611
  0
LINE
  8
0
 10
40.9549
 20
-42.0611
 11
40.7784
 21
-42.3209
  0
LINE
  8
0
 10
40.7784
 20
-42.3209
 11
40.6185
 21
-42.5912
  0
LINE
  8
0
 10
40.6185
 20
-42.5912
 11
40.4759
 21
-42.8711
  0
LINE
  8
0
 10
40.4759
 20
-42.8711
 11
40.3511
 21
-43.1594
  0
LINE
  8
0
 10
40.3511
 20
-43.1594
 11
40.2447
 21
-43.4549
  0
LINE
  8
0
 10
40.2447
 20
-43.4549
 11
40.1571
 21
-43.7565
  0
LINE
  8
0
 10
40.1571
 20
-43.7565
 11
40.0886
 21
-44.0631
  0
LINE
  8
0
 10
40.0886
 20
-44.0631
 11
40.0394
 21
-44.3733
  0
LINE
  8
0
 10
40.0394
 20
-44.3733
 11
40.0099
 21
-44.686
  0
LINE
  8
0
 10
40.0099
 20
-44.686
 11
40
 21
-45
  0
LINE
  8
0
 10
40
 20
-45
 11
-40
 21
-45
  0
LINE
  8
0
 10
-45.1256
 20
-46.996
 11
-45.2507
 21
-46.9842
  0
LINE
  8
0
 10
-45.2507
 20
-46.9842
 11
-45.3748
 21
-46.9646
  0
LINE
  8
0
 10
-45.3748
 20
-46.9646
 11
-45.4974
 21
-46.9372
  0
LINE
  8
0
 10
-45.4974
 20
-46.9372
 11
-45.618
 21
-46.9021
  0
LINE
  8
0
 10
-45.618
 20
-46.9021
 11
-45.7362
 21
-46.8595
  0
LINE
  8
0
 10
-45.7362
 20
-46.8595
 11
-45.8515
 21
-46.8096
  0
LINE
  8
0
 10
-45.8515
 20
-46.8096
 11
-45.9635
 21
-46.7526
  0
LINE
  8
0
 10
-45.9635
 20
-46.7526
 11
-46.0716
 21
-46.6886
  0
LINE
  8
0
 10
-46.0716
 20
-46.6886
 11
-46.1756
 21
-46.618
  0
LINE
  8
0
 10
-46.1756
 20
-46.618
 11
-46.2748
 21
-46.541
  0
LINE
  8
0
 10
-46.2748
 20
-46.541
 11
-46.3691
 21
-46.4579
  0
LINE
  8
0
 10
-46.3691
 20
-46.4579
 11
-46.4579
 21
-46.3691
  0
LINE
  8
0
 10
-46.4579
 20
-46.3691
 11
-46.541
 21
-46.2748
  0
LINE
  8
0
 10
-46.541
 20
-46.2748
 11
-46.618
 21
-46.1756
  0
LINE
  8
0
 10
-46.618
 20
-46.1756
 11
-46.6886
 21
-46.0716
  0
LINE
  8
0
 10
-46.6886
 20
-46.0716
 11
-46.7526
 21
-45.9635
  0
LINE
  8
0
 10
-46.7526
 20
-45.9635
 11
-46.8096
 21
-45.8515
  0
LINE
  8
0
 10
-46.8096
 20
-45.8515
 11
-46.8595
 21
-45.7362
  0
LINE
  8
0
 10
-46.8595
 20
-45.7362
 11
-46.9021
 21
-45.618
  0
LINE
  8
0
 10
-46.9021
 20
-45.618
 11
-46.9372
 21
-45.4974
  0
LINE
  8
0
 10
-46.9372
 20
-45.4974
 11
-46.9646
 21
-45.3748
  0
LINE
  8
0
 10
-46.9646
 20
-45.3748
 11
-46.9842
 21
-45.2507
  0
LINE
  8
0
 10
-46.9842
 20
-45.2507
 11
-46.996
 21
-45.1256
  0
LINE
  8
0
 10
-46.996
 20
-45.1256
 11
-47
 21
-45
  0
LINE
  8
0
 10
-47
 20
-45
 11
-46.996
 21
-44.8744
  0
LINE
  8
0
 10
-46.996
 20
-44.8744
 11
-46.9842
 21
-44.7493
  0
LINE
  8
0
 10
-46.9842
 20
-44.7493
 11
-46.9646
 21
-44.6252
  0
LINE
  8
0
 10
-46.9646
 20
-44.6252
 11
-46.9372
 21
-44.5026
  0
LINE
  8
0
 10
-46.9372
 20
-44.5026
 11
-46.9021
 21
-44.382
  0
LINE
  8
0
 10
-46.9021
 20
-44.382
 11
-46.8595
 21
-44.2637
  0
LINE
  8
0
 10
-46.8595
 20
-44.2637
 11
-46.8096
 21
-44.1484
  0
LINE
  8
0
 10
-46.8096
 20
-44.1484
 11
-46.7526
 21
-44.0365
  0
LINE
  8
0
 10
-46.7526
 20
-44.0365
 11
-46.6886
 21
-43.9283
  0
LINE
  8
0
 10
-46.6886
 20
-43.9283
 11
-46.618
 21
-43.8244
  0
LINE
  8
0
 10
-46.618
 20
-43.8244
 11
-46.541
 21
-43.7251
  0
LINE
  8
0
 10
-46.541
 20
-43.7251
 11
-46.4579
 21
-43.6309
  0
LINE
  8
0
 10
-46.4579
 20
-43.6309
 11
-46.3691
 21
-43.5421
  0
LINE
  8
0
 10
-46.3691
 20
-43.5421
 11
-46.2748
 21
-43.459
  0
LINE
  8
0
 10
-46.2748
 20
-43.459
 11
-46.1756
 21
-43.382
  0
LINE
  8
0
 10
-46.1756
 20
-43.382
 11
-46.0716
 21
-43.3113
  0
LINE
  8
0
 10
-46.0716
 20
-43.3113
 11
-45.9635
 21
-43.2474
  0
LINE
  8
0
 10
-45.9635
 20
-43.2474
 11
-45.8515
 21
-43.1903
  0
LINE
  8
0
 10
-45.8515
 20
-43.1903
 11
-45.7362
 21
-43.1404
  0
LINE
  8
0
 10
-45.7362
 20
-43.1404
 11
-45.618
 21
-43.0979
  0
LINE
  8
0
 10
-45.618
 20
-43.0979
 11
-45.4974
 21
-43.0628
  0
LINE
  8
0
 10
-45.4974
 20
-43.0628
 11
-45.3748
 21
-43.0354
  0
LINE
  8
0
 10
-45.3748
 20
-43.0354
 11
-45.2507
 21
-43.0158
  0
LINE
  8
0
 10
-45.2507
 20
-43.0158
 11
-45.1256
 21
-43.0039
  0
LINE
  8
0
 10
-45.1256
 20
-43.0039
 11
-45
 21
-43
  0
LINE
  8
0
 10
-45
 20
-43
 11
-44.8744
 21
-43.0039
  0
LINE
  8
0
 10
-44.8744
 20
-43.0039
 11
-44.7493
 21
-43.0158
  0
LINE
  8
0
 10
-44.7493
 20
-43.0158
 11
-44.6252
 21
-43.0354
  0
LINE
  8
0
 10
-44.6252
 20
-43.0354
 11
-44.5026
 21
-43.0628
  0
LINE
  8
0
 10
-44.5026
 20
-43.0628
 11
-44.382
 21
-43.0979
  0
LINE
  8
0
 10
-44.382
 20
-43.0979
 11
-44.2637
 21
-43.1404
  0
LINE
  8
0
 10
-44.2637
 20
-43.1404
 11
-44.1484
 21
-43.1903
  0
LINE
  8
0
 10
-44.1484
 20
-43.1903
 11
-44.0365
 21
-43.2474
  0
LINE
  8
0
 10
-44.0365
 20
-43.2474
 11
-43.9283
 21
-43.3113
  0
LINE
  8
0
 10
-43.9283
 20
-43.3113
 11
-43.8244
 21
-43.382
  0
LINE
  8
0
 10
-43.8244
 20
-43.382
 11
-43.7251
 21
-43.459
  0
LINE
  8
0
 10
-43.7251
 20
-43.459
 11
-43.6309
 21
-43.5421
  0
LINE
  8
0
 10
-43.6309
 20
-43.5421
 11
-43.5421
 21
-43.6309
  0
LINE
  8
0
 10
-43.5421
 20
-43.6309
 11
-43.459
 21
-43.7251
  0
LINE
  8
0
 10
-43.459
 20
-43.7251
 11
-43.382
 21
-43.8244
  0
LINE
  8
0
 10
-43.382
 20
-43.8244
 11
-43.3113
 21
-43.9283
  0
LINE
  8
0
 10
-43.3113
 20
-43.9283
 11
-43.2474
 21
-44.0365
  0
LINE
  8
0
 10
-43.2474
 20
-44.0365
 11
-43.1903
 21
-44.1484
  0
LINE
  8
0
 10
-43.1903
 20
-44.1484
 11
-43.1404
 21
-44.2637
  0
LINE
  8
0
 10
-43.1404
 20
-44.2637
 11
-43.0979
 21
-44.382
  0
LINE
  8
0
 10
-43.0979
 20
-44.382
 11
-43.0628
 21
-44.5026
  0
LINE
  8
0
 10
-43.0628
 20
-44.5026
 11
-43.0354
 21
-44.6252
  0
LINE
  8
0
 10
-43.0354
 20
-44.6252
 11
-43.0158
 21
-44.7493
  0
LINE
  8
0
 10
-43.0158
 20
-44.7493
 11
-43.0039
 21
-44.8744
  0
LINE
  8
0
 10
-43.0039
 20
-44.8744
 11
-43
 21
-45
  0
LINE
  8
0
 10
-43
 20
-45
 11
-43.0039
 21
-45.1256
  0
LINE
  8
0
 10
-43.0039
 20
-45.1256
 11
-43.0158
 21
-45.2507
  0
LINE
  8
0
 10
-43.0158
 20
-45.2507
 11
-43.0354
 21
-45.3748
  0
LINE
  8
0
 10
-43.0354
 20
-45.3748
 11
-43.0628
 21
-45.4974
  0
LINE
  8
0
 10
-43.0628
 20
-45.4974
 11
-43.0979
 21
-45.618
  0
LINE
  8
0
 10
-43.0979
 20
-45.618
 11
-43.1404
 21
-45.7362
  0
LINE
  8
0
 10
-43.1404
 20
-45.7362
 11
-43.1903
 21
-45.8515
  0
LINE
  8
0
 10
-43.1903
 20
-45.8515
 11
-43.2474
 21
-45.9635
  0
LINE
  8
0
 10
-43.2474
 20
-45.9635
 11
-43.3113
 21
-46.0716
  0
LINE
  8
0
 10
-43.3113
 20
-46.0716
 11
-43.382
 21
-46.1756
  0
LINE
  8
0
 10
-43.382
 20
-46.1756
 11
-43.459
 21
-46.2748
  0
LINE
  8
0
 10
-43.459
 20
-46.2748
 11
-43.5421
 21
-46.3691
  0
LINE
  8
0
 10
-43.5421
 20
-46.3691
 11
-43.6309
 21
-46.4579
  0
LINE
  8
0
 10
-43.6309
 20
-46.4579
 11
-43.7251
 21
-46.541
  0
LINE
  8
0
 10
-43.7251
 20
-46.541
 11
-43.8244
 21
-46.618
  0
LINE
  8
0
 10
-43.8244
 20
-46.618
 11
-43.9283
 21
-46.6886
  0
LINE
  8
0
 10
-43.9283
 20
-46.6886
 11
-44.0365
 21
-46.7526
  0
LINE
  8
0
 10
-44.0365
 20
-46.7526
 11
-44.1484
 21
-46.8096
  0
LINE
  8
0
 10
-44.1484
 20
-46.8096
 11
-44.2637
 21
-46.8595
  0
LINE
  8
0
 10
-44.2637
 20
-46.8595
 11
-44.382
 21
-46.9021
  0
LINE
  8
0
 10
-44.382
 20
-46.9021
 11
-44.5026
 21
-46.9372
  0
LINE
  8
0
 10
-44.5026
 20
-46.9372
 11
-44.6252
 21
-46.9646
  0
LINE
  8
0
 10
-44.6252
 20
-46.9646
 11
-44.7493
 21
-46.9842
  0
LINE
  8
0
 10
-44.7493
 20
-46.9842
 11
-44.8744
 21
-46.996
  0
LINE
  8
0
 10
-44.8744
 20
-46.996
 11
-45
 21
-47
  0
LINE
  8
0
 10
-45
 20
-47
 11
-45.1256
 21
-46.996
  0
LINE
  8
0
 10
44.8744
 20
-46.996
 11
44.7493
 21
-46.9842
  0
LINE
  8
0
 10
44.7493
 20
-46.9842
 11
44.6252
 21
-46.9646
  0
LINE
  8
0
 10
44.6252
 20
-46.9646
 11
44.5026
 21
-46.9372
  0
LINE
  8
0
 10
44.5026
 20
-46.9372
 11
44.382
 21
-46.9021
  0
LINE
  8
0
 10
44.382
 20
-46.9021
 11
44.2637
 21
-46.8595
  0
LINE
  8
0
 10
44.2637
 20
-46.8595
 11
44.1484
 21
-46.8096
  0
LINE
  8
0
 10
44.1484
 20
-46.8096
 11
44.0365
 21
-46.7526
  0
LINE
  8
0
 10
44.0365
 20
-46.7526
 11
43.9283
 21
-46.6886
  0
LINE
  8
0
 10
43.9283
 20
-46.6886
 11
43.8244
 21
-46.618
  0
LINE
  8
0
 10
43.8244
 20
-46.618
 11
43.7251
 21
-46.541
  0
LINE
  8
0
 10
43.7251
 20
-46.541
 11
43.6309
 21
-46.4579
  0
LINE
  8
0
 10
43.6309
 20
-46.4579
 11
43.5421
 21
-46.3691
  0
LINE
  8
0
 10
43.5421
 20
-46.3691
 11
43.459
 21
-46.2748
  0
LINE
  8
0
 10
43.459
 20
-46.2748
 11
43.382
 21
-46.1756
  0
LINE
  8
0
 10
43.382
 20
-46.1756
 11
43.3113
 21
-46.0716
  0
LINE
  8
0
 10
43.3113
 20
-46.0716
 11
43.2474
 21
-45.9635
  0
LINE
  8
0
 10
43.2474
 20
-45.9635
 11
43.1903
 21
-45.8515
  0
LINE
  8
0
 10
43.1903
 20
-45.8515
 11
43.1404
 21
-45.7362
  0
LINE
  8
0
 10
43.1404
 20
-45.7362
 11
43.0979
 21
-45.618
  0
LINE
  8
0
 10
43.0979
 20
-45.618
 11
43.0628
 21
-45.4974
  0
LINE
  8
0
 10
43.0628
 20
-45.4974
 11
43.0354
 21
-45.3748
  0
LINE
  8
0
 10
43.0354
 20
-45.3748
 11
43.0158
 21
-45.2507
  0
LINE
  8
0
 10
43.0158
 20
-45.2507
 11
43.0039
 21
-45.1256
  0
LINE
  8
0
 10
43.0039
 20
-45.1256
 11
43
 21
-45
  0
LINE
  8
0
 10
43
 20
-45
 11
43.0039
 21
-44.8744
  0
LINE
  8
0
 10
43.0039
 20
-44.8744
 11
43.0158
 21
-44.7493
  0
LINE
  8
0
 10
43.0158
 20
-44.7493
 11
43.0354
 21
-44.6252
  0
LINE
  8
0
 10
43.0354
 20
-44.6252
 11
43.0628
 21
-44.5026
  0
LINE
  8
0
 10
43.0628
 20
-44.5026
 11
43.0979
 21
-44.382
  0
LINE
  8
0
 10
43.0979
 20
-44.382
 11
43.1404
 21
-44.2637
  0
LINE
  8
0
 10
43.1404
 20
-44.2637
 11
43.1903
 21
-44.1484
  0
LINE
  8
0
 10
43.1903
 20
-44.1484
 11
43.2474
 21
-44.0365
  0
LINE
  8
0
 10
43.2474
 20
-44.0365
 11
43.3113
 21
-43.9283
  0
LINE
  8
0
 10
43.3113
 20
-43.9283
 11
43.382
 21
-43.8244
  0
LINE
  8
0
 10
43.382
 20
-43.8244
 11
43.459
 21
-43.7251
  0
LINE
  8
0
 10
43.459
 20
-43.7251
 11
43.5421
 21
-43.6309
  0
LINE
  8
0
 10
43.5421
 20
-43.6309
 11
43.6309
 21
-43.5421
  0
LINE
  8
0
 10
43.6309
 20
-43.5421
 11
43.7251
 21
-43.459
  0
LINE
  8
0
 10
43.7251
 20
-43.459
 11
43.8244
 21
-43.382
  0
LINE
  8
0
 10
43.8244
 20
-43.382
 11
43.9283
 21
-43.3113
  0
LINE
  8
0
 10
43.9283
 20
-43.3113
 11
44.0365
 21
-43.2474
  0
LINE
  8
0
 10
44.0365
 20
-43.2474
 11
44.1484
 21
-43.1903
  0
LINE
  8
0
 10
44.1484
 20
-43.1903
 11
44.2637
 21
-43.1404
  0
LINE
  8
0
 10
44.2637
 20
-43.1404
 11
44.382
 21
-43.0979
  0
LINE
  8
0
 10
44.382
 20
-43.0979
 11
44.5026
 21
-43.0628
  0
LINE
  8
0
 10
44.5026
 20
-43.0628
 11
44.6252
 21
-43.0354
  0
LINE
  8
0
 10
44.6252
 20
-43.0354
 11
44.7493
 21
-43.0158
  0
LINE
  8
0
 10
44.7493
 20
-43.0158
 11
44.8744
 21
-43.0039
  0
LINE
  8
0
 10
44.8744
 20
-43.0039
 11
45
 21
-43
  0
LINE
  8
0
 10
45
 20
-43
 11
45.1256
 21
-43.0039
  0
LINE
  8
0
 10
45.1256
 20
-43.0039
 11
45.2507
 21
-43.0158
  0
LINE
  8
0
 10
45.2507
 20
-43.0158
 11
45.3748
 21
-43.0354
  0
LINE
  8
0
 10
45.3748
 20
-43.0354
 11
45.4974
 21
-43.0628
  0
LINE
  8
0
 10
45.4974
 20
-43.0628
 11
45.618
 21
-43.0979
  0
LINE
  8
0
 10
45.618
 20
-43.0979
 11
45.7362
 21
-43.1404
  0
LINE
  8
0
 10
45.7362
 20
-43.1404
 11
45.8515
 21
-43.1903
  0
LINE
  8
0
 10
45.8515
 20
-43.1903
 11
45.9635
 21
-43.2474
  0
LINE
  8
0
 10
45.9635
 20
-43.2474
 11
46.0716
 21
-43.3113
  0
LINE
  8
0
 10
46.0716
 20
-43.3113
 11
46.1756
 21
-43.382
  0
LINE
  8
0
 10
46.1756
 20
-43.382
 11
46.2748
 21
-43.459
  0
LINE
  8
0
 10
46.2748
 20
-43.459
 11
46.3691
 21
-43.5421
  0
LINE
  8
0
 10
46.3691
 20
-43.5421
 11
46.4579
 21
-43.6309
  0
LINE
  8
0
 10
46.4579
 20
-43.6309
 11
46.541
 21
-43.7251
  0
LINE
  8
0
 10
46.541
 20
-43.7251
 11
46.618
 21
-43.8244
  0
LINE
  8
0
 10
46.618
 20
-43.8244
 11
46.6886
 21
-43.9283
  0
LINE
  8
0
 10
46.6886
 20
-43.9283
 11
46.7526
 21
-44.0365
  0
LINE
  8
0
 10
46.7526
 20
-44.0365
 11
46.8096
 21
-44.1484
  0
LINE
  8
0
 10
46.8096
 20
-44.1484
 11
46.8595
 21
-44.2637
  0
LINE
  8
0
 10
46.8595
 20
-44.2637
 11
46.9021
 21
-44.382
  0
LINE
  8
0
 10
46.9021
 20
-44.382
 11
46.9372
 21
-44.5026
  0
LINE
  8
0
 10
46.9372
 20
-44.5026
 11
46.9646
 21
-44.6252
  0
LINE
  8
0
 10
46.9646
 20
-44.6252
 11
46.9842
 21
-44.7493
  0
LINE
  8
0
 10
46.9842
 20
-44.7493
 11
46.996
 21
-44.8744
  0
LINE
  8
0
 10
46.996
 20
-44.8744
 11
47
 21
-45
  0
LINE
  8
0
 10
47
 20
-45
 11
46.996
 21
-45.1256
  0
LINE
  8
0
 10
46.996
 20
-45.1256
 11
46.9842
 21
-45.2507
  0
LINE
  8
0
 10
46.9842
 20
-45.2507
 11
46.9646
 21
-45.3748
  0
LINE
  8
0
 10
46.9646
 20
-45.3748
 11
46.9372
 21
-45.4974
  0
LINE
  8
0
 10
46.9372
 20
-45.4974
 11
46.9021
 21
-45.618
  0
LINE
  8
0
 10
46.9021
 20
-45.618
 11
46.8595
 21
-45.7362
  0
LINE
  8
0
 10
46.8595
 20
-45.7362
 11
46.8096
 21
-45.8515
  0
LINE
  8
0
 10
46.8096
 20
-45.8515
 11
46.7526
 21
-45.9635
  0
LINE
  8
0
 10
46.7526
 20
-45.9635
 11
46.6886
 21
-46.0716
  0
LINE
  8
0
 10
46.6886
 20
-46.0716
 11
46.618
 21
-46.1756
  0
LINE
  8
0
 10
46.618
 20
-46.1756
 11
46.541
 21
-46.2748
  0
LINE
  8
0
 10
46.541
 20
-46.2748
 11
46.4579
 21
-46.3691
  0
LINE
  8
0
 10
46.4579
 20
-46.3691
 11
46.3691
 21
-46.4579
  0
LINE
  8
0
 10
46.3691
 20
-46.4579
 11
46.2748
 21
-46.541
  0
LINE
  8
0
 10
46.2748
 20
-46.541
 11
46.1756
 21
-46.618
  0
LINE
  8
0
 10
46.1756
 20
-46.618
 11
46.0716
 21
-46.6886
  0
LINE
  8
0
 10
46.0716
 20
-46.6886
 11
45.9635
 21
-46.7526
  0
LINE
  8
0
 10
45.9635
 20
-46.7526
 11
45.8515
 21
-46.8096
  0
LINE
  8
0
 10
45.8515
 20
-46.8096
 11
45.7362
 21
-46.8595
  0
LINE
  8
0
 10
45.7362
 20
-46.8595
 11
45.618
 21
-46.9021
  0
LINE
  8
0
 10
45.618
 20
-46.9021
 11
45.4974
 21
-46.9372
  0
LINE
  8
0
 10
45.4974
 20
-46.9372
 11
45.3748
 21
-46.9646
  0
LINE
  8
0
 10
45.3748
 20
-46.9646
 11
45.2507
 21
-46.9842
  0
LINE
  8
0
 10
45.2507
 20
-46.9842
 11
45.1256
 21
-46.996
  0
LINE
  8
0
 10
45.1256
 20
-46.996
 11
45
 21
-47
  0
LINE
  8
0
 10
45
 20
-47
 11
44.8744
 21
-46.996
  0
LINE
  8
0
 10
151.251
 20
-49.9921
 11
151.501
 21
-49.9684
  0
LINE
  8
0
 10
151.501
 20
-49.9684
 11
151.75
 21
-49.9291
  0
LINE
  8
0
 10
151.75
 20
-49.9291
 11
151.995
 21
-49.8743
  0
LINE
  8
0
 10
151.995
 20
-49.8743
 11
152.236
 21
-49.8042
  0
LINE
  8
0
 10
152.236
 20
-49.8042
 11
152.472
 21
-49.7191
  0
LINE
  8
0
 10
152.472
 20
-49.7191
 11
152.703
 21
-49.6193
  0
LINE
  8
0
 10
152.703
 20
-49.6193
 11
152.927
 21
-49.5052
  0
LINE
  8
0
 10
152.927
 20
-49.5052
 11
153.143
 21
-49.3773
  0
LINE
  8
0
 10
153.143
 20
-49.3773
 11
153.351
 21
-49.2361
  0
LINE
  8
0
 10
153.351
 20
-49.2361
 11
153.55
 21
-49.082
  0
LINE
  8
0
 10
153.55
 20
-49.082
 11
153.738
 21
-48.9159
  0
LINE
  8
0
 10
153.738
 20
-48.9159
 11
153.916
 21
-48.7382
  0
LINE
  8
0
 10
153.916
 20
-48.7382
 11
154.082
 21
-48.5497
  0
LINE
  8
0
 10
154.082
 20
-48.5497
 11
154.236
 21
-48.3511
  0
LINE
  8
0
 10
154.236
 20
-48.3511
 11
154.377
 21
-48.1433
  0
LINE
  8
0
 10
154.377
 20
-48.1433
 11
154.505
 21
-47.927
  0
LINE
  8
0
 10
154.505
 20
-47.927
 11
154.619
 21
-47.7031
  0
LINE
  8
0
 10
154.619
 20
-47.7031
 11
154.719
 21
-47.4725
  0
LINE
  8
0
 10
154.719
 20
-47.4725
 11
154.804
 21
-47.2361
  0
LINE
  8
0
 10
154.804
 20
-47.2361
 11
154.874
 21
-46.9948
  0
LINE
  8
0
 10
154.874
 20
-46.9948
 11
154.929
 21
-46.7495
  0
LINE
  8
0
 10
154.929
 20
-46.7495
 11
154.968
 21
-46.5013
  0
LINE
  8
0
 10
154.968
 20
-46.5013
 11
154.992
 21
-46.2512
  0
LINE
  8
0
 10
154.992
 20
-46.2512
 11
155
 21
-46
  0
LINE
  8
0
 10
155
 20
-46
 11
155
 21
46
  0
LINE
  8
0
 10
155
 20
46
 11
154.992
 21
46.2512
  0
LINE
  8
0
 10
154.992
 20
46.2512
 11
154.968
 21
46.5013
  0
LINE
  8
0
 10
154.968
 20
46.5013
 11
154.929
 21
46.7495
  0
LINE
  8
0
 10
154.929
 20
46.7495
 11
154.874
 21
46.9948
  0
LINE
  8
0
 10
154.874
 20
46.9948
 11
154.804
 21
47.2361
  0
LINE
  8
0
 10
154.804
 20
47.2361
 11
154.719
 21
47.4725
  0
LINE
  8
0
 10
154.719
 20
47.4725
 11
154.619
 21
47.7031
  0
LINE
  8
0
 10
154.619
 20
47.7031
 11
154.505
 21
47.927
  0
LINE
  8
0
 10
154.505
 20
47.927
 11
154.377
 21
48.1433
  0
LINE
  8
0
 10
154.377
 20
48.1433
 11
154.236
 21
48.3511
  0
LINE
  8
0
 10
154.236
 20
48.3511
 11
154.082
 21
48.5497
  0
LINE
  8
0
 10
154.082
 20
48.5497
 11
153.916
 21
48.7382
  0
LINE
  8
0
 10
153.916
 20
48.7382
 11
153.738
 21
48.9159
  0
LINE
  8
0
 10
153.738
 20
48.9159
 11
153.55
 21
49.082
  0
LINE
  8
0
 10
153.55
 20
49.082
 11
153.351
 21
49.2361
  0
LINE
  8
0
 10
153.351
 20
49.2361
 11
153.143
 21
49.3773
  0
LINE
  8
0
 10
153.143
 20
49.3773
 11
152.927
 21
49.5052
  0
LINE
  8
0
 10
152.927
 20
49.5052
 11
152.703
 21
49.6193
  0
LINE
  8
0
 10
152.703
 20
49.6193
 11
152.472
 21
49.7191
  0
LINE
  8
0
 10
152.472
 20
49.7191
 11
152.236
 21
49.8042
  0
LINE
  8
0
 10
152.236
 20
49.8042
 11
151.995
 21
49.8743
  0
LINE
  8
0
 10
151.995
 20
49.8743
 11
151.75
 21
49.9291
  0
LINE
  8
0
 10
151.75
 20
49.9291
 11
151.501
 21
49.9684
  0
LINE
  8
0
 10
151.501
 20
49.9684
 11
151.251
 21
49.9921
  0
LINE
  8
0
 10
151.251
 20
49.9921
 11
151
 21
50
  0
LINE
  8
0
 10
151
 20
50
 11
59
 21
50
  0
LINE
  8
0
 10
59
 20
50
 11
58.7488
 21
49.9921
  0
LINE
  8
0
 10
58.7488
 20
49.9921
 11
58.4987
 21
49.9684
  0
LINE
  8
0
 10
58.4987
 20
49.9684
 11
58.2505
 21
49.9291
  0
LINE
  8
0
 10
58.2505
 20
49.9291
 11
58.0052
 21
49.8743
  0
LINE
  8
0
 10
58.0052
 20
49.8743
 11
57.7639
 21
49.8042
  0
LINE
  8
0
 10
57.7639
 20
49.8042
 11
57.5275
 21
49.7191
  0
LINE
  8
0
 10
57.5275
 20
49.7191
 11
57.2969
 21
49.6193
  0
LINE
  8
0
 10
57.2969
 20
49.6193
 11
57.073
 21
49.5052
  0
LINE
  8
0
 10
57.073
 20
49.5052
 11
56.8567
 21
49.3773
  0
LINE
  8
0
 10
56.8567
 20
49.3773
 11
56.6489
 21
49.2361
  0
LINE
  8
0
 10
56.6489
 20
49.2361
 11
56.4503
 21
49.082
  0
LINE
  8
0
 10
56.4503
 20
49.082
 11
56.2618
 21
48.9159
  0
LINE
  8
0
 10
56.2618
 20
48.9159
 11
56.0841
 21
48.7382
  0
LINE
  8
0
 10
56.0841
 20
48.7382
 11
55.918
 21
48.5497
  0
LINE
  8
0
 10
55.918
 20
48.5497
 11
55.7639
 21
48.3511
  0
LINE
  8
0
 10
55.7639
 20
48.3511
 11
55.6227
 21
48.1433
  0
LINE
  8
0
 10
55.6227
 20
48.1433
 11
55.4948
 21
47.927
  0
LINE
  8
0
 10
55.4948
 20
47.927
 11
55.3807
 21
47.7031
  0
LINE
  8
0
 10
55.3807
 20
47.7031
 11
55.2809
 21
47.4725
  0
LINE
  8
0
 10
55.2809
 20
47.4725
 11
55.1958
 21
47.2361
  0
LINE
  8
0
 10
55.1958
 20
47.2361
 11
55.1257
 21
46.9948
  0
LINE
  8
0
 10
55.1257
 20
46.9948
 11
55.0709
 21
46.7495
  0
LINE
  8
0
 10
55.0709
 20
46.7495
 11
55.0316
 21
46.5013
  0
LINE
  8
0
 10
55.0316
 20
46.5013
 11
55.0079
 21
46.2512
  0
LINE
  8
0
 10
55.0079
 20
46.2512
 11
55
 21
46
  0
LINE
  8
0
 10
55
 20
46
 11
55
 21
-46
  0
LINE
  8
0
 10
55
 20
-46
 11
55.0079
 21
-46.2512
  0
LINE
  8
0
 10
55.0079
 20
-46.2512
 11
55.0316
 21
-46.5013
  0
LINE
  8
0
 10
55.0316
 20
-46.5013
 11
55.0709
 21
-46.7495
  0
LINE
  8
0
 10
55.0709
 20
-46.7495
 11
55.1257
 21
-46.9948
  0
LINE
  8
0
 10
55.1257
 20
-46.9948
 11
55.1958
 21
-47.2361
  0
LINE
  8
0
 10
55.1958
 20
-47.2361
 11
55.2809
 21
-47.4725
  0
LINE
  8
0
 10
55.2809
 20
-47.4725
 11
55.3807
 21
-47.7031
  0
LINE
  8
0
 10
55.3807
 20
-47.7031
 11
55.4948
 21
-47.927
  0
LINE
  8
0
 10
55.4948
 20
-47.927
 11
55.6227
 21
-48.1433
  0
LINE
  8
0
 10
55.6227
 20
-48.1433
 11
55.7639
 21
-48.3511
  0
LINE
  8
0
 10
55.7639
 20
-48.3511
 11
55.918
 21
-48.5497
  0
LINE
  8
0
 10
55.918
 20
-48.5497
 11
56.0841
 21
-48.7382
  0
LINE
  8
0
 10
56.0841
 20
-48.7382
 11
56.2618
 21
-48.9159
  0
LINE
  8
0
 10
56.2618
 20
-48.9159
 11
56.4503
 21
-49.082
  0
LINE
  8
0
 10
56.4503
 20
-49.082
 11
56.6489
 21
-49.2361
  0
LINE
  8
0
 10
56.6489
 20
-49.2361
 11
56.8567
 21
-49.3773
  0
LINE
  8
0
 10
56.8567
 20
-49.3773
 11
57.073
 21
-49.5052
  0
LINE
  8
0
 10
57.073
 20
-49.5052
 11
57.2969
 21
-49.6193
  0
LINE
  8
0
 10
57.2969
 20
-49.6193
 11
57.5275
 21
-49.7191
  0
LINE
  8
0
 10
57.5275
 20
-49.7191
 11
57.7639
 21
-49.8042
  0
LINE
  8
0
 10
57.7639
 20
-49.8042
 11
58.0052
 21
-49.8743
  0
LINE
  8
0
 10
58.0052
 20
-49.8743
 11
58.2505
 21
-49.9291
  0
LINE
  8
0
 10
58.2505
 20
-49.9291
 11
58.4987
 21
-49.9684
  0
LINE
  8
0
 10
58.4987
 20
-49.9684
 11
58.7488
 21
-49.9921
  0
LINE
  8
0
 10
58.7488
 20
-49.9921
 11
59
 21
-50
  0
LINE
  8
0
 10
59
 20
-50
 11
151
 21
-50
  0
LINE
  8
0
 10
151
 20
-50
 11
151.251
 21
-49.9921
  0
LINE
  8
0
 10
149.874
 20
43.0039
 11
149.749
 21
43.0158
  0
LINE
  8
0
 10
149.749
 20
43.0158
 11
149.625
 21
43.0354
  0
LINE
  8
0
 10
149.625
 20
43.0354
 11
149.503
 21
43.0628
  0
LINE
  8
0
 10
149.503
 20
43.0628
 11
149.382
 21
43.0979
  0
LINE
  8
0
 10
149.382
 20
43.0979
 11
149.264
 21
43.1404
  0
LINE
  8
0
 10
149.264
 20
43.1404
 11
149.148
 21
43.1903
  0
LINE
  8
0
 10
149.148
 20
43.1903
 11
149.036
 21
43.2474
  0
LINE
  8
0
 10
149.036
 20
43.2474
 11
148.928
 21
43.3113
  0
LINE
  8
0
 10
148.928
 20
43.3113
 11
148.824
 21
43.382
  0
LINE
  8
0
 10
148.824
 20
43.382
 11
148.725
 21
43.459
  0
LINE
  8
0
 10
148.725
 20
43.459
 11
148.631
 21
43.5421
  0
LINE
  8
0
 10
148.631
 20
43.5421
 11
148.542
 21
43.6309
  0
LINE
  8
0
 10
148.542
 20
43.6309
 11
148.459
 21
43.7251
  0
LINE
  8
0
 10
148.459
 20
43.7251
 11
148.382
 21
43.8244
  0
LINE
  8
0
 10
148.382
 20
43.8244
 11
148.311
 21
43.9283
  0
LINE
  8
0
 10
148.311
 20
43.9283
 11
148.247
 21
44.0365
  0
LINE
  8
0
 10
148.247
 20
44.0365
 11
148.19
 21
44.1484
  0
LINE
  8
0
 10
148.19
 20
44.1484
 11
148.14
 21
44.2637
  0
LINE
  8
0
 10
148.14
 20
44.2637
 11
148.098
 21
44.382
  0
LINE
  8
0
 10
148.098
 20
44.382
 11
148.063
 21
44.5026
  0
LINE
  8
0
 10
148.063
 20
44.5026
 11
148.035
 21
44.6252
  0
LINE
  8
0
 10
148.035
 20
44.6252
 11
148.016
 21
44.7493
  0
LINE
  8
0
 10
148.016
 20
44.7493
 11
148.004
 21
44.8744
  0
LINE
  8
0
 10
148.004
 20
44.8744
 11
148
 21
45
  0
LINE
  8
0
 10
148
 20
45
 11
148.004
 21
45.1256
  0
LINE
  8
0
 10
148.004
 20
45.1256
 11
148.016
 21
45.2507
  0
LINE
  8
0
 10
148.016
 20
45.2507
 11
148.035
 21
45.3748
  0
LINE
  8
0
 10
148.035
 20
45.3748
 11
148.063
 21
45.4974
  0
LINE
  8
0
 10
148.063
 20
45.4974
 11
148.098
 21
45.618
  0
LINE
  8
0
 10
148.098
 20
45.618
 11
148.14
 21
45.7362
  0
LINE
  8
0
 10
148.14
 20
45.7362
 11
148.19
 21
45.8515
  0
LINE
  8
0
 10
148.19
 20
45.8515
 11
148.247
 21
45.9635
  0
LINE
  8
0
 10
148.247
 20
45.9635
 11
148.311
 21
46.0716
  0
LINE
  8
0
 10
148.311
 20
46.0716
 11
148.382
 21
46.1756
  0
LINE
  8
0
 10
148.382
 20
46.1756
 11
148.459
 21
46.2748
  0
LINE
  8
0
 10
148.459
 20
46.2748
 11
148.542
 21
46.3691
  0
LINE
  8
0
 10
148.542
 20
46.3691
 11
148.631
 21
46.4579
  0
LINE
  8
0
 10
148.631
 20
46.4579
 11
148.725
 21
46.541
  0
LINE
  8
0
 10
148.725
 20
46.541
 11
148.824
 21
46.618
  0
LINE
  8
0
 10
148.824
 20
46.618
 11
148.928
 21
46.6886
  0
LINE
  8
0
 10
148.928
 20
46.6886
 11
149.036
 21
46.7526
  0
LINE
  8
0
 10
149.036
 20
46.7526
 11
149.148
 21
46.8096
  0
LINE
  8
0
 10
149.148
 20
46.8096
 11
149.264
 21
46.8595
  0
LINE
  8
0
 10
149.264
 20
46.8595
 11
149.382
 21
46.9021
  0
LINE
  8
0
 10
149.382
 20
46.9021
 11
149.503
 21
46.9372
  0
LINE
  8
0
 10
149.503
 20
46.9372
 11
149.625
 21
46.9646
  0
LINE
  8
0
 10
149.625
 20
46.9646
 11
149.749
 21
46.9842
  0
LINE
  8
0
 10
149.749
 20
46.9842
 11
149.874
 21
46.996
  0
LINE
  8
0
 10
149.874
 20
46.996
 11
150
 21
47
  0
LINE
  8
0
 10
150
 20
47
 11
150.126
 21
46.996
  0
LINE
  8
0
 10
150.126
 20
46.996
 11
150.251
 21
46.9842
  0
LINE
  8
0
 10
150.251
 20
46.9842
 11
150.375
 21
46.9646
  0
LINE
  8
0
 10
150.375
 20
46.9646
 11
150.497
 21
46.9372
  0
LINE
  8
0
 10
150.497
 20
46.9372
 11
150.618
 21
46.9021
  0
LINE
  8
0
 10
150.618
 20
46.9021
 11
150.736
 21
46.8595
  0
LINE
  8
0
 10
150.736
 20
46.8595
 11
150.852
 21
46.8096
  0
LINE
  8
0
 10
150.852
 20
46.8096
 11
150.964
 21
46.7526
  0
LINE
  8
0
 10
150.964
 20
46.7526
 11
151.072
 21
46.6886
  0
LINE
  8
0
 10
151.072
 20
46.6886
 11
151.176
 21
46.618
  0
LINE
  8
0
 10
151.176
 20
46.618
 11
151.275
 21
46.541
  0
LINE
  8
0
 10
151.275
 20
46.541
 11
151.369
 21
46.4579
  0
LINE
  8
0
 10
151.369
 20
46.4579
 11
151.458
 21
46.3691
  0
LINE
  8
0
 10
151.458
 20
46.3691
 11
151.541
 21
46.2748
  0
LINE
  8
0
 10
151.541
 20
46.2748
 11
151.618
 21
46.1756
  0
LINE
  8
0
 10
151.618
 20
46.1756
 11
151.689
 21
46.0716
  0
LINE
  8
0
 10
151.689
 20
46.0716
 11
151.753
 21
45.9635
  0
LINE
  8
0
 10
151.753
 20
45.9635
 11
151.81
 21
45.8515
  0
LINE
  8
0
 10
151.81
 20
45.8515
 11
151.86
 21
45.7362
  0
LINE
  8
0
 10
151.86
 20
45.7362
 11
151.902
 21
45.618
  0
LINE
  8
0
 10
151.902
 20
45.618
 11
151.937
 21
45.4974
  0
LINE
  8
0
 10
151.937
 20
45.4974
 11
151.965
 21
45.3748
  0
LINE
  8
0
 10
151.965
 20
45.3748
 11
151.984
 21
45.2507
  0
LINE
  8
0
 10
151.984
 20
45.2507
 11
151.996
 21
45.1256
  0
LINE
  8
0
 10
151.996
 20
45.1256
 11
152
 21
45
  0
LINE
  8
0
 10
152
 20
45
 11
151.996
 21
44.8744
  0
LINE
  8
0
 10
151.996
 20
44.8744
 11
151.984
 21
44.7493
  0
LINE
  8
0
 10
151.984
 20
44.7493
 11
151.965
 21
44.6252
  0
LINE
  8
0
 10
151.965
 20
44.6252
 11
151.937
 21
44.5026
  0
LINE
  8
0
 10
151.937
 20
44.5026
 11
151.902
 21
44.382
  0
LINE
  8
0
 10
151.902
 20
44.382
 11
151.86
 21
44.2637
  0
LINE
  8
0
 10
151.86
 20
44.2637
 11
151.81
 21
44.1484
  0
LINE
  8
0
 10
151.81
 20
44.1484
 11
151.753
 21
44.0365
  0
LINE
  8
0
 10
151.753
 20
44.0365
 11
151.689
 21
43.9283
  0
LINE
  8
0
 10
151.689
 20
43.9283
 11
151.618
 21
43.8244
  0
LINE
  8
0
 10
151.618
 20
43.8244
 11
151.541
 21
43.7251
  0
LINE
  8
0
 10
151.541
 20
43.7251
 11
151.458
 21
43.6309
  0
LINE
  8
0
 10
151.458
 20
43.6309
 11
151.369
 21
43.5421
  0
LINE
  8
0
 10
151.369
 20
43.5421
 11
151.275
 21
43.459
  0
LINE
  8
0
 10
151.275
 20
43.459
 11
151.176
 21
43.382
  0
LINE
  8
0
 10
151.176
 20
43.382
 11
151.072
 21
43.3113
  0
LINE
  8
0
 10
151.072
 20
43.3113
 11
150.964
 21
43.2474
  0
LINE
  8
0
 10
150.964
 20
43.2474
 11
150.852
 21
43.1903
  0
LINE
  8
0
 10
150.852
 20
43.1903
 11
150.736
 21
43.1404
  0
LINE
  8
0
 10
150.736
 20
43.1404
 11
150.618
 21
43.0979
  0
LINE
  8
0
 10
150.618
 20
43.0979
 11
150.497
 21
43.0628
  0
LINE
  8
0
 10
150.497
 20
43.0628
 11
150.375
 21
43.0354
  0
LINE
  8
0
 10
150.375
 20
43.0354
 11
150.251
 21
43.0158
  0
LINE
  8
0
 10
150.251
 20
43.0158
 11
150.126
 21
43.0039
  0
LINE
  8
0
 10
150.126
 20
43.0039
 11
150
 21
43
  0
LINE
  8
0
 10
150
 20
43
 11
149.874
 21
43.0039
  0
LINE
  8
0
 10
59.8744
 20
43.0039
 11
59.7493
 21
43.0158
  0
LINE
  8
0
 10
59.7493
 20
43.0158
 11
59.6252
 21
43.0354
  0
LINE
  8
0
 10
59.6252
 20
43.0354
 11
59.5026
 21
43.0628
  0
LINE
  8
0
 10
59.5026
 20
43.0628
 11
59.382
 21
43.0979
  0
LINE
  8
0
 10
59.382
 20
43.0979
 11
59.2638
 21
43.1404
  0
LINE
  8
0
 10
59.2638
 20
43.1404
 11
59.1485
 21
43.1903
  0
LINE
  8
0
 10
59.1485
 20
43.1903
 11
59.0365
 21
43.2474
  0
LINE
  8
0
 10
59.0365
 20
43.2474
 11
58.9284
 21
43.3113
  0
LINE
  8
0
 10
58.9284
 20
43.3113
 11
58.8244
 21
43.382
  0
LINE
  8
0
 10
58.8244
 20
43.382
 11
58.7252
 21
43.459
  0
LINE
  8
0
 10
58.7252
 20
43.459
 11
58.6309
 21
43.5421
  0
LINE
  8
0
 10
58.6309
 20
43.5421
 11
58.5421
 21
43.6309
  0
LINE
  8
0
 10
58.5421
 20
43.6309
 11
58.459
 21
43.7251
  0
LINE
  8
0
 10
58.459
 20
43.7251
 11
58.382
 21
43.8244
  0
LINE
  8
0
 10
58.382
 20
43.8244
 11
58.3114
 21
43.9283
  0
LINE
  8
0
 10
58.3114
 20
43.9283
 11
58.2474
 21
44.0365
  0
LINE
  8
0
 10
58.2474
 20
44.0365
 11
58.1904
 21
44.1484
  0
LINE
  8
0
 10
58.1904
 20
44.1484
 11
58.1405
 21
44.2637
  0
LINE
  8
0
 10
58.1405
 20
44.2637
 11
58.0979
 21
44.382
  0
LINE
  8
0
 10
58.0979
 20
44.382
 11
58.0628
 21
44.5026
  0
LINE
  8
0
 10
58.0628
 20
44.5026
 11
58.0354
 21
44.6252
  0
LINE
  8
0
 10
58.0354
 20
44.6252
 11
58.0158
 21
44.7493
  0
LINE
  8
0
 10
58.0158
 20
44.7493
 11
58.004
 21
44.8744
  0
LINE
  8
0
 10
58.004
 20
44.8744
 11
58
 21
45
  0
LINE
  8
0
 10
58
 20
45
 11
58.004
 21
45.1256
  0
LINE
  8
0
 10
58.004
 20
45.1256
 11
58.0158
 21
45.2507
  0
LINE
  8
0
 10
58.0158
 20
45.2507
 11
58.0354
 21
45.3748
  0
LINE
  8
0
 10
58.0354
 20
45.3748
 11
58.0628
 21
45.4974
  0
LINE
  8
0
 10
58.0628
 20
45.4974
 11
58.0979
 21
45.618
  0
LINE
  8
0
 10
58.0979
 20
45.618
 11
58.1405
 21
45.7362
  0
LINE
  8
0
 10
58.1405
 20
45.7362
 11
58.1904
 21
45.8515
  0
LINE
  8
0
 10
58.1904
 20
45.8515
 11
58.2474
 21
45.9635
  0
LINE
  8
0
 10
58.2474
 20
45.9635
 11
58.3114
 21
46.0716
  0
LINE
  8
0
 10
58.3114
 20
46.0716
 11
58.382
 21
46.1756
  0
LINE
  8
0
 10
58.382
 20
46.1756
 11
58.459
 21
46.2748
  0
LINE
  8
0
 10
58.459
 20
46.2748
 11
58.5421
 21
46.3691
  0
LINE
  8
0
 10
58.5421
 20
46.3691
 11
58.6309
 21
46.4579
  0
LINE
  8
0
 10
58.6309
 20
46.4579
 11
58.7252
 21
46.541
  0
LINE
  8
0
 10
58.7252
 20
46.541
 11
58.8244
 21
46.618
  0
LINE
  8
0
 10
58.8244
 20
46.618
 11
58.9284
 21
46.6886
  0
LINE
  8
0
 10
58.9284
 20
46.6886
 11
59.0365
 21
46.7526
  0
LINE
  8
0
 10
59.0365
 20
46.7526
 11
59.1485
 21
46.8096
  0
LINE
  8
0
 10
59.1485
 20
46.8096
 11
59.2638
 21
46.8595
  0
LINE
  8
0
 10
59.2638
 20
46.8595
 11
59.382
 21
46.9021
  0
LINE
  8
0
 10
59.382
 20
46.9021
 11
59.5026
 21
46.9372
  0
LINE
  8
0
 10
59.5026
 20
46.9372
 11
59.6252
 21
46.9646
  0
LINE
  8
0
 10
59.6252
 20
46.9646
 11
59.7493
 21
46.9842
  0
LINE
  8
0
 10
59.7493
 20
46.9842
 11
59.8744
 21
46.996
  0
LINE
  8
0
 10
59.8744
 20
46.996
 11
60
 21
47
  0
LINE
  8
0
 10
60
 20
47
 11
60.1256
 21
46.996
  0
LINE
  8
0
 10
60.1256
 20
46.996
 11
60.2507
 21
46.9842
  0
LINE
  8
0
 10
60.2507
 20
46.9842
 11
60.3748
 21
46.9646
  0
LINE
  8
0
 10
60.3748
 20
46.9646
 11
60.4974
 21
46.9372
  0
LINE
  8
0
 10
60.4974
 20
46.9372
 11
60.618
 21
46.9021
  0
LINE
  8
0
 10
60.618
 20
46.9021
 11
60.7363
 21
46.8595
  0
LINE
  8
0
 10
60.7363
 20
46.8595
 11
60.8516
 21
46.8096
  0
LINE
  8
0
 10
60.8516
 20
46.8096
 11
60.9635
 21
46.7526
  0
LINE
  8
0
 10
60.9635
 20
46.7526
 11
61.0717
 21
46.6886
  0
LINE
  8
0
 10
61.0717
 20
46.6886
 11
61.1756
 21
46.618
  0
LINE
  8
0
 10
61.1756
 20
46.618
 11
61.2749
 21
46.541
  0
LINE
  8
0
 10
61.2749
 20
46.541
 11
61.3691
 21
46.4579
  0
LINE
  8
0
 10
61.3691
 20
46.4579
 11
61.4579
 21
46.3691
  0
LINE
  8
0
 10
61.4579
 20
46.3691
 11
61.541
 21
46.2748
  0
LINE
  8
0
 10
61.541
 20
46.2748
 11
61.618
 21
46.1756
  0
LINE
  8
0
 10
61.618
 20
46.1756
 11
61.6887
 21
46.0716
  0
LINE
  8
0
 10
61.6887
 20
46.0716
 11
61.7526
 21
45.9635
  0
LINE
  8
0
 10
61.7526
 20
45.9635
 11
61.8097
 21
45.8515
  0
LINE
  8
0
 10
61.8097
 20
45.8515
 11
61.8596
 21
45.7362
  0
LINE
  8
0
 10
61.8596
 20
45.7362
 11
61.9021
 21
45.618
  0
LINE
  8
0
 10
61.9021
 20
45.618
 11
61.9372
 21
45.4974
  0
LINE
  8
0
 10
61.9372
 20
45.4974
 11
61.9646
 21
45.3748
  0
LINE
  8
0
 10
61.9646
 20
45.3748
 11
61.9842
 21
45.2507
  0
LINE
  8
0
 10
61.9842
 20
45.2507
 11
61.9961
 21
45.1256
  0
LINE
  8
0
 10
61.9961
 20
45.1256
 11
62
 21
45
  0
LINE
  8
0
 10
62
 20
45
 11
61.9961
 21
44.8744
  0
LINE
  8
0
 10
61.9961
 20
44.8744
 11
61.9842
 21
44.7493
  0
LINE
  8
0
 10
61.9842
 20
44.7493
 11
61.9646
 21
44.6252
  0
LINE
  8
0
 10
61.9646
 20
44.6252
 11
61.9372
 21
44.5026
  0
LINE
  8
0
 10
61.9372
 20
44.5026
 11
61.9021
 21
44.382
  0
LINE
  8
0
 10
61.9021
 20
44.382
 11
61.8596
 21
44.2637
  0
LINE
  8
0
 10
61.8596
 20
44.2637
 11
61.8097
 21
44.1484
  0
LINE
  8
0
 10
61.8097
 20
44.1484
 11
61.7526
 21
44.0365
  0
LINE
  8
0
 10
61.7526
 20
44.0365
 11
61.6887
 21
43.9283
  0
LINE
  8
0
 10
61.6887
 20
43.9283
 11
61.618
 21
43.8244
  0
LINE
  8
0
 10
61.618
 20
43.8244
 11
61.541
 21
43.7251
  0
LINE
  8
0
 10
61.541
 20
43.7251
 11
61.4579
 21
43.6309
  0
LINE
  8
0
 10
61.4579
 20
43.6309
 11
61.3691
 21
43.5421
  0
LINE
  8
0
 10
61.3691
 20
43.5421
 11
61.2749
 21
43.459
  0
LINE
  8
0
 10
61.2749
 20
43.459
 11
61.1756
 21
43.382
  0
LINE
  8
0
 10
61.1756
 20
43.382
 11
61.0717
 21
43.3113
  0
LINE
  8
0
 10
61.0717
 20
43.3113
 11
60.9635
 21
43.2474
  0
LINE
  8
0
 10
60.9635
 20
43.2474
 11
60.8516
 21
43.1903
  0
LINE
  8
0
 10
60.8516
 20
43.1903
 11
60.7363
 21
43.1404
  0
LINE
  8
0
 10
60.7363
 20
43.1404
 11
60.618
 21
43.0979
  0
LINE
  8
0
 10
60.618
 20
43.0979
 11
60.4974
 21
43.0628
  0
LINE
  8
0
 10
60.4974
 20
43.0628
 11
60.3748
 21
43.0354
  0
LINE
  8
0
 10
60.3748
 20
43.0354
 11
60.2507
 21
43.0158
  0
LINE
  8
0
 10
60.2507
 20
43.0158
 11
60.1256
 21
43.0039
  0
LINE
  8
0
 10
60.1256
 20
43.0039
 11
60
 21
43
  0
LINE
  8
0
 10
60
 20
43
 11
59.8744
 21
43.0039
  0
LINE
  8
0
 10
65
 20
-45
 11
64.9901
 21
-44.686
  0
LINE
  8
0
 10
64.9901
 20
-44.686
 11
64.9606
 21
-44.3733
  0
LINE
  8
0
 10
64.9606
 20
-44.3733
 11
64.9114
 21
-44.0631
  0
LINE
  8
0
 10
64.9114
 20
-44.0631
 11
64.8429
 21
-43.7565
  0
LINE
  8
0
 10
64.8429
 20
-43.7565
 11
64.7553
 21
-43.4549
  0
LINE
  8
0
 10
64.7553
 20
-43.4549
 11
64.6489
 21
-43.1594
  0
LINE
  8
0
 10
64.6489
 20
-43.1594
 11
64.5241
 21
-42.8711
  0
LINE
  8
0
 10
64.5241
 20
-42.8711
 11
64.3815
 21
-42.5912
  0
LINE
  8
0
 10
64.3815
 20
-42.5912
 11
64.2216
 21
-42.3209
  0
LINE
  8
0
 10
64.2216
 20
-42.3209
 11
64.0451
 21
-42.0611
  0
LINE
  8
0
 10
64.0451
 20
-42.0611
 11
63.8526
 21
-41.8129
  0
LINE
  8
0
 10
63.8526
 20
-41.8129
 11
63.6449
 21
-41.5773
  0
LINE
  8
0
 10
63.6449
 20
-41.5773
 11
63.4227
 21
-41.3551
  0
LINE
  8
0
 10
63.4227
 20
-41.3551
 11
63.1871
 21
-41.1474
  0
LINE
  8
0
 10
63.1871
 20
-41.1474
 11
62.9389
 21
-40.9549
  0
LINE
  8
0
 10
62.9389
 20
-40.9549
 11
62.6791
 21
-40.7784
  0
LINE
  8
0
 10
62.6791
 20
-40.7784
 11
62.4088
 21
-40.6185
  0
LINE
  8
0
 10
62.4088
 20
-40.6185
 11
62.1289
 21
-40.4759
  0
LINE
  8
0
 10
62.1289
 20
-40.4759
 11
61.8406
 21
-40.3511
  0
LINE
  8
0
 10
61.8406
 20
-40.3511
 11
61.5451
 21
-40.2447
  0
LINE
  8
0
 10
61.5451
 20
-40.2447
 11
61.2435
 21
-40.1571
  0
LINE
  8
0
 10
61.2435
 20
-40.1571
 11
60.9369
 21
-40.0886
  0
LINE
  8
0
 10
60.9369
 20
-40.0886
 11
60.6267
 21
-40.0394
  0
LINE
  8
0
 10
60.6267
 20
-40.0394
 11
60.314
 21
-40.0099
  0
LINE
  8
0
 10
60.314
 20
-40.0099
 11
60
 21
-40
  0
LINE
  8
0
 10
60
 20
-40
 11
60
 21
40
  0
LINE
  8
0
 10
60
 20
40
 11
60.314
 21
40.0099
  0
LINE
  8
0
 10
60.314
 20
40.0099
 11
60.6267
 21
40.0394
  0
LINE
  8
0
 10
60.6267
 20
40.0394
 11
60.9369
 21
40.0886
  0
LINE
  8
0
 10
60.9369
 20
40.0886
 11
61.2435
 21
40.1571
  0
LINE
  8
0
 10
61.2435
 20
40.1571
 11
61.5451
 21
40.2447
  0
LINE
  8
0
 10
61.5451
 20
40.2447
 11
61.8406
 21
40.3511
  0
LINE
  8
0
 10
61.8406
 20
40.3511
 11
62.1289
 21
40.4759
  0
LINE
  8
0
 10
62.1289
 20
40.4759
 11
62.4088
 21
40.6185
  0
LINE
  8
0
 10
62.4088
 20
40.6185
 11
62.6791
 21
40.7784
  0
LINE
  8
0
 10
62.6791
 20
40.7784
 11
62.9389
 21
40.9549
  0
LINE
  8
0
 10
62.9389
 20
40.9549
 11
63.1871
 21
41.1474
  0
LINE
  8
0
 10
63.1871
 20
41.1474
 11
63.4227
 21
41.3551
  0
LINE
  8
0
 10
63.4227
 20
41.3551
 11
63.6449
 21
41.5773
  0
LINE
  8
0
 10
63.6449
 20
41.5773
 11
63.8526
 21
41.8129
  0
LINE
  8
0
 10
63.8526
 20
41.8129
 11
64.0451
 21
42.0611
  0
LINE
  8
0
 10
64.0451
 20
42.0611
 11
64.2216
 21
42.3209
  0
LINE
  8
0
 10
64.2216
 20
42.3209
 11
64.3815
 21
42.5912
  0
LINE
  8
0
 10
64.3815
 20
42.5912
 11
64.5241
 21
42.8711
  0
LINE
  8
0
 10
64.5241
 20
42.8711
 11
64.6489
 21
43.1594
  0
LINE
  8
0
 10
64.6489
 20
43.1594
 11
64.7553
 21
43.4549
  0
LINE
  8
0
 10
64.7553
 20
43.4549
 11
64.8429
 21
43.7565
  0
LINE
  8
0
 10
64.8429
 20
43.7565
 11
64.9114
 21
44.0631
  0
LINE
  8
0
 10
64.9114
 20
44.0631
 11
64.9606
 21
44.3733
  0
LINE
  8
0
 10
64.9606
 20
44.3733
 11
64.9901
 21
44.686
  0
LINE
  8
0
 10
64.9901
 20
44.686
 11
65
 21
45
  0
LINE
  8
0
 10
65
 20
45
 11
145
 21
45
  0
LINE
  8
0
 10
145
 20
45
 11
145.01
 21
44.686
  0
LINE
  8
0
 10
145.01
 20
44.686
 11
145.039
 21
44.3733
  0
LINE
  8
0
 10
145.039
 20
44.3733
 11
145.089
 21
44.0631
  0
LINE
  8
0
 10
145.089
 20
44.0631
 11
145.157
 21
43.7565
  0
LINE
  8
0
 10
145.157
 20
43.7565
 11
145.245
 21
43.4549
  0
LINE
  8
0
 10
145.245
 20
43.4549
 11
145.351
 21
43.1594
  0
LINE
  8
0
 10
145.351
 20
43.1594
 11
145.476
 21
42.8711
  0
LINE
  8
0
 10
145.476
 20
42.8711
 11
145.618
 21
42.5912
  0
LINE
  8
0
 10
145.618
 20
42.5912
 11
145.778
 21
42.3209
  0
LINE
  8
0
 10
145.778
 20
42.3209
 11
145.955
 21
42.0611
  0
LINE
  8
0
 10
145.955
 20
42.0611
 11
146.147
 21
41.8129
  0
LINE
  8
0
 10
146.147
 20
41.8129
 11
146.355
 21
41.5773
  0
LINE
  8
0
 10
146.355
 20
41.5773
 11
146.577
 21
41.3551
  0
LINE
  8
0
 10
146.577
 20
41.3551
 11
146.813
 21
41.1474
  0
LINE
  8
0
 10
146.813
 20
41.1474
 11
147.061
 21
40.9549
  0
LINE
  8
0
 10
147.061
 20
40.9549
 11
147.321
 21
40.7784
  0
LINE
  8
0
 10
147.321
 20
40.7784
 11
147.591
 21
40.6185
  0
LINE
  8
0
 10
147.591
 20
40.6185
 11
147.871
 21
40.4759
  0
LINE
  8
0
 10
147.871
 20
40.4759
 11
148.159
 21
40.3511
  0
LINE
  8
0
 10
148.159
 20
40.3511
 11
148.455
 21
40.2447
  0
LINE
  8
0
 10
148.455
 20
40.2447
 11
148.757
 21
40.1571
  0
LINE
  8
0
 10
148.757
 20
40.1571
 11
149.063
 21
40.0886
  0
LINE
  8
0
 10
149.063
 20
40.0886
 11
149.373
 21
40.0394
  0
LINE
  8
0
 10
149.373
 20
40.0394
 11
149.686
 21
40.0099
  0
LINE
  8
0
 10
149.686
 20
40.0099
 11
150
 21
40
  0
LINE
  8
0
 10
150
 20
40
 11
150
 21
-40
  0
LINE
  8
0
 10
150
 20
-40
 11
149.686
 21
-40.0099
  0
LINE
  8
0
 10
149.686
 20
-40.0099
 11
149.373
 21
-40.0394
  0
LINE
  8
0
 10
149.373
 20
-40.0394
 11
149.063
 21
-40.0886
  0
LINE
  8
0
 10
149.063
 20
-40.0886
 11
148.757
 21
-40.1571
  0
LINE
  8
0
 10
148.757
 20
-40.1571
 11
148.455
 21
-40.2447
  0
LINE
  8
0
 10
148.455
 20
-40.2447
 11
148.159
 21
-40.3511
  0
LINE
  8
0
 10
148.159
 20
-40.3511
 11
147.871
 21
-40.4759
  0
LINE
  8
0
 10
147.871
 20
-40.4759
 11
147.591
 21
-40.6185
  0
LINE
  8
0
 10
147.591
 20
-40.6185
 11
147.321
 21
-40.7784
  0
LINE
  8
0
 10
147.321
 20
-40.7784
 11
147.061
 21
-40.9549
  0
LINE
  8
0
 10
147.061
 20
-40.9549
 11
146.813
 21
-41.1474
  0
LINE
  8
0
 10
146.813
 20
-41.1474
 11
146.577
 21
-41.3551
  0
LINE
  8
0
 10
146.577
 20
-41.3551
 11
146.355
 21
-41.5773
  0
LINE
  8
0
 10
146.355
 20
-41.5773
 11
146.147
 21
-41.8129
  0
LINE
  8
0
 10
146.147
 20
-41.8129
 11
145.955
 21
-42.0611
  0
LINE
  8
0
 10
145.955
 20
-42.0611
 11
145.778
 21
-42.3209
  0
LINE
  8
0
 10
145.778
 20
-42.3209
 11
145.618
 21
-42.5912
  0
LINE
  8
0
 10
145.618
 20
-42.5912
 11
145.476
 21
-42.8711
  0
LINE
  8
0
 10
145.476
 20
-42.8711
 11
145.351
 21
-43.1594
  0
LINE
  8
0
 10
145.351
 20
-43.1594
 11
145.245
 21
-43.4549
  0
LINE
  8
0
 10
145.245
 20
-43.4549
 11
145.157
 21
-43.7565
  0
LINE
  8
0
 10
145.157
 20
-43.7565
 11
145.089
 21
-44.0631
  0
LINE
  8
0
 10
145.089
 20
-44.0631
 11
145.039
 21
-44.3733
  0
LINE
  8
0
 10
145.039
 20
-44.3733
 11
145.01
 21
-44.686
  0
LINE
  8
0
 10
145.01
 20
-44.686
 11
145
 21
-45
  0
LINE
  8
0
 10
145
 20
-45
 11
65
 21
-45
  0
LINE
  8
0
 10
59.8744
 20
-46.996
 11
59.7493
 21
-46.9842
  0
LINE
  8
0
 10
59.7493
 20
-46.9842
 11
59.6252
 21
-46.9646
  0
LINE
  8
0
 10
59.6252
 20
-46.9646
 11
59.5026
 21
-46.9372
  0
LINE
  8
0
 10
59.5026
 20
-46.9372
 11
59.382
 21
-46.9021
  0
LINE
  8
0
 10
59.382
 20
-46.9021
 11
59.2638
 21
-46.8595
  0
LINE
  8
0
 10
59.2638
 20
-46.8595
 11
59.1485
 21
-46.8096
  0
LINE
  8
0
 10
59.1485
 20
-46.8096
 11
59.0365
 21
-46.7526
  0
LINE
  8
0
 10
59.0365
 20
-46.7526
 11
58.9284
 21
-46.6886
  0
LINE
  8
0
 10
58.9284
 20
-46.6886
 11
58.8244
 21
-46.618
  0
LINE
  8
0
 10
58.8244
 20
-46.618
 11
58.7252
 21
-46.541
  0
LINE
  8
0
 10
58.7252
 20
-46.541
 11
58.6309
 21
-46.4579
  0
LINE
  8
0
 10
58.6309
 20
-46.4579
 11
58.5421
 21
-46.3691
  0
LINE
  8
0
 10
58.5421
 20
-46.3691
 11
58.459
 21
-46.2748
  0
LINE
  8
0
 10
58.459
 20
-46.2748
 11
58.382
 21
-46.1756
  0
LINE
  8
0
 10
58.382
 20
-46.1756
 11
58.3114
 21
-46.0716
  0
LINE
  8
0
 10
58.3114
 20
-46.0716
 11
58.2474
 21
-45.9635
  0
LINE
  8
0
 10
58.2474
 20
-45.9635
 11
58.1904
 21
-45.8515
  0
LINE
  8
0
 10
58.1904
 20
-45.8515
 11
58.1405
 21
-45.7362
  0
LINE
  8
0
 10
58.1405
 20
-45.7362
 11
58.0979
 21
-45.618
  0
LINE
  8
0
 10
58.0979
 20
-45.618
 11
58.0628
 21
-45.4974
  0
LINE
  8
0
 10
58.0628
 20
-45.4974
 11
58.0354
 21
-45.3748
  0
LINE
  8
0
 10
58.0354
 20
-45.3748
 11
58.0158
 21
-45.2507
  0
LINE
  8
0
 10
58.0158
 20
-45.2507
 11
58.004
 21
-45.1256
  0
LINE
  8
0
 10
58.004
 20
-45.1256
 11
58
 21
-45
  0
LINE
  8
0
 10
58
 20
-45
 11
58.004
 21
-44.8744
  0
LINE
  8
0
 10
58.004
 20
-44.8744
 11
58.0158
 21
-44.7493
  0
LINE
  8
0
 10
58.0158
 20
-44.7493
 11
58.0354
 21
-44.6252
  0
LINE
  8
0
 10
58.0354
 20
-44.6252
 11
58.0628
 21
-44.5026
  0
LINE
  8
0
 10
58.0628
 20
-44.5026
 11
58.0979
 21
-44.382
  0
LINE
  8
0
 10
58.0979
 20
-44.382
 11
58.1405
 21
-44.2637
  0
LINE
  8
0
 10
58.1405
 20
-44.2637
 11
58.1904
 21
-44.1484
  0
LINE
  8
0
 10
58.1904
 20
-44.1484
 11
58.2474
 21
-44.0365
  0
LINE
  8
0
 10
58.2474
 20
-44.0365
 11
58.3114
 21
-43.9283
  0
LINE
  8
0
 10
58.3114
 20
-43.9283
 11
58.382
 21
-43.8244
  0
LINE
  8
0
 10
58.382
 20
-43.8244
 11
58.459
 21
-43.7251
  0
LINE
  8
0
 10
58.459
 20
-43.7251
 11
58.5421
 21
-43.6309
  0
LINE
  8
0
 10
58.5421
 20
-43.6309
 11
58.6309
 21
-43.5421
  0
LINE
  8
0
 10
58.6309
 20
-43.5421
 11
58.7252
 21
-43.459
  0
LINE
  8
0
 10
58.7252
 20
-43.459
 11
58.8244
 21
-43.382
  0
LINE
  8
0
 10
58.8244
 20
-43.382
 11
58.9284
 21
-43.3113
  0
LINE
  8
0
 10
58.9284
 20
-43.3113
 11
59.0365
 21
-43.2474
  0
LINE
  8
0
 10
59.0365
 20
-43.2474
 11
59.1485
 21
-43.1903
  0
LINE
  8
0
 10
59.1485
 20
-43.1903
 11
59.2638
 21
-43.1404
  0
LINE
  8
0
 10
59.2638
 20
-43.1404
 11
59.382
 21
-43.0979
  0
LINE
  8
0
 10
59.382
 20
-43.0979
 11
59.5026
 21
-43.0628
  0
LINE
  8
0
 10
59.5026
 20
-43.0628
 11
59.6252
 21
-43.0354
  0
LINE
  8
0
 10
59.6252
 20
-43.0354
 11
59.7493
 21
-43.0158
  0
LINE
  8
0
 10
59.7493
 20
-43.0158
 11
59.8744
 21
-43.0039
  0
LINE
  8
0
 10
59.8744
 20
-43.0039
 11
60
 21
-43
  0
LINE
  8
0
 10
60
 20
-43
 11
60.1256
 21
-43.0039
  0
LINE
  8
0
 10
60.1256
 20
-43.0039
 11
60.2507
 21
-43.0158
  0
LINE
  8
0
 10
60.2507
 20
-43.0158
 11
60.3748
 21
-43.0354
  0
LINE
  8
0
 10
60.3748
 20
-43.0354
 11
60.4974
 21
-43.0628
  0
LINE
  8
0
 10
60.4974
 20
-43.0628
 11
60.618
 21
-43.0979
  0
LINE
  8
0
 10
60.618
 20
-43.0979
 11
60.7363
 21
-43.1404
  0
LINE
  8
0
 10
60.7363
 20
-43.1404
 11
60.8516
 21
-43.1903
  0
LINE
  8
0
 10
60.8516
 20
-43.1903
 11
60.9635
 21
-43.2474
  0
LINE
  8
0
 10
60.9635
 20
-43.2474
 11
61.0717
 21
-43.3113
  0
LINE
  8
0
 10
61.0717
 20
-43.3113
 11
61.1756
 21
-43.382
  0
LINE
  8
0
 10
61.1756
 20
-43.382
 11
61.2749
 21
-43.459
  0
LINE
  8
0
 10
61.2749
 20
-43.459
 11
61.3691
 21
-43.5421
  0
LINE
  8
0
 10
61.3691
 20
-43.5421
 11
61.4579
 21
-43.6309
  0
LINE
  8
0
 10
61.4579
 20
-43.6309
 11
61.541
 21
-43.7251
  0
LINE
  8
0
 10
61.541
 20
-43.7251
 11
61.618
 21
-43.8244
  0
LINE
  8
0
 10
61.618
 20
-43.8244
 11
61.6887
 21
-43.9283
  0
LINE
  8
0
 10
61.6887
 20
-43.9283
 11
61.7526
 21
-44.0365
  0
LINE
  8
0
 10
61.7526
 20
-44.0365
 11
61.8097
 21
-44.1484
  0
LINE
  8
0
 10
61.8097
 20
-44.1484
 11
61.8596
 21
-44.2637
  0
LINE
  8
0
 10
61.8596
 20
-44.2637
 11
61.9021
 21
-44.382
  0
LINE
  8
0
 10
61.9021
 20
-44.382
 11
61.9372
 21
-44.5026
  0
LINE
  8
0
 10
61.9372
 20
-44.5026
 11
61.9646
 21
-44.6252
  0
LINE
  8
0
 10
61.9646
 20
-44.6252
 11
61.9842
 21
-44.7493
  0
LINE
  8
0
 10
61.9842
 20
-44.7493
 11
61.9961
 21
-44.8744
  0
LINE
  8
0
 10
61.9961
 20
-44.8744
 11
62
 21
-45
  0
LINE
  8
0
 10
62
 20
-45
 11
61.9961
 21
-45.1256
  0
LINE
  8
0
 10
61.9961
 20
-45.1256
 11
61.9842
 21
-45.2507
  0
LINE
  8
0
 10
61.9842
 20
-45.2507
 11
61.9646
 21
-45.3748
  0
LINE
  8
0
 10
61.9646
 20
-45.3748
 11
61.9372
 21
-45.4974
  0
LINE
  8
0
 10
61.9372
 20
-45.4974
 11
61.9021
 21
-45.618
  0
LINE
  8
0
 10
61.9021
 20
-45.618
 11
61.8596
 21
-45.7362
  0
LINE
  8
0
 10
61.8596
 20
-45.7362
 11
61.8097
 21
-45.8515
  0
LINE
  8
0
 10
61.8097
 20
-45.8515
 11
61.7526
 21
-45.9635
  0
LINE
  8
0
 10
61.7526
 20
-45.9635
 11
61.6887
 21
-46.0716
  0
LINE
  8
0
 10
61.6887
 20
-46.0716
 11
61.618
 21
-46.1756
  0
LINE
  8
0
 10
61.618
 20
-46.1756
 11
61.541
 21
-46.2748
  0
LINE
  8
0
 10
61.541
 20
-46.2748
 11
61.4579
 21
-46.3691
  0
LINE
  8
0
 10
61.4579
 20
-46.3691
 11
61.3691
 21
-46.4579
  0
LINE
  8
0
 10
61.3691
 20
-46.4579
 11
61.2749
 21
-46.541
  0
LINE
  8
0
 10
61.2749
 20
-46.541
 11
61.1756
 21
-46.618
  0
LINE
  8
0
 10
61.1756
 20
-46.618
 11
61.0717
 21
-46.6886
  0
LINE
  8
0
 10
61.0717
 20
-46.6886
 11
60.9635
 21
-46.7526
  0
LINE
  8
0
 10
60.9635
 20
-46.7526
 11
60.8516
 21
-46.8096
  0
LINE
  8
0
 10
60.8516
 20
-46.8096
 11
60.7363
 21
-46.8595
  0
LINE
  8
0
 10
60.7363
 20
-46.8595
 11
60.618
 21
-46.9021
  0
LINE
  8
0
 10
60.618
 20
-46.9021
 11
60.4974
 21
-46.9372
  0
LINE
  8
0
 10
60.4974
 20
-46.9372
 11
60.3748
 21
-46.9646
  0
LINE
  8
0
 10
60.3748
 20
-46.9646
 11
60.2507
 21
-46.9842
  0
LINE
  8
0
 10
60.2507
 20
-46.9842
 11
60.1256
 21
-46.996
  0
LINE
  8
0
 10
60.1256
 20
-46.996
 11
60
 21
-47
  0
LINE
  8
0
 10
60
 20
-47
 11
59.8744
 21
-46.996
  0
LINE
  8
0
 10
149.874
 20
-46.996
 11
149.749
 21
-46.9842
  0
LINE
  8
0
 10
149.749
 20
-46.9842
 11
149.625
 21
-46.9646
  0
LINE
  8
0
 10
149.625
 20
-46.9646
 11
149.503
 21
-46.9372
  0
LINE
  8
0
 10
149.503
 20
-46.9372
 11
149.382
 21
-46.9021
  0
LINE
  8
0
 10
149.382
 20
-46.9021
 11
149.264
 21
-46.8595
  0
LINE
  8
0
 10
149.264
 20
-46.8595
 11
149.148
 21
-46.8096
  0
LINE
  8
0
 10
149.148
 20
-46.8096
 11
149.036
 21
-46.7526
  0
LINE
  8
0
 10
149.036
 20
-46.7526
 11
148.928
 21
-46.6886
  0
LINE
  8
0
 10
148.928
 20
-46.6886
 11
148.824
 21
-46.618
  0
LINE
  8
0
 10
148.824
 20
-46.618
 11
148.725
 21
-46.541
  0
LINE
  8
0
 10
148.725
 20
-46.541
 11
148.631
 21
-46.4579
  0
LINE
  8
0
 10
148.631
 20
-46.4579
 11
148.542
 21
-46.3691
  0
LINE
  8
0
 10
148.542
 20
-46.3691
 11
148.459
 21
-46.2748
  0
LINE
  8
0
 10
148.459
 20
-46.2748
 11
148.382
 21
-46.1756
  0
LINE
  8
0
 10
148.382
 20
-46.1756
 11
148.311
 21
-46.0716
  0
LINE
  8
0
 10
148.311
 20
-46.0716
 11
148.247
 21
-45.9635
  0
LINE
  8
0
 10
148.247
 20
-45.9635
 11
148.19
 21
-45.8515
  0
LINE
  8
0
 10
148.19
 20
-45.8515
 11
148.14
 21
-45.7362
  0
LINE
  8
0
 10
148.14
 20
-45.7362
 11
148.098
 21
-45.618
  0
LINE
  8
0
 10
148.098
 20
-45.618
 11
148.063
 21
-45.4974
  0
LINE
  8
0
 10
148.063
 20
-45.4974
 11
148.035
 21
-45.3748
  0
LINE
  8
0
 10
148.035
 20
-45.3748
 11
148.016
 21
-45.2507
  0
LINE
  8
0
 10
148.016
 20
-45.2507
 11
148.004
 21
-45.1256
  0
LINE
  8
0
 10
148.004
 20
-45.1256
 11
148
 21
-45
  0
LINE
  8
0
 10
148
 20
-45
 11
148.004
 21
-44.8744
  0
LINE
  8
0
 10
148.004
 20
-44.8744
 11
148.016
 21
-44.7493
  0
LINE
  8
0
 10
148.016
 20
-44.7493
 11
148.035
 21
-44.6252
  0
LINE
  8
0
 10
148.035
 20
-44.6252
 11
148.063
 21
-44.5026
  0
LINE
  8
0
 10
148.063
 20
-44.5026
 11
148.098
 21
-44.382
  0
LINE
  8
0
 10
148.098
 20
-44.382
 11
148.14
 21
-44.2637
  0
LINE
  8
0
 10
148.14
 20
-44.2637
 11
148.19
 21
-44.1484
  0
LINE
  8
0
 10
148.19
 20
-44.1484
 11
148.247
 21
-44.0365
  0
LINE
  8
0
 10
148.247
 20
-44.0365
 11
148.311
 21
-43.9283
  0
LINE
  8
0
 10
148.311
 20
-43.9283
 11
148.382
 21
-43.8244
  0
LINE
  8
0
 10
148.382
 20
-43.8244
 11
148.459
 21
-43.7251
  0
LINE
  8
0
 10
148.459
 20
-43.7251
 11
148.542
 21
-43.6309
  0
LINE
  8
0
 10
148.542
 20
-43.6309
 11
148.631
 21
-43.5421
  0
LINE
  8
0
 10
148.631
 20
-43.5421
 11
148.725
 21
-43.459
  0
LINE
  8
0
 10
148.725
 20
-43.459
 11
148.824
 21
-43.382
  0
LINE
  8
0
 10
148.824
 20
-43.382
 11
148.928
 21
-43.3113
  0
LINE
  8
0
 10
148.928
 20
-43.3113
 11
149.036
 21
-43.2474
  0
LINE
  8
0
 10
149.036
 20
-43.2474
 11
149.148
 21
-43.1903
  0
LINE
  8
0
 10
149.148
 20
-43.1903
 11
149.264
 21
-43.1404
  0
LINE
  8
0
 10
149.264
 20
-43.1404
 11
149.382
 21
-43.0979
  0
LINE
  8
0
 10
149.382
 20
-43.0979
 11
149.503
 21
-43.0628
  0
LINE
  8
0
 10
149.503
 20
-43.0628
 11
149.625
 21
-43.0354
  0
LINE
  8
0
 10
149.625
 20
-43.0354
 11
149.749
 21
-43.0158
  0
LINE
  8
0
 10
149.749
 20
-43.0158
 11
149.874
 21
-43.0039
  0
LINE
  8
0
 10
149.874
 20
-43.0039
 11
150
 21
-43
  0
LINE
  8
0
 10
150
 20
-43
 11
150.126
 21
-43.0039
  0
LINE
  8
0
 10
150.126
 20
-43.0039
 11
150.251
 21
-43.0158
  0
LINE
  8
0
 10
150.251
 20
-43.0158
 11
150.375
 21
-43.0354
  0
LINE
  8
0
 10
150.375
 20
-43.0354
 11
150.497
 21
-43.0628
  0
LINE
  8
0
 10
150.497
 20
-43.0628
 11
150.618
 21
-43.0979
  0
LINE
  8
0
 10
150.618
 20
-43.0979
 11
150.736
 21
-43.1404
  0
LINE
  8
0
 10
150.736
 20
-43.1404
 11
150.852
 21
-43.1903
  0
LINE
  8
0
 10
150.852
 20
-43.1903
 11
150.964
 21
-43.2474
  0
LINE
  8
0
 10
150.964
 20
-43.2474
 11
151.072
 21
-43.3113
  0
LINE
  8
0
 10
151.072
 20
-43.3113
 11
151.176
 21
-43.382
  0
LINE
  8
0
 10
151.176
 20
-43.382
 11
151.275
 21
-43.459
  0
LINE
  8
0
 10
151.275
 20
-43.459
 11
151.369
 21
-43.5421
  0
LINE
  8
0
 10
151.369
 20
-43.5421
 11
151.458
 21
-43.6309
  0
LINE
  8
0
 10
151.458
 20
-43.6309
 11
151.541
 21
-43.7251
  0
LINE
  8
0
 10
151.541
 20
-43.7251
 11
151.618
 21
-43.8244
  0
LINE
  8
0
 10
151.618
 20
-43.8244
 11
151.689
 21
-43.9283
  0
LINE
  8
0
 10
151.689
 20
-43.9283
 11
151.753
 21
-44.0365
  0
LINE
  8
0
 10
151.753
 20
-44.0365
 11
151.81
 21
-44.1484
  0
LINE
  8
0
 10
151.81
 20
-44.1484
 11
151.86
 21
-44.2637
  0
LINE
  8
0
 10
151.86
 20
-44.2637
 11
151.902
 21
-44.382
  0
LINE
  8
0
 10
151.902
 20
-44.382
 11
151.937
 21
-44.5026
  0
LINE
  8
0
 10
151.937
 20
-44.5026
 11
151.965
 21
-44.6252
  0
LINE
  8
0
 10
151.965
 20
-44.6252
 11
151.984
 21
-44.7493
  0
LINE
  8
0
 10
151.984
 20
-44.7493
 11
151.996
 21
-44.8744
  0
LINE
  8
0
 10
151.996
 20
-44.8744
 11
152
 21
-45
  0
LINE
  8
0
 10
152
 20
-45
 11
151.996
 21
-45.1256
  0
LINE
  8
0
 10
151.996
 20
-45.1256
 11
151.984
 21
-45.2507
  0
LINE
  8
0
 10
151.984
 20
-45.2507
 11
151.965
 21
-45.3748
  0
LINE
  8
0
 10
151.965
 20
-45.3748
 11
151.937
 21
-45.4974
  0
LINE
  8
0
 10
151.937
 20
-45.4974
 11
151.902
 21
-45.618
  0
LINE
  8
0
 10
151.902
 20
-45.618
 11
151.86
 21
-45.7362
  0
LINE
  8
0
 10
151.86
 20
-45.7362
 11
151.81
 21
-45.8515
  0
LINE
  8
0
 10
151.81
 20
-45.8515
 11
151.753
 21
-45.9635
  0
LINE
  8
0
 10
151.753
 20
-45.9635
 11
151.689
 21
-46.0716
  0
LINE
  8
0
 10
151.689
 20
-46.0716
 11
151.618
 21
-46.1756
  0
LINE
  8
0
 10
151.618
 20
-46.1756
 11
151.541
 21
-46.2748
  0
LINE
  8
0
 10
151.541
 20
-46.2748
 11
151.458
 21
-46.3691
  0
LINE
  8
0
 10
151.458
 20
-46.3691
 11
151.369
 21
-46.4579
  0
LINE
  8
0
 10
151.369
 20
-46.4579
 11
151.275
 21
-46.541
  0
LINE
  8
0
 10
151.275
 20
-46.541
 11
151.176
 21
-46.618
  0
LINE
  8
0
 10
151.176
 20
-46.618
 11
151.072
 21
-46.6886
  0
LINE
  8
0
 10
151.072
 20
-46.6886
 11
150.964
 21
-46.7526
  0
LINE
  8
0
 10
150.964
 20
-46.7526
 11
150.852
 21
-46.8096
  0
LINE
  8
0
 10
150.852
 20
-46.8096
 11
150.736
 21
-46.8595
  0
LINE
  8
0
 10
150.736
 20
-46.8595
 11
150.618
 21
-46.9021
  0
LINE
  8
0
 10
150.618
 20
-46.9021
 11
150.497
 21
-46.9372
  0
LINE
  8
0
 10
150.497
 20
-46.9372
 11
150.375
 21
-46.9646
  0
LINE
  8
0
 10
150.375
 20
-46.9646
 11
150.251
 21
-46.9842
  0
LINE
  8
0
 10
150.251
 20
-46.9842
 11
150.126
 21
-46.996
  0
LINE
  8
0
 10
150.126
 20
-46.996
 11
150
 21
-47
  0
LINE
  8
0
 10
150
 20
-47
 11
149.874
 21
-46.996
  0
LINE
  8
0
 10
199
 20
-45
 11
170
 21
-45
  0
LINE
  8
0
 10
170
 20
-45
 11
169.99
 21
-44.686
  0
LINE
  8
0
 10
169.99
 20
-44.686
 11
169.961
 21
-44.3733
  0
LINE
  8
0
 10
169.961
 20
-44.3733
 11
169.911
 21
-44.0631
  0
LINE
  8
0
 10
169.911
 20
-44.0631
 11
169.843
 21
-43.7565
  0
LINE
  8
0
 10
169.843
 20
-43.7565
 11
169.755
 21
-43.4549
  0
LINE
  8
0
 10
169.755
 20
-43.4549
 11
169.649
 21
-43.1594
  0
LINE
  8
0
 10
169.649
 20
-43.1594
 11
169.524
 21
-42.8711
  0
LINE
  8
0
 10
169.524
 20
-42.8711
 11
169.382
 21
-42.5912
  0
LINE
  8
0
 10
169.382
 20
-42.5912
 11
169.222
 21
-42.3209
  0
LINE
  8
0
 10
169.222
 20
-42.3209
 11
169.045
 21
-42.0611
  0
LINE
  8
0
 10
169.045
 20
-42.0611
 11
168.853
 21
-41.8129
  0
LINE
  8
0
 10
168.853
 20
-41.8129
 11
168.645
 21
-41.5773
  0
LINE
  8
0
 10
168.645
 20
-41.5773
 11
168.423
 21
-41.3551
  0
LINE
  8
0
 10
168.423
 20
-41.3551
 11
168.187
 21
-41.1474
  0
LINE
  8
0
 10
168.187
 20
-41.1474
 11
167.939
 21
-40.9549
  0
LINE
  8
0
 10
167.939
 20
-40.9549
 11
167.679
 21
-40.7784
  0
LINE
  8
0
 10
167.679
 20
-40.7784
 11
167.409
 21
-40.6185
  0
LINE
  8
0
 10
167.409
 20
-40.6185
 11
167.129
 21
-40.4759
  0
LINE
  8
0
 10
167.129
 20
-40.4759
 11
166.841
 21
-40.3511
  0
LINE
  8
0
 10
166.841
 20
-40.3511
 11
166.545
 21
-40.2447
  0
LINE
  8
0
 10
166.545
 20
-40.2447
 11
166.243
 21
-40.1571
  0
LINE
  8
0
 10
166.243
 20
-40.1571
 11
165.937
 21
-40.0886
  0
LINE
  8
0
 10
165.937
 20
-40.0886
 11
165.627
 21
-40.0394
  0
LINE
  8
0
 10
165.627
 20
-40.0394
 11
165.314
 21
-40.0099
  0
LINE
  8
0
 10
165.314
 20
-40.0099
 11
165
 21
-40
  0
LINE
  8
0
 10
165
 20
-40
 11
165
 21
40
  0
LINE
  8
0
 10
165
 20
40
 11
165.314
 21
40.0099
  0
LINE
  8
0
 10
165.314
 20
40.0099
 11
165.627
 21
40.0394
  0
LINE
  8
0
 10
165.627
 20
40.0394
 11
165.937
 21
40.0886
  0
LINE
  8
0
 10
165.937
 20
40.0886
 11
166.243
 21
40.1571
  0
LINE
  8
0
 10
166.243
 20
40.1571
 11
166.545
 21
40.2447
  0
LINE
  8
0
 10
166.545
 20
40.2447
 11
166.841
 21
40.3511
  0
LINE
  8
0
 10
166.841
 20
40.3511
 11
167.129
 21
40.4759
  0
LINE
  8
0
 10
167.129
 20
40.4759
 11
167.409
 21
40.6185
  0
LINE
  8
0
 10
167.409
 20
40.6185
 11
167.679
 21
40.7784
  0
LINE
  8
0
 10
167.679
 20
40.7784
 11
167.939
 21
40.9549
  0
LINE
  8
0
 10
167.939
 20
40.9549
 11
168.187
 21
41.1474
  0
LINE
  8
0
 10
168.187
 20
41.1474
 11
168.423
 21
41.3551
  0
LINE
  8
0
 10
168.423
 20
41.3551
 11
168.645
 21
41.5773
  0
LINE
  8
0
 10
168.645
 20
41.5773
 11
168.853
 21
41.8129
  0
LINE
  8
0
 10
168.853
 20
41.8129
 11
169.045
 21
42.0611
  0
LINE
  8
0
 10
169.045
 20
42.0611
 11
169.222
 21
42.3209
  0
LINE
  8
0
 10
169.222
 20
42.3209
 11
169.382
 21
42.5912
  0
LINE
  8
0
 10
169.382
 20
42.5912
 11
169.524
 21
42.8711
  0
LINE
  8
0
 10
169.524
 20
42.8711
 11
169.649
 21
43.1594
  0
LINE
  8
0
 10
169.649
 20
43.1594
 11
169.755
 21
43.4549
  0
LINE
  8
0
 10
169.755
 20
43.4549
 11
169.843
 21
43.7565
  0
LINE
  8
0
 10
169.843
 20
43.7565
 11
169.911
 21
44.0631
  0
LINE
  8
0
 10
169.911
 20
44.0631
 11
169.961
 21
44.3733
  0
LINE
  8
0
 10
169.961
 20
44.3733
 11
169.99
 21
44.686
  0
LINE
  8
0
 10
169.99
 20
44.686
 11
170
 21
45
  0
LINE
  8
0
 10
170
 20
45
 11
250
 21
45
  0
LINE
  8
0
 10
250
 20
45
 11
250.01
 21
44.686
  0
LINE
  8
0
 10
250.01
 20
44.686
 11
250.039
 21
44.3733
  0
LINE
  8
0
 10
250.039
 20
44.3733
 11
250.089
 21
44.0631
  0
LINE
  8
0
 10
250.089
 20
44.0631
 11
250.157
 21
43.7565
  0
LINE
  8
0
 10
250.157
 20
43.7565
 11
250.245
 21
43.4549
  0
LINE
  8
0
 10
250.245
 20
43.4549
 11
250.351
 21
43.1594
  0
LINE
  8
0
 10
250.351
 20
43.1594
 11
250.476
 21
42.8711
  0
LINE
  8
0
 10
250.476
 20
42.8711
 11
250.618
 21
42.5912
  0
LINE
  8
0
 10
250.618
 20
42.5912
 11
250.778
 21
42.3209
  0
LINE
  8
0
 10
250.778
 20
42.3209
 11
250.955
 21
42.0611
  0
LINE
  8
0
 10
250.955
 20
42.0611
 11
251.147
 21
41.8129
  0
LINE
  8
0
 10
251.147
 20
41.8129
 11
251.355
 21
41.5773
  0
LINE
  8
0
 10
251.355
 20
41.5773
 11
251.577
 21
41.3551
  0
LINE
  8
0
 10
251.577
 20
41.3551
 11
251.813
 21
41.1474
  0
LINE
  8
0
 10
251.813
 20
41.1474
 11
252.061
 21
40.9549
  0
LINE
  8
0
 10
252.061
 20
40.9549
 11
252.321
 21
40.7784
  0
LINE
  8
0
 10
252.321
 20
40.7784
 11
252.591
 21
40.6185
  0
LINE
  8
0
 10
252.591
 20
40.6185
 11
252.871
 21
40.4759
  0
LINE
  8
0
 10
252.871
 20
40.4759
 11
253.159
 21
40.3511
  0
LINE
  8
0
 10
253.159
 20
40.3511
 11
253.455
 21
40.2447
  0
LINE
  8
0
 10
253.455
 20
40.2447
 11
253.757
 21
40.1571
  0
LINE
  8
0
 10
253.757
 20
40.1571
 11
254.063
 21
40.0886
  0
LINE
  8
0
 10
254.063
 20
40.0886
 11
254.373
 21
40.0394
  0
LINE
  8
0
 10
254.373
 20
40.0394
 11
254.686
 21
40.0099
  0
LINE
  8
0
 10
254.686
 20
40.0099
 11
255
 21
40
  0
LINE
  8
0
 10
255
 20
40
 11
255
 21
-40
  0
LINE
  8
0
 10
255
 20
-40
 11
254.686
 21
-40.0099
  0
LINE
  8
0
 10
254.686
 20
-40.0099
 11
254.373
 21
-40.0394
  0
LINE
  8
0
 10
254.373
 20
-40.0394
 11
254.063
 21
-40.0886
  0
LINE
  8
0
 10
254.063
 20
-40.0886
 11
253.757
 21
-40.1571
  0
LINE
  8
0
 10
253.757
 20
-40.1571
 11
253.455
 21
-40.2447
  0
LINE
  8
0
 10
253.455
 20
-40.2447
 11
253.159
 21
-40.3511
  0
LINE
  8
0
 10
253.159
 20
-40.3511
 11
252.871
 21
-40.4759
  0
LINE
  8
0
 10
252.871
 20
-40.4759
 11
252.591
 21
-40.6185
  0
LINE
  8
0
 10
252.591
 20
-40.6185
 11
252.321
 21
-40.7784
  0
LINE
  8
0
 10
252.321
 20
-40.7784
 11
252.061
 21
-40.9549
  0
LINE
  8
0
 10
252.061
 20
-40.9549
 11
251.813
 21
-41.1474
  0
LINE
  8
0
 10
251.813
 20
-41.1474
 11
251.577
 21
-41.3551
  0
LINE
  8
0
 10
251.577
 20
-41.3551
 11
251.355
 21
-41.5773
  0
LINE
  8
0
 10
251.355
 20
-41.5773
 11
251.147
 21
-41.8129
  0
LINE
  8
0
 10
251.147
 20
-41.8129
 11
250.955
 21
-42.0611
  0
LINE
  8
0
 10
250.955
 20
-42.0611
 11
250.778
 21
-42.3209
  0
LINE
  8
0
 10
250.778
 20
-42.3209
 11
250.618
 21
-42.5912
  0
LINE
  8
0
 10
250.618
 20
-42.5912
 11
250.476
 21
-42.8711
  0
LINE
  8
0
 10
250.476
 20
-42.8711
 11
250.351
 21
-43.1594
  0
LINE
  8
0
 10
250.351
 20
-43.1594
 11
250.245
 21
-43.4549
  0
LINE
  8
0
 10
250.245
 20
-43.4549
 11
250.157
 21
-43.7565
  0
LINE
  8
0
 10
250.157
 20
-43.7565
 11
250.089
 21
-44.0631
  0
LINE
  8
0
 10
250.089
 20
-44.0631
 11
250.039
 21
-44.3733
  0
LINE
  8
0
 10
250.039
 20
-44.3733
 11
250.01
 21
-44.686
  0
LINE
  8
0
 10
250.01
 20
-44.686
 11
250
 21
-45
  0
LINE
  8
0
 10
250
 20
-45
 11
221
 21
-45
  0
LINE
  8
0
 10
221
 20
-45
 11
221
 21
-50
  0
LINE
  8
0
 10
221
 20
-50
 11
256
 21
-50
  0
LINE
  8
0
 10
256
 20
-50
 11
256.251
 21
-49.9921
  0
LINE
  8
0
 10
256.251
 20
-49.9921
 11
256.501
 21
-49.9684
  0
LINE
  8
0
 10
256.501
 20
-49.9684
 11
256.75
 21
-49.9291
  0
LINE
  8
0
 10
256.75
 20
-49.9291
 11
256.995
 21
-49.8743
  0
LINE
  8
0
 10
256.995
 20
-49.8743
 11
257.236
 21
-49.8042
  0
LINE
  8
0
 10
257.236
 20
-49.8042
 11
257.472
 21
-49.7191
  0
LINE
  8
0
 10
257.472
 20
-49.7191
 11
257.703
 21
-49.6193
  0
LINE
  8
0
 10
257.703
 20
-49.6193
 11
257.927
 21
-49.5052
  0
LINE
  8
0
 10
257.927
 20
-49.5052
 11
258.143
 21
-49.3773
  0
LINE
  8
0
 10
258.143
 20
-49.3773
 11
258.351
 21
-49.2361
  0
LINE
  8
0
 10
258.351
 20
-49.2361
 11
258.55
 21
-49.082
  0
LINE
  8
0
 10
258.55
 20
-49.082
 11
258.738
 21
-48.9159
  0
LINE
  8
0
 10
258.738
 20
-48.9159
 11
258.916
 21
-48.7382
  0
LINE
  8
0
 10
258.916
 20
-48.7382
 11
259.082
 21
-48.5497
  0
LINE
  8
0
 10
259.082
 20
-48.5497
 11
259.236
 21
-48.3511
  0
LINE
  8
0
 10
259.236
 20
-48.3511
 11
259.377
 21
-48.1433
  0
LINE
  8
0
 10
259.377
 20
-48.1433
 11
259.505
 21
-47.927
  0
LINE
  8
0
 10
259.505
 20
-47.927
 11
259.619
 21
-47.7031
  0
LINE
  8
0
 10
259.619
 20
-47.7031
 11
259.719
 21
-47.4725
  0
LINE
  8
0
 10
259.719
 20
-47.4725
 11
259.804
 21
-47.2361
  0
LINE
  8
0
 10
259.804
 20
-47.2361
 11
259.874
 21
-46.9948
  0
LINE
  8
0
 10
259.874
 20
-46.9948
 11
259.929
 21
-46.7495
  0
LINE
  8
0
 10
259.929
 20
-46.7495
 11
259.968
 21
-46.5013
  0
LINE
  8
0
 10
259.968
 20
-46.5013
 11
259.992
 21
-46.2512
  0
LINE
  8
0
 10
259.992
 20
-46.2512
 11
260
 21
-46
  0
LINE
  8
0
 10
260
 20
-46
 11
260
 21
46
  0
LINE
  8
0
 10
260
 20
46
 11
259.992
 21
46.2512
  0
LINE
  8
0
 10
259.992
 20
46.2512
 11
259.968
 21
46.5013
  0
LINE
  8
0
 10
259.968
 20
46.5013
 11
259.929
 21
46.7495
  0
LINE
  8
0
 10
259.929
 20
46.7495
 11
259.874
 21
46.9948
  0
LINE
  8
0
 10
259.874
 20
46.9948
 11
259.804
 21
47.2361
  0
LINE
  8
0
 10
259.804
 20
47.2361
 11
259.719
 21
47.4725
  0
LINE
  8
0
 10
259.719
 20
47.4725
 11
259.619
 21
47.7031
  0
LINE
  8
0
 10
259.619
 20
47.7031
 11
259.505
 21
47.927
  0
LINE
  8
0
 10
259.505
 20
47.927
 11
259.377
 21
48.1433
  0
LINE
  8
0
 10
259.377
 20
48.1433
 11
259.236
 21
48.3511
  0
LINE
  8
0
 10
259.236
 20
48.3511
 11
259.082
 21
48.5497
  0
LINE
  8
0
 10
259.082
 20
48.5497
 11
258.916
 21
48.7382
  0
LINE
  8
0
 10
258.916
 20
48.7382
 11
258.738
 21
48.9159
  0
LINE
  8
0
 10
258.738
 20
48.9159
 11
258.55
 21
49.082
  0
LINE
  8
0
 10
258.55
 20
49.082
 11
258.351
 21
49.2361
  0
LINE
  8
0
 10
258.351
 20
49.2361
 11
258.143
 21
49.3773
  0
LINE
  8
0
 10
258.143
 20
49.3773
 11
257.927
 21
49.5052
  0
LINE
  8
0
 10
257.927
 20
49.5052
 11
257.703
 21
49.6193
  0
LINE
  8
0
 10
257.703
 20
49.6193
 11
257.472
 21
49.7191
  0
LINE
  8
0
 10
257.472
 20
49.7191
 11
257.236
 21
49.8042
  0
LINE
  8
0
 10
257.236
 20
49.8042
 11
256.995
 21
49.8743
  0
LINE
  8
0
 10
256.995
 20
49.8743
 11
256.75
 21
49.9291
  0
LINE
  8
0
 10
256.75
 20
49.9291
 11
256.501
 21
49.9684
  0
LINE
  8
0
 10
256.501
 20
49.9684
 11
256.251
 21
49.9921
  0
LINE
  8
0
 10
256.251
 20
49.9921
 11
256
 21
50
  0
LINE
  8
0
 10
256
 20
50
 11
164
 21
50
  0
LINE
  8
0
 10
164
 20
50
 11
163.749
 21
49.9921
  0
LINE
  8
0
 10
163.749
 20
49.9921
 11
163.499
 21
49.9684
  0
LINE
  8
0
 10
163.499
 20
49.9684
 11
163.25
 21
49.9291
  0
LINE
  8
0
 10
163.25
 20
49.9291
 11
163.005
 21
49.8743
  0
LINE
  8
0
 10
163.005
 20
49.8743
 11
162.764
 21
49.8042
  0
LINE
  8
0
 10
162.764
 20
49.8042
 11
162.528
 21
49.7191
  0
LINE
  8
0
 10
162.528
 20
49.7191
 11
162.297
 21
49.6193
  0
LINE
  8
0
 10
162.297
 20
49.6193
 11
162.073
 21
49.5052
  0
LINE
  8
0
 10
162.073
 20
49.5052
 11
161.857
 21
49.3773
  0
LINE
  8
0
 10
161.857
 20
49.3773
 11
161.649
 21
49.2361
  0
LINE
  8
0
 10
161.649
 20
49.2361
 11
161.45
 21
49.082
  0
LINE
  8
0
 10
161.45
 20
49.082
 11
161.262
 21
48.9159
  0
LINE
  8
0
 10
161.262
 20
48.9159
 11
161.084
 21
48.7382
  0
LINE
  8
0
 10
161.084
 20
48.7382
 11
160.918
 21
48.5497
  0
LINE
  8
0
 10
160.918
 20
48.5497
 11
160.764
 21
48.3511
  0
LINE
  8
0
 10
160.764
 20
48.3511
 11
160.623
 21
48.1433
  0
LINE
  8
0
 10
160.623
 20
48.1433
 11
160.495
 21
47.927
  0
LINE
  8
0
 10
160.495
 20
47.927
 11
160.381
 21
47.7031
  0
LINE
  8
0
 10
160.381
 20
47.7031
 11
160.281
 21
47.4725
  0
LINE
  8
0
 10
160.281
 20
47.4725
 11
160.196
 21
47.2361
  0
LINE
  8
0
 10
160.196
 20
47.2361
 11
160.126
 21
46.9948
  0
LINE
  8
0
 10
160.126
 20
46.9948
 11
160.071
 21
46.7495
  0
LINE
  8
0
 10
160.071
 20
46.7495
 11
160.032
 21
46.5013
  0
LINE
  8
0
 10
160.032
 20
46.5013
 11
160.008
 21
46.2512
  0
LINE
  8
0
 10
160.008
 20
46.2512
 11
160
 21
46
  0
LINE
  8
0
 10
160
 20
46
 11
160
 21
-46
  0
LINE
  8
0
 10
160
 20
-46
 11
160.008
 21
-46.2512
  0
LINE
  8
0
 10
160.008
 20
-46.2512
 11
160.032
 21
-46.5013
  0
LINE
  8
0
 10
160.032
 20
-46.5013
 11
160.071
 21
-46.7495
  0
LINE
  8
0
 10
160.071
 20
-46.7495
 11
160.126
 21
-46.9948
  0
LINE
  8
0
 10
160.126
 20
-46.9948
 11
160.196
 21
-47.2361
  0
LINE
  8
0
 10
160.196
 20
-47.2361
 11
160.281
 21
-47.4725
  0
LINE
  8
0
 10
160.281
 20
-47.4725
 11
160.381
 21
-47.7031
  0
LINE
  8
0
 10
160.381
 20
-47.7031
 11
160.495
 21
-47.927
  0
LINE
  8
0
 10
160.495
 20
-47.927
 11
160.623
 21
-48.1433
  0
LINE
  8
0
 10
160.623
 20
-48.1433
 11
160.764
 21
-48.3511
  0
LINE
  8
0
 10
160.764
 20
-48.3511
 11
160.918
 21
-48.5497
  0
LINE
  8
0
 10
160.918
 20
-48.5497
 11
161.084
 21
-48.7382
  0
LINE
  8
0
 10
161.084
 20
-48.7382
 11
161.262
 21
-48.9159
  0
LINE
  8
0
 10
161.262
 20
-48.9159
 11
161.45
 21
-49.082
  0
LINE
  8
0
 10
161.45
 20
-49.082
 11
161.649
 21
-49.2361
  0
LINE
  8
0
 10
161.649
 20
-49.2361
 11
161.857
 21
-49.3773
  0
LINE
  8
0
 10
161.857
 20
-49.3773
 11
162.073
 21
-49.5052
  0
LINE
  8
0
 10
162.073
 20
-49.5052
 11
162.297
 21
-49.6193
  0
LINE
  8
0
 10
162.297
 20
-49.6193
 11
162.528
 21
-49.7191
  0
LINE
  8
0
 10
162.528
 20
-49.7191
 11
162.764
 21
-49.8042
  0
LINE
  8
0
 10
162.764
 20
-49.8042
 11
163.005
 21
-49.8743
  0
LINE
  8
0
 10
163.005
 20
-49.8743
 11
163.25
 21
-49.9291
  0
LINE
  8
0
 10
163.25
 20
-49.9291
 11
163.499
 21
-49.9684
  0
LINE
  8
0
 10
163.499
 20
-49.9684
 11
163.749
 21
-49.9921
  0
LINE
  8
0
 10
163.749
 20
-49.9921
 11
164
 21
-50
  0
LINE
  8
0
 10
164
 20
-50
 11
199
 21
-50
  0
LINE
  8
0
 10
199
 20
-50
 11
199
 21
-45
  0
LINE
  8
0
 10
164.874
 20
43.0039
 11
164.749
 21
43.0158
  0
LINE
  8
0
 10
164.749
 20
43.0158
 11
164.625
 21
43.0354
  0
LINE
  8
0
 10
164.625
 20
43.0354
 11
164.503
 21
43.0628
  0
LINE
  8
0
 10
164.503
 20
43.0628
 11
164.382
 21
43.0979
  0
LINE
  8
0
 10
164.382
 20
43.0979
 11
164.264
 21
43.1404
  0
LINE
  8
0
 10
164.264
 20
43.1404
 11
164.148
 21
43.1903
  0
LINE
  8
0
 10
164.148
 20
43.1903
 11
164.036
 21
43.2474
  0
LINE
  8
0
 10
164.036
 20
43.2474
 11
163.928
 21
43.3113
  0
LINE
  8
0
 10
163.928
 20
43.3113
 11
163.824
 21
43.382
  0
LINE
  8
0
 10
163.824
 20
43.382
 11
163.725
 21
43.459
  0
LINE
  8
0
 10
163.725
 20
43.459
 11
163.631
 21
43.5421
  0
LINE
  8
0
 10
163.631
 20
43.5421
 11
163.542
 21
43.6309
  0
LINE
  8
0
 10
163.542
 20
43.6309
 11
163.459
 21
43.7251
  0
LINE
  8
0
 10
163.459
 20
43.7251
 11
163.382
 21
43.8244
  0
LINE
  8
0
 10
163.382
 20
43.8244
 11
163.311
 21
43.9283
  0
LINE
  8
0
 10
163.311
 20
43.9283
 11
163.247
 21
44.0365
  0
LINE
  8
0
 10
163.247
 20
44.0365
 11
163.19
 21
44.1484
  0
LINE
  8
0
 10
163.19
 20
44.1484
 11
163.14
 21
44.2637
  0
LINE
  8
0
 10
163.14
 20
44.2637
 11
163.098
 21
44.382
  0
LINE
  8
0
 10
163.098
 20
44.382
 11
163.063
 21
44.5026
  0
LINE
  8
0
 10
163.063
 20
44.5026
 11
163.035
 21
44.6252
  0
LINE
  8
0
 10
163.035
 20
44.6252
 11
163.016
 21
44.7493
  0
LINE
  8
0
 10
163.016
 20
44.7493
 11
163.004
 21
44.8744
  0
LINE
  8
0
 10
163.004
 20
44.8744
 11
163
 21
45
  0
LINE
  8
0
 10
163
 20
45
 11
163.004
 21
45.1256
  0
LINE
  8
0
 10
163.004
 20
45.1256
 11
163.016
 21
45.2507
  0
LINE
  8
0
 10
163.016
 20
45.2507
 11
163.035
 21
45.3748
  0
LINE
  8
0
 10
163.035
 20
45.3748
 11
163.063
 21
45.4974
  0
LINE
  8
0
 10
163.063
 20
45.4974
 11
163.098
 21
45.618
  0
LINE
  8
0
 10
163.098
 20
45.618
 11
163.14
 21
45.7362
  0
LINE
  8
0
 10
163.14
 20
45.7362
 11
163.19
 21
45.8515
  0
LINE
  8
0
 10
163.19
 20
45.8515
 11
163.247
 21
45.9635
  0
LINE
  8
0
 10
163.247
 20
45.9635
 11
163.311
 21
46.0716
  0
LINE
  8
0
 10
163.311
 20
46.0716
 11
163.382
 21
46.1756
  0
LINE
  8
0
 10
163.382
 20
46.1756
 11
163.459
 21
46.2748
  0
LINE
  8
0
 10
163.459
 20
46.2748
 11
163.542
 21
46.3691
  0
LINE
  8
0
 10
163.542
 20
46.3691
 11
163.631
 21
46.4579
  0
LINE
  8
0
 10
163.631
 20
46.4579
 11
163.725
 21
46.541
  0
LINE
  8
0
 10
163.725
 20
46.541
 11
163.824
 21
46.618
  0
LINE
  8
0
 10
163.824
 20
46.618
 11
163.928
 21
46.6886
  0
LINE
  8
0
 10
163.928
 20
46.6886
 11
164.036
 21
46.7526
  0
LINE
  8
0
 10
164.036
 20
46.7526
 11
164.148
 21
46.8096
  0
LINE
  8
0
 10
164.148
 20
46.8096
 11
164.264
 21
46.8595
  0
LINE
  8
0
 10
164.264
 20
46.8595
 11
164.382
 21
46.9021
  0
LINE
  8
0
 10
164.382
 20
46.9021
 11
164.503
 21
46.9372
  0
LINE
  8
0
 10
164.503
 20
46.9372
 11
164.625
 21
46.9646
  0
LINE
  8
0
 10
164.625
 20
46.9646
 11
164.749
 21
46.9842
  0
LINE
  8
0
 10
164.749
 20
46.9842
 11
164.874
 21
46.996
  0
LINE
  8
0
 10
164.874
 20
46.996
 11
165
 21
47
  0
LINE
  8
0
 10
165
 20
47
 11
165.126
 21
46.996
  0
LINE
  8
0
 10
165.126
 20
46.996
 11
165.251
 21
46.9842
  0
LINE
  8
0
 10
165.251
 20
46.9842
 11
165.375
 21
46.9646
  0
LINE
  8
0
 10
165.375
 20
46.9646
 11
165.497
 21
46.9372
  0
LINE
  8
0
 10
165.497
 20
46.9372
 11
165.618
 21
46.9021
  0
LINE
  8
0
 10
165.618
 20
46.9021
 11
165.736
 21
46.8595
  0
LINE
  8
0
 10
165.736
 20
46.8595
 11
165.852
 21
46.8096
  0
LINE
  8
0
 10
165.852
 20
46.8096
 11
165.964
 21
46.7526
  0
LINE
  8
0
 10
165.964
 20
46.7526
 11
166.072
 21
46.6886
  0
LINE
  8
0
 10
166.072
 20
46.6886
 11
166.176
 21
46.618
  0
LINE
  8
0
 10
166.176
 20
46.618
 11
166.275
 21
46.541
  0
LINE
  8
0
 10
166.275
 20
46.541
 11
166.369
 21
46.4579
  0
LINE
  8
0
 10
166.369
 20
46.4579
 11
166.458
 21
46.3691
  0
LINE
  8
0
 10
166.458
 20
46.3691
 11
166.541
 21
46.2748
  0
LINE
  8
0
 10
166.541
 20
46.2748
 11
166.618
 21
46.1756
  0
LINE
  8
0
 10
166.618
 20
46.1756
 11
166.689
 21
46.0716
  0
LINE
  8
0
 10
166.689
 20
46.0716
 11
166.753
 21
45.9635
  0
LINE
  8
0
 10
166.753
 20
45.9635
 11
166.81
 21
45.8515
  0
LINE
  8
0
 10
166.81
 20
45.8515
 11
166.86
 21
45.7362
  0
LINE
  8
0
 10
166.86
 20
45.7362
 11
166.902
 21
45.618
  0
LINE
  8
0
 10
166.902
 20
45.618
 11
166.937
 21
45.4974
  0
LINE
  8
0
 10
166.937
 20
45.4974
 11
166.965
 21
45.3748
  0
LINE
  8
0
 10
166.965
 20
45.3748
 11
166.984
 21
45.2507
  0
LINE
  8
0
 10
166.984
 20
45.2507
 11
166.996
 21
45.1256
  0
LINE
  8
0
 10
166.996
 20
45.1256
 11
167
 21
45
  0
LINE
  8
0
 10
167
 20
45
 11
166.996
 21
44.8744
  0
LINE
  8
0
 10
166.996
 20
44.8744
 11
166.984
 21
44.7493
  0
LINE
  8
0
 10
166.984
 20
44.7493
 11
166.965
 21
44.6252
  0
LINE
  8
0
 10
166.965
 20
44.6252
 11
166.937
 21
44.5026
  0
LINE
  8
0
 10
166.937
 20
44.5026
 11
166.902
 21
44.382
  0
LINE
  8
0
 10
166.902
 20
44.382
 11
166.86
 21
44.2637
  0
LINE
  8
0
 10
166.86
 20
44.2637
 11
166.81
 21
44.1484
  0
LINE
  8
0
 10
166.81
 20
44.1484
 11
166.753
 21
44.0365
  0
LINE
  8
0
 10
166.753
 20
44.0365
 11
166.689
 21
43.9283
  0
LINE
  8
0
 10
166.689
 20
43.9283
 11
166.618
 21
43.8244
  0
LINE
  8
0
 10
166.618
 20
43.8244
 11
166.541
 21
43.7251
  0
LINE
  8
0
 10
166.541
 20
43.7251
 11
166.458
 21
43.6309
  0
LINE
  8
0
 10
166.458
 20
43.6309
 11
166.369
 21
43.5421
  0
LINE
  8
0
 10
166.369
 20
43.5421
 11
166.275
 21
43.459
  0
LINE
  8
0
 10
166.275
 20
43.459
 11
166.176
 21
43.382
  0
LINE
  8
0
 10
166.176
 20
43.382
 11
166.072
 21
43.3113
  0
LINE
  8
0
 10
166.072
 20
43.3113
 11
165.964
 21
43.2474
  0
LINE
  8
0
 10
165.964
 20
43.2474
 11
165.852
 21
43.1903
  0
LINE
  8
0
 10
165.852
 20
43.1903
 11
165.736
 21
43.1404
  0
LINE
  8
0
 10
165.736
 20
43.1404
 11
165.618
 21
43.0979
  0
LINE
  8
0
 10
165.618
 20
43.0979
 11
165.497
 21
43.0628
  0
LINE
  8
0
 10
165.497
 20
43.0628
 11
165.375
 21
43.0354
  0
LINE
  8
0
 10
165.375
 20
43.0354
 11
165.251
 21
43.0158
  0
LINE
  8
0
 10
165.251
 20
43.0158
 11
165.126
 21
43.0039
  0
LINE
  8
0
 10
165.126
 20
43.0039
 11
165
 21
43
  0
LINE
  8
0
 10
165
 20
43
 11
164.874
 21
43.0039
  0
LINE
  8
0
 10
254.874
 20
43.0039
 11
254.749
 21
43.0158
  0
LINE
  8
0
 10
254.749
 20
43.0158
 11
254.625
 21
43.0354
  0
LINE
  8
0
 10
254.625
 20
43.0354
 11
254.503
 21
43.0628
  0
LINE
  8
0
 10
254.503
 20
43.0628
 11
254.382
 21
43.0979
  0
LINE
  8
0
 10
254.382
 20
43.0979
 11
254.264
 21
43.1404
  0
LINE
  8
0
 10
254.264
 20
43.1404
 11
254.148
 21
43.1903
  0
LINE
  8
0
 10
254.148
 20
43.1903
 11
254.036
 21
43.2474
  0
LINE
  8
0
 10
254.036
 20
43.2474
 11
253.928
 21
43.3113
  0
LINE
  8
0
 10
253.928
 20
43.3113
 11
253.824
 21
43.382
  0
LINE
  8
0
 10
253.824
 20
43.382
 11
253.725
 21
43.459
  0
LINE
  8
0
 10
253.725
 20
43.459
 11
253.631
 21
43.5421
  0
LINE
  8
0
 10
253.631
 20
43.5421
 11
253.542
 21
43.6309
  0
LINE
  8
0
 10
253.542
 20
43.6309
 11
253.459
 21
43.7251
  0
LINE
  8
0
 10
253.459
 20
43.7251
 11
253.382
 21
43.8244
  0
LINE
  8
0
 10
253.382
 20
43.8244
 11
253.311
 21
43.9283
  0
LINE
  8
0
 10
253.311
 20
43.9283
 11
253.247
 21
44.0365
  0
LINE
  8
0
 10
253.247
 20
44.0365
 11
253.19
 21
44.1484
  0
LINE
  8
0
 10
253.19
 20
44.1484
 11
253.14
 21
44.2637
  0
LINE
  8
0
 10
253.14
 20
44.2637
 11
253.098
 21
44.382
  0
LINE
  8
0
 10
253.098
 20
44.382
 11
253.063
 21
44.5026
  0
LINE
  8
0
 10
253.063
 20
44.5026
 11
253.035
 21
44.6252
  0
LINE
  8
0
 10
253.035
 20
44.6252
 11
253.016
 21
44.7493
  0
LINE
  8
0
 10
253.016
 20
44.7493
 11
253.004
 21
44.8744
  0
LINE
  8
0
 10
253.004
 20
44.8744
 11
253
 21
45
  0
LINE
  8
0
 10
253
 20
45
 11
253.004
 21
45.1256
  0
LINE
  8
0
 10
253.004
 20
45.1256
 11
253.016
 21
45.2507
  0
LINE
  8
0
 10
253.016
 20
45.2507
 11
253.035
 21
45.3748
  0
LINE
  8
0
 10
253.035
 20
45.3748
 11
253.063
 21
45.4974
  0
LINE
  8
0
 10
253.063
 20
45.4974
 11
253.098
 21
45.618
  0
LINE
  8
0
 10
253.098
 20
45.618
 11
253.14
 21
45.7362
  0
LINE
  8
0
 10
253.14
 20
45.7362
 11
253.19
 21
45.8515
  0
LINE
  8
0
 10
253.19
 20
45.8515
 11
253.247
 21
45.9635
  0
LINE
  8
0
 10
253.247
 20
45.9635
 11
253.311
 21
46.0716
  0
LINE
  8
0
 10
253.311
 20
46.0716
 11
253.382
 21
46.1756
  0
LINE
  8
0
 10
253.382
 20
46.1756
 11
253.459
 21
46.2748
  0
LINE
  8
0
 10
253.459
 20
46.2748
 11
253.542
 21
46.3691
  0
LINE
  8
0
 10
253.542
 20
46.3691
 11
253.631
 21
46.4579
  0
LINE
  8
0
 10
253.631
 20
46.4579
 11
253.725
 21
46.541
  0
LINE
  8
0
 10
253.725
 20
46.541
 11
253.824
 21
46.618
  0
LINE
  8
0
 10
253.824
 20
46.618
 11
253.928
 21
46.6886
  0
LINE
  8
0
 10
253.928
 20
46.6886
 11
254.036
 21
46.7526
  0
LINE
  8
0
 10
254.036
 20
46.7526
 11
254.148
 21
46.8096
  0
LINE
  8
0
 10
254.148
 20
46.8096
 11
254.264
 21
46.8595
  0
LINE
  8
0
 10
254.264
 20
46.8595
 11
254.382
 21
46.9021
  0
LINE
  8
0
 10
254.382
 20
46.9021
 11
254.503
 21
46.9372
  0
LINE
  8
0
 10
254.503
 20
46.9372
 11
254.625
 21
46.9646
  0
LINE
  8
0
 10
254.625
 20
46.9646
 11
254.749
 21
46.9842
  0
LINE
  8
0
 10
254.749
 20
46.9842
 11
254.874
 21
46.996
  0
LINE
  8
0
 10
254.874
 20
46.996
 11
255
 21
47
  0
LINE
  8
0
 10
255
 20
47
 11
255.126
 21
46.996
  0
LINE
  8
0
 10
255.126
 20
46.996
 11
255.251
 21
46.9842
  0
LINE
  8
0
 10
255.251
 20
46.9842
 11
255.375
 21
46.9646
  0
LINE
  8
0
 10
255.375
 20
46.9646
 11
255.497
 21
46.9372
  0
LINE
  8
0
 10
255.497
 20
46.9372
 11
255.618
 21
46.9021
  0
LINE
  8
0
 10
255.618
 20
46.9021
 11
255.736
 21
46.8595
  0
LINE
  8
0
 10
255.736
 20
46.8595
 11
255.852
 21
46.8096
  0
LINE
  8
0
 10
255.852
 20
46.8096
 11
255.964
 21
46.7526
  0
LINE
  8
0
 10
255.964
 20
46.7526
 11
256.072
 21
46.6886
  0
LINE
  8
0
 10
256.072
 20
46.6886
 11
256.176
 21
46.618
  0
LINE
  8
0
 10
256.176
 20
46.618
 11
256.275
 21
46.541
  0
LINE
  8
0
 10
256.275
 20
46.541
 11
256.369
 21
46.4579
  0
LINE
  8
0
 10
256.369
 20
46.4579
 11
256.458
 21
46.3691
  0
LINE
  8
0
 10
256.458
 20
46.3691
 11
256.541
 21
46.2748
  0
LINE
  8
0
 10
256.541
 20
46.2748
 11
256.618
 21
46.1756
  0
LINE
  8
0
 10
256.618
 20
46.1756
 11
256.689
 21
46.0716
  0
LINE
  8
0
 10
256.689
 20
46.0716
 11
256.753
 21
45.9635
  0
LINE
  8
0
 10
256.753
 20
45.9635
 11
256.81
 21
45.8515
  0
LINE
  8
0
 10
256.81
 20
45.8515
 11
256.86
 21
45.7362
  0
LINE
  8
0
 10
256.86
 20
45.7362
 11
256.902
 21
45.618
  0
LINE
  8
0
 10
256.902
 20
45.618
 11
256.937
 21
45.4974
  0
LINE
  8
0
 10
256.937
 20
45.4974
 11
256.965
 21
45.3748
  0
LINE
  8
0
 10
256.965
 20
45.3748
 11
256.984
 21
45.2507
  0
LINE
  8
0
 10
256.984
 20
45.2507
 11
256.996
 21
45.1256
  0
LINE
  8
0
 10
256.996
 20
45.1256
 11
257
 21
45
  0
LINE
  8
0
 10
257
 20
45
 11
256.996
 21
44.8744
  0
LINE
  8
0
 10
256.996
 20
44.8744
 11
256.984
 21
44.7493
  0
LINE
  8
0
 10
256.984
 20
44.7493
 11
256.965
 21
44.6252
  0
LINE
  8
0
 10
256.965
 20
44.6252
 11
256.937
 21
44.5026
  0
LINE
  8
0
 10
256.937
 20
44.5026
 11
256.902
 21
44.382
  0
LINE
  8
0
 10
256.902
 20
44.382
 11
256.86
 21
44.2637
  0
LINE
  8
0
 10
256.86
 20
44.2637
 11
256.81
 21
44.1484
  0
LINE
  8
0
 10
256.81
 20
44.1484
 11
256.753
 21
44.0365
  0
LINE
  8
0
 10
256.753
 20
44.0365
 11
256.689
 21
43.9283
  0
LINE
  8
0
 10
256.689
 20
43.9283
 11
256.618
 21
43.8244
  0
LINE
  8
0
 10
256.618
 20
43.8244
 11
256.541
 21
43.7251
  0
LINE
  8
0
 10
256.541
 20
43.7251
 11
256.458
 21
43.6309
  0
LINE
  8
0
 10
256.458
 20
43.6309
 11
256.369
 21
43.5421
  0
LINE
  8
0
 10
256.369
 20
43.5421
 11
256.275
 21
43.459
  0
LINE
  8
0
 10
256.275
 20
43.459
 11
256.176
 21
43.382
  0
LINE
  8
0
 10
256.176
 20
43.382
 11
256.072
 21
43.3113
  0
LINE
  8
0
 10
256.072
 20
43.3113
 11
255.964
 21
43.2474
  0
LINE
  8
0
 10
255.964
 20
43.2474
 11
255.852
 21
43.1903
  0
LINE
  8
0
 10
255.852
 20
43.1903
 11
255.736
 21
43.1404
  0
LINE
  8
0
 10
255.736
 20
43.1404
 11
255.618
 21
43.0979
  0
LINE
  8
0
 10
255.618
 20
43.0979
 11
255.497
 21
43.0628
  0
LINE
  8
0
 10
255.497
 20
43.0628
 11
255.375
 21
43.0354
  0
LINE
  8
0
 10
255.375
 20
43.0354
 11
255.251
 21
43.0158
  0
LINE
  8
0
 10
255.251
 20
43.0158
 11
255.126
 21
43.0039
  0
LINE
  8
0
 10
255.126
 20
43.0039
 11
255
 21
43
  0
LINE
  8
0
 10
255
 20
43
 11
254.874
 21
43.0039
  0
LINE
  8
0
 10
164.874
 20
-46.996
 11
164.749
 21
-46.9842
  0
LINE
  8
0
 10
164.749
 20
-46.9842
 11
164.625
 21
-46.9646
  0
LINE
  8
0
 10
164.625
 20
-46.9646
 11
164.503
 21
-46.9372
  0
LINE
  8
0
 10
164.503
 20
-46.9372
 11
164.382
 21
-46.9021
  0
LINE
  8
0
 10
164.382
 20
-46.9021
 11
164.264
 21
-46.8595
  0
LINE
  8
0
 10
164.264
 20
-46.8595
 11
164.148
 21
-46.8096
  0
LINE
  8
0
 10
164.148
 20
-46.8096
 11
164.036
 21
-46.7526
  0
LINE
  8
0
 10
164.036
 20
-46.7526
 11
163.928
 21
-46.6886
  0
LINE
  8
0
 10
163.928
 20
-46.6886
 11
163.824
 21
-46.618
  0
LINE
  8
0
 10
163.824
 20
-46.618
 11
163.725
 21
-46.541
  0
LINE
  8
0
 10
163.725
 20
-46.541
 11
163.631
 21
-46.4579
  0
LINE
  8
0
 10
163.631
 20
-46.4579
 11
163.542
 21
-46.3691
  0
LINE
  8
0
 10
163.542
 20
-46.3691
 11
163.459
 21
-46.2748
  0
LINE
  8
0
 10
163.459
 20
-46.2748
 11
163.382
 21
-46.1756
  0
LINE
  8
0
 10
163.382
 20
-46.1756
 11
163.311
 21
-46.0716
  0
LINE
  8
0
 10
163.311
 20
-46.0716
 11
163.247
 21
-45.9635
  0
LINE
  8
0
 10
163.247
 20
-45.9635
 11
163.19
 21
-45.8515
  0
LINE
  8
0
 10
163.19
 20
-45.8515
 11
163.14
 21
-45.7362
  0
LINE
  8
0
 10
163.14
 20
-45.7362
 11
163.098
 21
-45.618
  0
LINE
  8
0
 10
163.098
 20
-45.618
 11
163.063
 21
-45.4974
  0
LINE
  8
0
 10
163.063
 20
-45.4974
 11
163.035
 21
-45.3748
  0
LINE
  8
0
 10
163.035
 20
-45.3748
 11
163.016
 21
-45.2507
  0
LINE
  8
0
 10
163.016
 20
-45.2507
 11
163.004
 21
-45.1256
  0
LINE
  8
0
 10
163.004
 20
-45.1256
 11
163
 21
-45
  0
LINE
  8
0
 10
163
 20
-45
 11
163.004
 21
-44.8744
  0
LINE
  8
0
 10
163.004
 20
-44.8744
 11
163.016
 21
-44.7493
  0
LINE
  8
0
 10
163.016
 20
-44.7493
 11
163.035
 21
-44.6252
  0
LINE
  8
0
 10
163.035
 20
-44.6252
 11
163.063
 21
-44.5026
  0
LINE
  8
0
 10
163.063
 20
-44.5026
 11
163.098
 21
-44.382
  0
LINE
  8
0
 10
163.098
 20
-44.382
 11
163.14
 21
-44.2637
  0
LINE
  8
0
 10
163.14
 20
-44.2637
 11
163.19
 21
-44.1484
  0
LINE
  8
0
 10
163.19
 20
-44.1484
 11
163.247
 21
-44.0365
  0
LINE
  8
0
 10
163.247
 20
-44.0365
 11
163.311
 21
-43.9283
  0
LINE
  8
0
 10
163.311
 20
-43.9283
 11
163.382
 21
-43.8244
  0
LINE
  8
0
 10
163.382
 20
-43.8244
 11
163.459
 21
-43.7251
  0
LINE
  8
0
 10
163.459
 20
-43.7251
 11
163.542
 21
-43.6309
  0
LINE
  8
0
 10
163.542
 20
-43.6309
 11
163.631
 21
-43.5421
  0
LINE
  8
0
 10
163.631
 20
-43.5421
 11
163.725
 21
-43.459
  0
LINE
  8
0
 10
163.725
 20
-43.459
 11
163.824
 21
-43.382
  0
LINE
  8
0
 10
163.824
 20
-43.382
 11
163.928
 21
-43.3113
  0
LINE
  8
0
 10
163.928
 20
-43.3113
 11
164.036
 21
-43.2474
  0
LINE
  8
0
 10
164.036
 20
-43.2474
 11
164.148
 21
-43.1903
  0
LINE
  8
0
 10
164.148
 20
-43.1903
 11
164.264
 21
-43.1404
  0
LINE
  8
0
 10
164.264
 20
-43.1404
 11
164.382
 21
-43.0979
  0
LINE
  8
0
 10
164.382
 20
-43.0979
 11
164.503
 21
-43.0628
  0
LINE
  8
0
 10
164.503
 20
-43.0628
 11
164.625
 21
-43.0354
  0
LINE
  8
0
 10
164.625
 20
-43.0354
 11
164.749
 21
-43.0158
  0
LINE
  8
0
 10
164.749
 20
-43.0158
 11
164.874
 21
-43.0039
  0
LINE
  8
0
 10
164.874
 20
-43.0039
 11
165
 21
-43
  0
LINE
  8
0
 10
165
 20
-43
 11
165.126
 21
-43.0039
  0
LINE
  8
0
 10
165.126
 20
-43.0039
 11
165.251
 21
-43.0158
  0
LINE
  8
0
 10
165.251
 20
-43.0158
 11
165.375
 21
-43.0354
  0
LINE
  8
0
 10
165.375
 20
-43.0354
 11
165.497
 21
-43.0628
  0
LINE
  8
0
 10
165.497
 20
-43.0628
 11
165.618
 21
-43.0979
  0
LINE
  8
0
 10
165.618
 20
-43.0979
 11
165.736
 21
-43.1404
  0
LINE
  8
0
 10
165.736
 20
-43.1404
 11
165.852
 21
-43.1903
  0
LINE
  8
0
 10
165.852
 20
-43.1903
 11
165.964
 21
-43.2474
  0
LINE
  8
0
 10
165.964
 20
-43.2474
 11
166.072
 21
-43.3113
  0
LINE
  8
0
 10
166.072
 20
-43.3113
 11
166.176
 21
-43.382
  0
LINE
  8
0
 10
166.176
 20
-43.382
 11
166.275
 21
-43.459
  0
LINE
  8
0
 10
166.275
 20
-43.459
 11
166.369
 21
-43.5421
  0
LINE
  8
0
 10
166.369
 20
-43.5421
 11
166.458
 21
-43.6309
  0
LINE
  8
0
 10
166.458
 20
-43.6309
 11
166.541
 21
-43.7251
  0
LINE
  8
0
 10
166.541
 20
-43.7251
 11
166.618
 21
-43.8244
  0
LINE
  8
0
 10
166.618
 20
-43.8244
 11
166.689
 21
-43.9283
  0
LINE
  8
0
 10
166.689
 20
-43.9283
 11
166.753
 21
-44.0365
  0
LINE
  8
0
 10
166.753
 20
-44.0365
 11
166.81
 21
-44.1484
  0
LINE
  8
0
 10
166.81
 20
-44.1484
 11
166.86
 21
-44.2637
  0
LINE
  8
0
 10
166.86
 20
-44.2637
 11
166.902
 21
-44.382
  0
LINE
  8
0
 10
166.902
 20
-44.382
 11
166.937
 21
-44.5026
  0
LINE
  8
0
 10
166.937
 20
-44.5026
 11
166.965
 21
-44.6252
  0
LINE
  8
0
 10
166.965
 20
-44.6252
 11
166.984
 21
-44.7493
  0
LINE
  8
0
 10
166.984
 20
-44.7493
 11
166.996
 21
-44.8744
  0
LINE
  8
0
 10
166.996
 20
-44.8744
 11
167
 21
-45
  0
LINE
  8
0
 10
167
 20
-45
 11
166.996
 21
-45.1256
  0
LINE
  8
0
 10
166.996
 20
-45.1256
 11
166.984
 21
-45.2507
  0
LINE
  8
0
 10
166.984
 20
-45.2507
 11
166.965
 21
-45.3748
  0
LINE
  8
0
 10
166.965
 20
-45.3748
 11
166.937
 21
-45.4974
  0
LINE
  8
0
 10
166.937
 20
-45.4974
 11
166.902
 21
-45.618
  0
LINE
  8
0
 10
166.902
 20
-45.618
 11
166.86
 21
-45.7362
  0
LINE
  8
0
 10
166.86
 20
-45.7362
 11
166.81
 21
-45.8515
  0
LINE
  8
0
 10
166.81
 20
-45.8515
 11
166.753
 21
-45.9635
  0
LINE
  8
0
 10
166.753
 20
-45.9635
 11
166.689
 21
-46.0716
  0
LINE
  8
0
 10
166.689
 20
-46.0716
 11
166.618
 21
-46.1756
  0
LINE
  8
0
 10
166.618
 20
-46.1756
 11
166.541
 21
-46.2748
  0
LINE
  8
0
 10
166.541
 20
-46.2748
 11
166.458
 21
-46.3691
  0
LINE
  8
0
 10
166.458
 20
-46.3691
 11
166.369
 21
-46.4579
  0
LINE
  8
0
 10
166.369
 20
-46.4579
 11
166.275
 21
-46.541
  0
LINE
  8
0
 10
166.275
 20
-46.541
 11
166.176
 21
-46.618
  0
LINE
  8
0
 10
166.176
 20
-46.618
 11
166.072
 21
-46.6886
  0
LINE
  8
0
 10
166.072
 20
-46.6886
 11
165.964
 21
-46.7526
  0
LINE
  8
0
 10
165.964
 20
-46.7526
 11
165.852
 21
-46.8096
  0
LINE
  8
0
 10
165.852
 20
-46.8096
 11
165.736
 21
-46.8595
  0
LINE
  8
0
 10
165.736
 20
-46.8595
 11
165.618
 21
-46.9021
  0
LINE
  8
0
 10
165.618
 20
-46.9021
 11
165.497
 21
-46.9372
  0
LINE
  8
0
 10
165.497
 20
-46.9372
 11
165.375
 21
-46.9646
  0
LINE
  8
0
 10
165.375
 20
-46.9646
 11
165.251
 21
-46.9842
  0
LINE
  8
0
 10
165.251
 20
-46.9842
 11
165.126
 21
-46.996
  0
LINE
  8
0
 10
165.126
 20
-46.996
 11
165
 21
-47
  0
LINE
  8
0
 10
165
 20
-47
 11
164.874
 21
-46.996
  0
LINE
  8
0
 10
254.874
 20
-46.996
 11
254.749
 21
-46.9842
  0
LINE
  8
0
 10
254.749
 20
-46.9842
 11
254.625
 21
-46.9646
  0
LINE
  8
0
 10
254.625
 20
-46.9646
 11
254.503
 21
-46.9372
  0
LINE
  8
0
 10
254.503
 20
-46.9372
 11
254.382
 21
-46.9021
  0
LINE
  8
0
 10
254.382
 20
-46.9021
 11
254.264
 21
-46.8595
  0
LINE
  8
0
 10
254.264
 20
-46.8595
 11
254.148
 21
-46.8096
  0
LINE
  8
0
 10
254.148
 20
-46.8096
 11
254.036
 21
-46.7526
  0
LINE
  8
0
 10
254.036
 20
-46.7526
 11
253.928
 21
-46.6886
  0
LINE
  8
0
 10
253.928
 20
-46.6886
 11
253.824
 21
-46.618
  0
LINE
  8
0
 10
253.824
 20
-46.618
 11
253.725
 21
-46.541
  0
LINE
  8
0
 10
253.725
 20
-46.541
 11
253.631
 21
-46.4579
  0
LINE
  8
0
 10
253.631
 20
-46.4579
 11
253.542
 21
-46.3691
  0
LINE
  8
0
 10
253.542
 20
-46.3691
 11
253.459
 21
-46.2748
  0
LINE
  8
0
 10
253.459
 20
-46.2748
 11
253.382
 21
-46.1756
  0
LINE
  8
0
 10
253.382
 20
-46.1756
 11
253.311
 21
-46.0716
  0
LINE
  8
0
 10
253.311
 20
-46.0716
 11
253.247
 21
-45.9635
  0
LINE
  8
0
 10
253.247
 20
-45.9635
 11
253.19
 21
-45.8515
  0
LINE
  8
0
 10
253.19
 20
-45.8515
 11
253.14
 21
-45.7362
  0
LINE
  8
0
 10
253.14
 20
-45.7362
 11
253.098
 21
-45.618
  0
LINE
  8
0
 10
253.098
 20
-45.618
 11
253.063
 21
-45.4974
  0
LINE
  8
0
 10
253.063
 20
-45.4974
 11
253.035
 21
-45.3748
  0
LINE
  8
0
 10
253.035
 20
-45.3748
 11
253.016
 21
-45.2507
  0
LINE
  8
0
 10
253.016
 20
-45.2507
 11
253.004
 21
-45.1256
  0
LINE
  8
0
 10
253.004
 20
-45.1256
 11
253
 21
-45
  0
LINE
  8
0
 10
253
 20
-45
 11
253.004
 21
-44.8744
  0
LINE
  8
0
 10
253.004
 20
-44.8744
 11
253.016
 21
-44.7493
  0
LINE
  8
0
 10
253.016
 20
-44.7493
 11
253.035
 21
-44.6252
  0
LINE
  8
0
 10
253.035
 20
-44.6252
 11
253.063
 21
-44.5026
  0
LINE
  8
0
 10
253.063
 20
-44.5026
 11
253.098
 21
-44.382
  0
LINE
  8
0
 10
253.098
 20
-44.382
 11
253.14
 21
-44.2637
  0
LINE
  8
0
 10
253.14
 20
-44.2637
 11
253.19
 21
-44.1484
  0
LINE
  8
0
 10
253.19
 20
-44.1484
 11
253.247
 21
-44.0365
  0
LINE
  8
0
 10
253.247
 20
-44.0365
 11
253.311
 21
-43.9283
  0
LINE
  8
0
 10
253.311
 20
-43.9283
 11
253.382
 21
-43.8244
  0
LINE
  8
0
 10
253.382
 20
-43.8244
 11
253.459
 21
-43.7251
  0
LINE
  8
0
 10
253.459
 20
-43.7251
 11
253.542
 21
-43.6309
  0
LINE
  8
0
 10
253.542
 20
-43.6309
 11
253.631
 21
-43.5421
  0
LINE
  8
0
 10
253.631
 20
-43.5421
 11
253.725
 21
-43.459
  0
LINE
  8
0
 10
253.725
 20
-43.459
 11
253.824
 21
-43.382
  0
LINE
  8
0
 10
253.824
 20
-43.382
 11
253.928
 21
-43.3113
  0
LINE
  8
0
 10
253.928
 20
-43.3113
 11
254.036
 21
-43.2474
  0
LINE
  8
0
 10
254.036
 20
-43.2474
 11
254.148
 21
-43.1903
  0
LINE
  8
0
 10
254.148
 20
-43.1903
 11
254.264
 21
-43.1404
  0
LINE
  8
0
 10
254.264
 20
-43.1404
 11
254.382
 21
-43.0979
  0
LINE
  8
0
 10
254.382
 20
-43.0979
 11
254.503
 21
-43.0628
  0
LINE
  8
0
 10
254.503
 20
-43.0628
 11
254.625
 21
-43.0354
  0
LINE
  8
0
 10
254.625
 20
-43.0354
 11
254.749
 21
-43.0158
  0
LINE
  8
0
 10
254.749
 20
-43.0158
 11
254.874
 21
-43.0039
  0
LINE
  8
0
 10
254.874
 20
-43.0039
 11
255
 21
-43
  0
LINE
  8
0
 10
255
 20
-43
 11
255.126
 21
-43.0039
  0
LINE
  8
0
 10
255.126
 20
-43.0039
 11
255.251
 21
-43.0158
  0
LINE
  8
0
 10
255.251
 20
-43.0158
 11
255.375
 21
-43.0354
  0
LINE
  8
0
 10
255.375
 20
-43.0354
 11
255.497
 21
-43.0628
  0
LINE
  8
0
 10
255.497
 20
-43.0628
 11
255.618
 21
-43.0979
  0
LINE
  8
0
 10
255.618
 20
-43.0979
 11
255.736
 21
-43.1404
  0
LINE
  8
0
 10
255.736
 20
-43.1404
 11
255.852
 21
-43.1903
  0
LINE
  8
0
 10
255.852
 20
-43.1903
 11
255.964
 21
-43.2474
  0
LINE
  8
0
 10
255.964
 20
-43.2474
 11
256.072
 21
-43.3113
  0
LINE
  8
0
 10
256.072
 20
-43.3113
 11
256.176
 21
-43.382
  0
LINE
  8
0
 10
256.176
 20
-43.382
 11
256.275
 21
-43.459
  0
LINE
  8
0
 10
256.275
 20
-43.459
 11
256.369
 21
-43.5421
  0
LINE
  8
0
 10
256.369
 20
-43.5421
 11
256.458
 21
-43.6309
  0
LINE
  8
0
 10
256.458
 20
-43.6309
 11
256.541
 21
-43.7251
  0
LINE
  8
0
 10
256.541
 20
-43.7251
 11
256.618
 21
-43.8244
  0
LINE
  8
0
 10
256.618
 20
-43.8244
 11
256.689
 21
-43.9283
  0
LINE
  8
0
 10
256.689
 20
-43.9283
 11
256.753
 21
-44.0365
  0
LINE
  8
0
 10
256.753
 20
-44.0365
 11
256.81
 21
-44.1484
  0
LINE
  8
0
 10
256.81
 20
-44.1484
 11
256.86
 21
-44.2637
  0
LINE
  8
0
 10
256.86
 20
-44.2637
 11
256.902
 21
-44.382
  0
LINE
  8
0
 10
256.902
 20
-44.382
 11
256.937
 21
-44.5026
  0
LINE
  8
0
 10
256.937
 20
-44.5026
 11
256.965
 21
-44.6252
  0
LINE
  8
0
 10
256.965
 20
-44.6252
 11
256.984
 21
-44.7493
  0
LINE
  8
0
 10
256.984
 20
-44.7493
 11
256.996
 21
-44.8744
  0
LINE
  8
0
 10
256.996
 20
-44.8744
 11
257
 21
-45
  0
LINE
  8
0
 10
257
 20
-45
 11
256.996
 21
-45.1256
  0
LINE
  8
0
 10
256.996
 20
-45.1256
 11
256.984
 21
-45.2507
  0
LINE
  8
0
 10
256.984
 20
-45.2507
 11
256.965
 21
-45.3748
  0
LINE
  8
0
 10
256.965
 20
-45.3748
 11
256.937
 21
-45.4974
  0
LINE
  8
0
 10
256.937
 20
-45.4974
 11
256.902
 21
-45.618
  0
LINE
  8
0
 10
256.902
 20
-45.618
 11
256.86
 21
-45.7362
  0
LINE
  8
0
 10
256.86
 20
-45.7362
 11
256.81
 21
-45.8515
  0
LINE
  8
0
 10
256.81
 20
-45.8515
 11
256.753
 21
-45.9635
  0
LINE
  8
0
 10
256.753
 20
-45.9635
 11
256.689
 21
-46.0716
  0
LINE
  8
0
 10
256.689
 20
-46.0716
 11
256.618
 21
-46.1756
  0
LINE
  8
0
 10
256.618
 20
-46.1756
 11
256.541
 21
-46.2748
  0
LINE
  8
0
 10
256.541
 20
-46.2748
 11
256.458
 21
-46.3691
  0
LINE
  8
0
 10
256.458
 20
-46.3691
 11
256.369
 21
-46.4579
  0
LINE
  8
0
 10
256.369
 20
-46.4579
 11
256.275
 21
-46.541
  0
LINE
  8
0
 10
256.275
 20
-46.541
 11
256.176
 21
-46.618
  0
LINE
  8
0
 10
256.176
 20
-46.618
 11
256.072
 21
-46.6886
  0
LINE
  8
0
 10
256.072
 20
-46.6886
 11
255.964
 21
-46.7526
  0
LINE
  8
0
 10
255.964
 20
-46.7526
 11
255.852
 21
-46.8096
  0
LINE
  8
0
 10
255.852
 20
-46.8096
 11
255.736
 21
-46.8595
  0
LINE
  8
0
 10
255.736
 20
-46.8595
 11
255.618
 21
-46.9021
  0
LINE
  8
0
 10
255.618
 20
-46.9021
 11
255.497
 21
-46.9372
  0
LINE
  8
0
 10
255.497
 20
-46.9372
 11
255.375
 21
-46.9646
  0
LINE
  8
0
 10
255.375
 20
-46.9646
 11
255.251
 21
-46.9842
  0
LINE
  8
0
 10
255.251
 20
-46.9842
 11
255.126
 21
-46.996
  0
LINE
  8
0
 10
255.126
 20
-46.996
 11
255
 21
-47
  0
LINE
  8
0
 10
255
 20
-47
 11
254.874
 21
-46.996
  0
ENDSEC
  0
SECTION
  2
OBJECTS
  0
DICTIONARY
  0
ENDSEC
  0
EOF
