  0
SECTION
  2
BLOCKS
  0
ENDSEC
  0
SECTION
  2
ENTITIES
  0
LINE
  8
0
 10
46.2512
 20
-49.9921
 11
46.5013
 21
-49.9684
  0
LINE
  8
0
 10
46.5013
 20
-49.9684
 11
46.7495
 21
-49.9291
  0
LINE
  8
0
 10
46.7495
 20
-49.9291
 11
46.9948
 21
-49.8743
  0
LINE
  8
0
 10
46.9948
 20
-49.8743
 11
47.2361
 21
-49.8042
  0
LINE
  8
0
 10
47.2361
 20
-49.8042
 11
47.4725
 21
-49.7191
  0
LINE
  8
0
 10
47.4725
 20
-49.7191
 11
47.7031
 21
-49.6193
  0
LINE
  8
0
 10
47.7031
 20
-49.6193
 11
47.927
 21
-49.5052
  0
LINE
  8
0
 10
47.927
 20
-49.5052
 11
48.1433
 21
-49.3773
  0
LINE
  8
0
 10
48.1433
 20
-49.3773
 11
48.3511
 21
-49.2361
  0
LINE
  8
0
 10
48.3511
 20
-49.2361
 11
48.5497
 21
-49.082
  0
LINE
  8
0
 10
48.5497
 20
-49.082
 11
48.7382
 21
-48.9159
  0
LINE
  8
0
 10
48.7382
 20
-48.9159
 11
48.9159
 21
-48.7382
  0
LINE
  8
0
 10
48.9159
 20
-48.7382
 11
49.082
 21
-48.5497
  0
LINE
  8
0
 10
49.082
 20
-48.5497
 11
49.2361
 21
-48.3511
  0
LINE
  8
0
 10
49.2361
 20
-48.3511
 11
49.3773
 21
-48.1433
  0
LINE
  8
0
 10
49.3773
 20
-48.1433
 11
49.5052
 21
-47.927
  0
LINE
  8
0
 10
49.5052
 20
-47.927
 11
49.6193
 21
-47.7031
  0
LINE
  8
0
 10
49.6193
 20
-47.7031
 11
49.7191
 21
-47.4725
  0
LINE
  8
0
 10
49.7191
 20
-47.4725
 11
49.8042
 21
-47.2361
  0
LINE
  8
0
 10
49.8042
 20
-47.2361
 11
49.8743
 21
-46.9948
  0
LINE
  8
0
 10
49.8743
 20
-46.9948
 11
49.9291
 21
-46.7495
  0
LINE
  8
0
 10
49.9291
 20
-46.7495
 11
49.9684
 21
-46.5013
  0
LINE
  8
0
 10
49.9684
 20
-46.5013
 11
49.9921
 21
-46.2512
  0
LINE
  8
0
 10
49.9921
 20
-46.2512
 11
50
 21
-46
  0
LINE
  8
0
 10
50
 20
-46
 11
50
 21
46
  0
LINE
  8
0
 10
50
 20
46
 11
49.9921
 21
46.2512
  0
LINE
  8
0
 10
49.9921
 20
46.2512
 11
49.9684
 21
46.5013
  0
LINE
  8
0
 10
49.9684
 20
46.5013
 11
49.9291
 21
46.7495
  0
LINE
  8
0
 10
49.9291
 20
46.7495
 11
49.8743
 21
46.9948
  0
LINE
  8
0
 10
49.8743
 20
46.9948
 11
49.8042
 21
47.2361
  0
LINE
  8
0
 10
49.8042
 20
47.2361
 11
49.7191
 21
47.4725
  0
LINE
  8
0
 10
49.7191
 20
47.4725
 11
49.6193
 21
47.7031
  0
LINE
  8
0
 10
49.6193
 20
47.7031
 11
49.5052
 21
47.927
  0
LINE
  8
0
 10
49.5052
 20
47.927
 11
49.3773
 21
48.1433
  0
LINE
  8
0
 10
49.3773
 20
48.1433
 11
49.2361
 21
48.3511
  0
LINE
  8
0
 10
49.2361
 20
48.3511
 11
49.082
 21
48.5497
  0
LINE
  8
0
 10
49.082
 20
48.5497
 11
48.9159
 21
48.7382
  0
LINE
  8
0
 10
48.9159
 20
48.7382
 11
48.7382
 21
48.9159
  0
LINE
  8
0
 10
48.7382
 20
48.9159
 11
48.5497
 21
49.082
  0
LINE
  8
0
 10
48.5497
 20
49.082
 11
48.3511
 21
49.2361
  0
LINE
  8
0
 10
48.3511
 20
49.2361
 11
48.1433
 21
49.3773
  0
LINE
  8
0
 10
48.1433
 20
49.3773
 11
47.927
 21
49.5052
  0
LINE
  8
0
 10
47.927
 20
49.5052
 11
47.7031
 21
49.6193
  0
LINE
  8
0
 10
47.7031
 20
49.6193
 11
47.4725
 21
49.7191
  0
LINE
  8
0
 10
47.4725
 20
49.7191
 11
47.2361
 21
49.8042
  0
LINE
  8
0
 10
47.2361
 20
49.8042
 11
46.9948
 21
49.8743
  0
LINE
  8
0
 10
46.9948
 20
49.8743
 11
46.7495
 21
49.9291
  0
LINE
  8
0
 10
46.7495
 20
49.9291
 11
46.5013
 21
49.9684
  0
LINE
  8
0
 10
46.5013
 20
49.9684
 11
46.2512
 21
49.9921
  0
LINE
  8
0
 10
46.2512
 20
49.9921
 11
46
 21
50
  0
LINE
  8
0
 10
46
 20
50
 11
-46
 21
50
  0
LINE
  8
0
 10
-46
 20
50
 11
-46.2512
 21
49.9921
  0
LINE
  8
0
 10
-46.2512
 20
49.9921
 11
-46.5013
 21
49.9684
  0
LINE
  8
0
 10
-46.5013
 20
49.9684
 11
-46.7495
 21
49.9291
  0
LINE
  8
0
 10
-46.7495
 20
49.9291
 11
-46.9948
 21
49.8743
  0
LINE
  8
0
 10
-46.9948
 20
49.8743
 11
-47.2361
 21
49.8042
  0
LINE
  8
0
 10
-47.2361
 20
49.8042
 11
-47.4725
 21
49.7191
  0
LINE
  8
0
 10
-47.4725
 20
49.7191
 11
-47.7031
 21
49.6193
  0
LINE
  8
0
 10
-47.7031
 20
49.6193
 11
-47.927
 21
49.5052
  0
LINE
  8
0
 10
-47.927
 20
49.5052
 11
-48.1433
 21
49.3773
  0
LINE
  8
0
 10
-48.1433
 20
49.3773
 11
-48.3511
 21
49.2361
  0
LINE
  8
0
 10
-48.3511
 20
49.2361
 11
-48.5497
 21
49.082
  0
LINE
  8
0
 10
-48.5497
 20
49.082
 11
-48.7382
 21
48.9159
  0
LINE
  8
0
 10
-48.7382
 20
48.9159
 11
-48.9159
 21
48.7382
  0
LINE
  8
0
 10
-48.9159
 20
48.7382
 11
-49.082
 21
48.5497
  0
LINE
  8
0
 10
-49.082
 20
48.5497
 11
-49.2361
 21
48.3511
  0
LINE
  8
0
 10
-49.2361
 20
48.3511
 11
-49.3773
 21
48.1433
  0
LINE
  8
0
 10
-49.3773
 20
48.1433
 11
-49.5052
 21
47.927
  0
LINE
  8
0
 10
-49.5052
 20
47.927
 11
-49.6193
 21
47.7031
  0
LINE
  8
0
 10
-49.6193
 20
47.7031
 11
-49.7191
 21
47.4725
  0
LINE
  8
0
 10
-49.7191
 20
47.4725
 11
-49.8042
 21
47.2361
  0
LINE
  8
0
 10
-49.8042
 20
47.2361
 11
-49.8743
 21
46.9948
  0
LINE
  8
0
 10
-49.8743
 20
46.9948
 11
-49.9291
 21
46.7495
  0
LINE
  8
0
 10
-49.9291
 20
46.7495
 11
-49.9684
 21
46.5013
  0
LINE
  8
0
 10
-49.9684
 20
46.5013
 11
-49.9921
 21
46.2512
  0
LINE
  8
0
 10
-49.9921
 20
46.2512
 11
-50
 21
46
  0
LINE
  8
0
 10
-50
 20
46
 11
-50
 21
-46
  0
LINE
  8
0
 10
-50
 20
-46
 11
-49.9921
 21
-46.2512
  0
LINE
  8
0
 10
-49.9921
 20
-46.2512
 11
-49.9684
 21
-46.5013
  0
LINE
  8
0
 10
-49.9684
 20
-46.5013
 11
-49.9291
 21
-46.7495
  0
LINE
  8
0
 10
-49.9291
 20
-46.7495
 11
-49.8743
 21
-46.9948
  0
LINE
  8
0
 10
-49.8743
 20
-46.9948
 11
-49.8042
 21
-47.2361
  0
LINE
  8
0
 10
-49.8042
 20
-47.2361
 11
-49.7191
 21
-47.4725
  0
LINE
  8
0
 10
-49.7191
 20
-47.4725
 11
-49.6193
 21
-47.7031
  0
LINE
  8
0
 10
-49.6193
 20
-47.7031
 11
-49.5052
 21
-47.927
  0
LINE
  8
0
 10
-49.5052
 20
-47.927
 11
-49.3773
 21
-48.1433
  0
LINE
  8
0
 10
-49.3773
 20
-48.1433
 11
-49.2361
 21
-48.3511
  0
LINE
  8
0
 10
-49.2361
 20
-48.3511
 11
-49.082
 21
-48.5497
  0
LINE
  8
0
 10
-49.082
 20
-48.5497
 11
-48.9159
 21
-48.7382
  0
LINE
  8
0
 10
-48.9159
 20
-48.7382
 11
-48.7382
 21
-48.9159
  0
LINE
  8
0
 10
-48.7382
 20
-48.9159
 11
-48.5497
 21
-49.082
  0
LINE
  8
0
 10
-48.5497
 20
-49.082
 11
-48.3511
 21
-49.2361
  0
LINE
  8
0
 10
-48.3511
 20
-49.2361
 11
-48.1433
 21
-49.3773
  0
LINE
  8
0
 10
-48.1433
 20
-49.3773
 11
-47.927
 21
-49.5052
  0
LINE
  8
0
 10
-47.927
 20
-49.5052
 11
-47.7031
 21
-49.6193
  0
LINE
  8
0
 10
-47.7031
 20
-49.6193
 11
-47.4725
 21
-49.7191
  0
LINE
  8
0
 10
-47.4725
 20
-49.7191
 11
-47.2361
 21
-49.8042
  0
LINE
  8
0
 10
-47.2361
 20
-49.8042
 11
-46.9948
 21
-49.8743
  0
LINE
  8
0
 10
-46.9948
 20
-49.8743
 11
-46.7495
 21
-49.9291
  0
LINE
  8
0
 10
-46.7495
 20
-49.9291
 11
-46.5013
 21
-49.9684
  0
LINE
  8
0
 10
-46.5013
 20
-49.9684
 11
-46.2512
 21
-49.9921
  0
LINE
  8
0
 10
-46.2512
 20
-49.9921
 11
-46
 21
-50
  0
LINE
  8
0
 10
-46
 20
-50
 11
46
 21
-50
  0
LINE
  8
0
 10
46
 20
-50
 11
46.2512
 21
-49.9921
  0
LINE
  8
0
 10
44.8744
 20
43.0039
 11
44.7493
 21
43.0158
  0
LINE
  8
0
 10
44.7493
 20
43.0158
 11
44.6252
 21
43.0354
  0
LINE
  8
0
 10
44.6252
 20
43.0354
 11
44.5026
 21
43.0628
  0
LINE
  8
0
 10
44.5026
 20
43.0628
 11
44.382
 21
43.0979
  0
LINE
  8
0
 10
44.382
 20
43.0979
 11
44.2637
 21
43.1404
  0
LINE
  8
0
 10
44.2637
 20
43.1404
 11
44.1484
 21
43.1903
  0
LINE
  8
0
 10
44.1484
 20
43.1903
 11
44.0365
 21
43.2474
  0
LINE
  8
0
 10
44.0365
 20
43.2474
 11
43.9283
 21
43.3113
  0
LINE
  8
0
 10
43.9283
 20
43.3113
 11
43.8244
 21
43.382
  0
LINE
  8
0
 10
43.8244
 20
43.382
 11
43.7251
 21
43.459
  0
LINE
  8
0
 10
43.7251
 20
43.459
 11
43.6309
 21
43.5421
  0
LINE
  8
0
 10
43.6309
 20
43.5421
 11
43.5421
 21
43.6309
  0
LINE
  8
0
 10
43.5421
 20
43.6309
 11
43.459
 21
43.7251
  0
LINE
  8
0
 10
43.459
 20
43.7251
 11
43.382
 21
43.8244
  0
LINE
  8
0
 10
43.382
 20
43.8244
 11
43.3113
 21
43.9283
  0
LINE
  8
0
 10
43.3113
 20
43.9283
 11
43.2474
 21
44.0365
  0
LINE
  8
0
 10
43.2474
 20
44.0365
 11
43.1903
 21
44.1484
  0
LINE
  8
0
 10
43.1903
 20
44.1484
 11
43.1404
 21
44.2637
  0
LINE
  8
0
 10
43.1404
 20
44.2637
 11
43.0979
 21
44.382
  0
LINE
  8
0
 10
43.0979
 20
44.382
 11
43.0628
 21
44.5026
  0
LINE
  8
0
 10
43.0628
 20
44.5026
 11
43.0354
 21
44.6252
  0
LINE
  8
0
 10
43.0354
 20
44.6252
 11
43.0158
 21
44.7493
  0
LINE
  8
0
 10
43.0158
 20
44.7493
 11
43.0039
 21
44.8744
  0
LINE
  8
0
 10
43.0039
 20
44.8744
 11
43
 21
45
  0
LINE
  8
0
 10
43
 20
45
 11
43.0039
 21
45.1256
  0
LINE
  8
0
 10
43.0039
 20
45.1256
 11
43.0158
 21
45.2507
  0
LINE
  8
0
 10
43.0158
 20
45.2507
 11
43.0354
 21
45.3748
  0
LINE
  8
0
 10
43.0354
 20
45.3748
 11
43.0628
 21
45.4974
  0
LINE
  8
0
 10
43.0628
 20
45.4974
 11
43.0979
 21
45.618
  0
LINE
  8
0
 10
43.0979
 20
45.618
 11
43.1404
 21
45.7362
  0
LINE
  8
0
 10
43.1404
 20
45.7362
 11
43.1903
 21
45.8515
  0
LINE
  8
0
 10
43.1903
 20
45.8515
 11
43.2474
 21
45.9635
  0
LINE
  8
0
 10
43.2474
 20
45.9635
 11
43.3113
 21
46.0716
  0
LINE
  8
0
 10
43.3113
 20
46.0716
 11
43.382
 21
46.1756
  0
LINE
  8
0
 10
43.382
 20
46.1756
 11
43.459
 21
46.2748
  0
LINE
  8
0
 10
43.459
 20
46.2748
 11
43.5421
 21
46.3691
  0
LINE
  8
0
 10
43.5421
 20
46.3691
 11
43.6309
 21
46.4579
  0
LINE
  8
0
 10
43.6309
 20
46.4579
 11
43.7251
 21
46.541
  0
LINE
  8
0
 10
43.7251
 20
46.541
 11
43.8244
 21
46.618
  0
LINE
  8
0
 10
43.8244
 20
46.618
 11
43.9283
 21
46.6886
  0
LINE
  8
0
 10
43.9283
 20
46.6886
 11
44.0365
 21
46.7526
  0
LINE
  8
0
 10
44.0365
 20
46.7526
 11
44.1484
 21
46.8096
  0
LINE
  8
0
 10
44.1484
 20
46.8096
 11
44.2637
 21
46.8595
  0
LINE
  8
0
 10
44.2637
 20
46.8595
 11
44.382
 21
46.9021
  0
LINE
  8
0
 10
44.382
 20
46.9021
 11
44.5026
 21
46.9372
  0
LINE
  8
0
 10
44.5026
 20
46.9372
 11
44.6252
 21
46.9646
  0
LINE
  8
0
 10
44.6252
 20
46.9646
 11
44.7493
 21
46.9842
  0
LINE
  8
0
 10
44.7493
 20
46.9842
 11
44.8744
 21
46.996
  0
LINE
  8
0
 10
44.8744
 20
46.996
 11
45
 21
47
  0
LINE
  8
0
 10
45
 20
47
 11
45.1256
 21
46.996
  0
LINE
  8
0
 10
45.1256
 20
46.996
 11
45.2507
 21
46.9842
  0
LINE
  8
0
 10
45.2507
 20
46.9842
 11
45.3748
 21
46.9646
  0
LINE
  8
0
 10
45.3748
 20
46.9646
 11
45.4974
 21
46.9372
  0
LINE
  8
0
 10
45.4974
 20
46.9372
 11
45.618
 21
46.9021
  0
LINE
  8
0
 10
45.618
 20
46.9021
 11
45.7362
 21
46.8595
  0
LINE
  8
0
 10
45.7362
 20
46.8595
 11
45.8515
 21
46.8096
  0
LINE
  8
0
 10
45.8515
 20
46.8096
 11
45.9635
 21
46.7526
  0
LINE
  8
0
 10
45.9635
 20
46.7526
 11
46.0716
 21
46.6886
  0
LINE
  8
0
 10
46.0716
 20
46.6886
 11
46.1756
 21
46.618
  0
LINE
  8
0
 10
46.1756
 20
46.618
 11
46.2748
 21
46.541
  0
LINE
  8
0
 10
46.2748
 20
46.541
 11
46.3691
 21
46.4579
  0
LINE
  8
0
 10
46.3691
 20
46.4579
 11
46.4579
 21
46.3691
  0
LINE
  8
0
 10
46.4579
 20
46.3691
 11
46.541
 21
46.2748
  0
LINE
  8
0
 10
46.541
 20
46.2748
 11
46.618
 21
46.1756
  0
LINE
  8
0
 10
46.618
 20
46.1756
 11
46.6886
 21
46.0716
  0
LINE
  8
0
 10
46.6886
 20
46.0716
 11
46.7526
 21
45.9635
  0
LINE
  8
0
 10
46.7526
 20
45.9635
 11
46.8096
 21
45.8515
  0
LINE
  8
0
 10
46.8096
 20
45.8515
 11
46.8595
 21
45.7362
  0
LINE
  8
0
 10
46.8595
 20
45.7362
 11
46.9021
 21
45.618
  0
LINE
  8
0
 10
46.9021
 20
45.618
 11
46.9372
 21
45.4974
  0
LINE
  8
0
 10
46.9372
 20
45.4974
 11
46.9646
 21
45.3748
  0
LINE
  8
0
 10
46.9646
 20
45.3748
 11
46.9842
 21
45.2507
  0
LINE
  8
0
 10
46.9842
 20
45.2507
 11
46.996
 21
45.1256
  0
LINE
  8
0
 10
46.996
 20
45.1256
 11
47
 21
45
  0
LINE
  8
0
 10
47
 20
45
 11
46.996
 21
44.8744
  0
LINE
  8
0
 10
46.996
 20
44.8744
 11
46.9842
 21
44.7493
  0
LINE
  8
0
 10
46.9842
 20
44.7493
 11
46.9646
 21
44.6252
  0
LINE
  8
0
 10
46.9646
 20
44.6252
 11
46.9372
 21
44.5026
  0
LINE
  8
0
 10
46.9372
 20
44.5026
 11
46.9021
 21
44.382
  0
LINE
  8
0
 10
46.9021
 20
44.382
 11
46.8595
 21
44.2637
  0
LINE
  8
0
 10
46.8595
 20
44.2637
 11
46.8096
 21
44.1484
  0
LINE
  8
0
 10
46.8096
 20
44.1484
 11
46.7526
 21
44.0365
  0
LINE
  8
0
 10
46.7526
 20
44.0365
 11
46.6886
 21
43.9283
  0
LINE
  8
0
 10
46.6886
 20
43.9283
 11
46.618
 21
43.8244
  0
LINE
  8
0
 10
46.618
 20
43.8244
 11
46.541
 21
43.7251
  0
LINE
  8
0
 10
46.541
 20
43.7251
 11
46.4579
 21
43.6309
  0
LINE
  8
0
 10
46.4579
 20
43.6309
 11
46.3691
 21
43.5421
  0
LINE
  8
0
 10
46.3691
 20
43.5421
 11
46.2748
 21
43.459
  0
LINE
  8
0
 10
46.2748
 20
43.459
 11
46.1756
 21
43.382
  0
LINE
  8
0
 10
46.1756
 20
43.382
 11
46.0716
 21
43.3113
  0
LINE
  8
0
 10
46.0716
 20
43.3113
 11
45.9635
 21
43.2474
  0
LINE
  8
0
 10
45.9635
 20
43.2474
 11
45.8515
 21
43.1903
  0
LINE
  8
0
 10
45.8515
 20
43.1903
 11
45.7362
 21
43.1404
  0
LINE
  8
0
 10
45.7362
 20
43.1404
 11
45.618
 21
43.0979
  0
LINE
  8
0
 10
45.618
 20
43.0979
 11
45.4974
 21
43.0628
  0
LINE
  8
0
 10
45.4974
 20
43.0628
 11
45.3748
 21
43.0354
  0
LINE
  8
0
 10
45.3748
 20
43.0354
 11
45.2507
 21
43.0158
  0
LINE
  8
0
 10
45.2507
 20
43.0158
 11
45.1256
 21
43.0039
  0
LINE
  8
0
 10
45.1256
 20
43.0039
 11
45
 21
43
  0
LINE
  8
0
 10
45
 20
43
 11
44.8744
 21
43.0039
  0
LINE
  8
0
 10
-45.1256
 20
43.0039
 11
-45.2507
 21
43.0158
  0
LINE
  8
0
 10
-45.2507
 20
43.0158
 11
-45.3748
 21
43.0354
  0
LINE
  8
0
 10
-45.3748
 20
43.0354
 11
-45.4974
 21
43.0628
  0
LINE
  8
0
 10
-45.4974
 20
43.0628
 11
-45.618
 21
43.0979
  0
LINE
  8
0
 10
-45.618
 20
43.0979
 11
-45.7362
 21
43.1404
  0
LINE
  8
0
 10
-45.7362
 20
43.1404
 11
-45.8515
 21
43.1903
  0
LINE
  8
0
 10
-45.8515
 20
43.1903
 11
-45.9635
 21
43.2474
  0
LINE
  8
0
 10
-45.9635
 20
43.2474
 11
-46.0716
 21
43.3113
  0
LINE
  8
0
 10
-46.0716
 20
43.3113
 11
-46.1756
 21
43.382
  0
LINE
  8
0
 10
-46.1756
 20
43.382
 11
-46.2748
 21
43.459
  0
LINE
  8
0
 10
-46.2748
 20
43.459
 11
-46.3691
 21
43.5421
  0
LINE
  8
0
 10
-46.3691
 20
43.5421
 11
-46.4579
 21
43.6309
  0
LINE
  8
0
 10
-46.4579
 20
43.6309
 11
-46.541
 21
43.7251
  0
LINE
  8
0
 10
-46.541
 20
43.7251
 11
-46.618
 21
43.8244
  0
LINE
  8
0
 10
-46.618
 20
43.8244
 11
-46.6886
 21
43.9283
  0
LINE
  8
0
 10
-46.6886
 20
43.9283
 11
-46.7526
 21
44.0365
  0
LINE
  8
0
 10
-46.7526
 20
44.0365
 11
-46.8096
 21
44.1484
  0
LINE
  8
0
 10
-46.8096
 20
44.1484
 11
-46.8595
 21
44.2637
  0
LINE
  8
0
 10
-46.8595
 20
44.2637
 11
-46.9021
 21
44.382
  0
LINE
  8
0
 10
-46.9021
 20
44.382
 11
-46.9372
 21
44.5026
  0
LINE
  8
0
 10
-46.9372
 20
44.5026
 11
-46.9646
 21
44.6252
  0
LINE
  8
0
 10
-46.9646
 20
44.6252
 11
-46.9842
 21
44.7493
  0
LINE
  8
0
 10
-46.9842
 20
44.7493
 11
-46.996
 21
44.8744
  0
LINE
  8
0
 10
-46.996
 20
44.8744
 11
-47
 21
45
  0
LINE
  8
0
 10
-47
 20
45
 11
-46.996
 21
45.1256
  0
LINE
  8
0
 10
-46.996
 20
45.1256
 11
-46.9842
 21
45.2507
  0
LINE
  8
0
 10
-46.9842
 20
45.2507
 11
-46.9646
 21
45.3748
  0
LINE
  8
0
 10
-46.9646
 20
45.3748
 11
-46.9372
 21
45.4974
  0
LINE
  8
0
 10
-46.9372
 20
45.4974
 11
-46.9021
 21
45.618
  0
LINE
  8
0
 10
-46.9021
 20
45.618
 11
-46.8595
 21
45.7362
  0
LINE
  8
0
 10
-46.8595
 20
45.7362
 11
-46.8096
 21
45.8515
  0
LINE
  8
0
 10
-46.8096
 20
45.8515
 11
-46.7526
 21
45.9635
  0
LINE
  8
0
 10
-46.7526
 20
45.9635
 11
-46.6886
 21
46.0716
  0
LINE
  8
0
 10
-46.6886
 20
46.0716
 11
-46.618
 21
46.1756
  0
LINE
  8
0
 10
-46.618
 20
46.1756
 11
-46.541
 21
46.2748
  0
LINE
  8
0
 10
-46.541
 20
46.2748
 11
-46.4579
 21
46.3691
  0
LINE
  8
0
 10
-46.4579
 20
46.3691
 11
-46.3691
 21
46.4579
  0
LINE
  8
0
 10
-46.3691
 20
46.4579
 11
-46.2748
 21
46.541
  0
LINE
  8
0
 10
-46.2748
 20
46.541
 11
-46.1756
 21
46.618
  0
LINE
  8
0
 10
-46.1756
 20
46.618
 11
-46.0716
 21
46.6886
  0
LINE
  8
0
 10
-46.0716
 20
46.6886
 11
-45.9635
 21
46.7526
  0
LINE
  8
0
 10
-45.9635
 20
46.7526
 11
-45.8515
 21
46.8096
  0
LINE
  8
0
 10
-45.8515
 20
46.8096
 11
-45.7362
 21
46.8595
  0
LINE
  8
0
 10
-45.7362
 20
46.8595
 11
-45.618
 21
46.9021
  0
LINE
  8
0
 10
-45.618
 20
46.9021
 11
-45.4974
 21
46.9372
  0
LINE
  8
0
 10
-45.4974
 20
46.9372
 11
-45.3748
 21
46.9646
  0
LINE
  8
0
 10
-45.3748
 20
46.9646
 11
-45.2507
 21
46.9842
  0
LINE
  8
0
 10
-45.2507
 20
46.9842
 11
-45.1256
 21
46.996
  0
LINE
  8
0
 10
-45.1256
 20
46.996
 11
-45
 21
47
  0
LINE
  8
0
 10
-45
 20
47
 11
-44.8744
 21
46.996
  0
LINE
  8
0
 10
-44.8744
 20
46.996
 11
-44.7493
 21
46.9842
  0
LINE
  8
0
 10
-44.7493
 20
46.9842
 11
-44.6252
 21
46.9646
  0
LINE
  8
0
 10
-44.6252
 20
46.9646
 11
-44.5026
 21
46.9372
  0
LINE
  8
0
 10
-44.5026
 20
46.9372
 11
-44.382
 21
46.9021
  0
LINE
  8
0
 10
-44.382
 20
46.9021
 11
-44.2637
 21
46.8595
  0
LINE
  8
0
 10
-44.2637
 20
46.8595
 11
-44.1484
 21
46.8096
  0
LINE
  8
0
 10
-44.1484
 20
46.8096
 11
-44.0365
 21
46.7526
  0
LINE
  8
0
 10
-44.0365
 20
46.7526
 11
-43.9283
 21
46.6886
  0
LINE
  8
0
 10
-43.9283
 20
46.6886
 11
-43.8244
 21
46.618
  0
LINE
  8
0
 10
-43.8244
 20
46.618
 11
-43.7251
 21
46.541
  0
LINE
  8
0
 10
-43.7251
 20
46.541
 11
-43.6309
 21
46.4579
  0
LINE
  8
0
 10
-43.6309
 20
46.4579
 11
-43.5421
 21
46.3691
  0
LINE
  8
0
 10
-43.5421
 20
46.3691
 11
-43.459
 21
46.2748
  0
LINE
  8
0
 10
-43.459
 20
46.2748
 11
-43.382
 21
46.1756
  0
LINE
  8
0
 10
-43.382
 20
46.1756
 11
-43.3113
 21
46.0716
  0
LINE
  8
0
 10
-43.3113
 20
46.0716
 11
-43.2474
 21
45.9635
  0
LINE
  8
0
 10
-43.2474
 20
45.9635
 11
-43.1903
 21
45.8515
  0
LINE
  8
0
 10
-43.1903
 20
45.8515
 11
-43.1404
 21
45.7362
  0
LINE
  8
0
 10
-43.1404
 20
45.7362
 11
-43.0979
 21
45.618
  0
LINE
  8
0
 10
-43.0979
 20
45.618
 11
-43.0628
 21
45.4974
  0
LINE
  8
0
 10
-43.0628
 20
45.4974
 11
-43.0354
 21
45.3748
  0
LINE
  8
0
 10
-43.0354
 20
45.3748
 11
-43.0158
 21
45.2507
  0
LINE
  8
0
 10
-43.0158
 20
45.2507
 11
-43.0039
 21
45.1256
  0
LINE
  8
0
 10
-43.0039
 20
45.1256
 11
-43
 21
45
  0
LINE
  8
0
 10
-43
 20
45
 11
-43.0039
 21
44.8744
  0
LINE
  8
0
 10
-43.0039
 20
44.8744
 11
-43.0158
 21
44.7493
  0
LINE
  8
0
 10
-43.0158
 20
44.7493
 11
-43.0354
 21
44.6252
  0
LINE
  8
0
 10
-43.0354
 20
44.6252
 11
-43.0628
 21
44.5026
  0
LINE
  8
0
 10
-43.0628
 20
44.5026
 11
-43.0979
 21
44.382
  0
LINE
  8
0
 10
-43.0979
 20
44.382
 11
-43.1404
 21
44.2637
  0
LINE
  8
0
 10
-43.1404
 20
44.2637
 11
-43.1903
 21
44.1484
  0
LINE
  8
0
 10
-43.1903
 20
44.1484
 11
-43.2474
 21
44.0365
  0
LINE
  8
0
 10
-43.2474
 20
44.0365
 11
-43.3113
 21
43.9283
  0
LINE
  8
0
 10
-43.3113
 20
43.9283
 11
-43.382
 21
43.8244
  0
LINE
  8
0
 10
-43.382
 20
43.8244
 11
-43.459
 21
43.7251
  0
LINE
  8
0
 10
-43.459
 20
43.7251
 11
-43.5421
 21
43.6309
  0
LINE
  8
0
 10
-43.5421
 20
43.6309
 11
-43.6309
 21
43.5421
  0
LINE
  8
0
 10
-43.6309
 20
43.5421
 11
-43.7251
 21
43.459
  0
LINE
  8
0
 10
-43.7251
 20
43.459
 11
-43.8244
 21
43.382
  0
LINE
  8
0
 10
-43.8244
 20
43.382
 11
-43.9283
 21
43.3113
  0
LINE
  8
0
 10
-43.9283
 20
43.3113
 11
-44.0365
 21
43.2474
  0
LINE
  8
0
 10
-44.0365
 20
43.2474
 11
-44.1484
 21
43.1903
  0
LINE
  8
0
 10
-44.1484
 20
43.1903
 11
-44.2637
 21
43.1404
  0
LINE
  8
0
 10
-44.2637
 20
43.1404
 11
-44.382
 21
43.0979
  0
LINE
  8
0
 10
-44.382
 20
43.0979
 11
-44.5026
 21
43.0628
  0
LINE
  8
0
 10
-44.5026
 20
43.0628
 11
-44.6252
 21
43.0354
  0
LINE
  8
0
 10
-44.6252
 20
43.0354
 11
-44.7493
 21
43.0158
  0
LINE
  8
0
 10
-44.7493
 20
43.0158
 11
-44.8744
 21
43.0039
  0
LINE
  8
0
 10
-44.8744
 20
43.0039
 11
-45
 21
43
  0
LINE
  8
0
 10
-45
 20
43
 11
-45.1256
 21
43.0039
  0
LINE
  8
0
 10
-0.31395
 20
10.0099
 11
-0.626663
 21
10.0394
  0
LINE
  8
0
 10
-0.626663
 20
10.0394
 11
-0.936905
 21
10.0886
  0
LINE
  8
0
 10
-0.936905
 20
10.0886
 11
-1.24344
 21
10.1571
  0
LINE
  8
0
 10
-1.24344
 20
10.1571
 11
-1.54507
 21
10.2447
  0
LINE
  8
0
 10
-1.54507
 20
10.2447
 11
-1.84062
 21
10.3511
  0
LINE
  8
0
 10
-1.84062
 20
10.3511
 11
-2.12889
 21
10.4759
  0
LINE
  8
0
 10
-2.12889
 20
10.4759
 11
-2.40877
 21
10.6185
  0
LINE
  8
0
 10
-2.40877
 20
10.6185
 11
-2.67912
 21
10.7784
  0
LINE
  8
0
 10
-2.67912
 20
10.7784
 11
-2.93892
 21
10.9549
  0
LINE
  8
0
 10
-2.93892
 20
10.9549
 11
-3.18712
 21
11.1474
  0
LINE
  8
0
 10
-3.18712
 20
11.1474
 11
-3.42273
 21
11.3551
  0
LINE
  8
0
 10
-3.42273
 20
11.3551
 11
-3.64484
 21
11.5773
  0
LINE
  8
0
 10
-3.64484
 20
11.5773
 11
-3.85255
 21
11.8129
  0
LINE
  8
0
 10
-3.85255
 20
11.8129
 11
-4.04507
 21
12.0611
  0
LINE
  8
0
 10
-4.04507
 20
12.0611
 11
-4.22163
 21
12.3209
  0
LINE
  8
0
 10
-4.22163
 20
12.3209
 11
-4.38153
 21
12.5912
  0
LINE
  8
0
 10
-4.38153
 20
12.5912
 11
-4.52412
 21
12.8711
  0
LINE
  8
0
 10
-4.52412
 20
12.8711
 11
-4.64888
 21
13.1594
  0
LINE
  8
0
 10
-4.64888
 20
13.1594
 11
-4.75528
 21
13.4549
  0
LINE
  8
0
 10
-4.75528
 20
13.4549
 11
-4.84291
 21
13.7565
  0
LINE
  8
0
 10
-4.84291
 20
13.7565
 11
-4.91142
 21
14.0631
  0
LINE
  8
0
 10
-4.91142
 20
14.0631
 11
-4.96057
 21
14.3733
  0
LINE
  8
0
 10
-4.96057
 20
14.3733
 11
-4.99013
 21
14.686
  0
LINE
  8
0
 10
-4.99013
 20
14.686
 11
-5
 21
15
  0
LINE
  8
0
 10
-5
 20
15
 11
-4.99013
 21
15.3139
  0
LINE
  8
0
 10
-4.99013
 20
15.3139
 11
-4.96057
 21
15.6267
  0
LINE
  8
0
 10
-4.96057
 20
15.6267
 11
-4.91142
 21
15.9369
  0
LINE
  8
0
 10
-4.91142
 20
15.9369
 11
-4.84291
 21
16.2434
  0
LINE
  8
0
 10
-4.84291
 20
16.2434
 11
-4.75528
 21
16.5451
  0
LINE
  8
0
 10
-4.75528
 20
16.5451
 11
-4.64888
 21
16.8406
  0
LINE
  8
0
 10
-4.64888
 20
16.8406
 11
-4.52412
 21
17.1289
  0
LINE
  8
0
 10
-4.52412
 20
17.1289
 11
-4.38153
 21
17.4088
  0
LINE
  8
0
 10
-4.38153
 20
17.4088
 11
-4.22163
 21
17.6791
  0
LINE
  8
0
 10
-4.22163
 20
17.6791
 11
-4.04507
 21
17.9389
  0
LINE
  8
0
 10
-4.04507
 20
17.9389
 11
-3.85255
 21
18.1871
  0
LINE
  8
0
 10
-3.85255
 20
18.1871
 11
-3.64484
 21
18.4227
  0
LINE
  8
0
 10
-3.64484
 20
18.4227
 11
-3.42273
 21
18.6448
  0
LINE
  8
0
 10
-3.42273
 20
18.6448
 11
-3.18712
 21
18.8526
  0
LINE
  8
0
 10
-3.18712
 20
18.8526
 11
-2.93892
 21
19.0451
  0
LINE
  8
0
 10
-2.93892
 20
19.0451
 11
-2.67912
 21
19.2216
  0
LINE
  8
0
 10
-2.67912
 20
19.2216
 11
-2.40877
 21
19.3815
  0
LINE
  8
0
 10
-2.40877
 20
19.3815
 11
-2.12889
 21
19.5241
  0
LINE
  8
0
 10
-2.12889
 20
19.5241
 11
-1.84062
 21
19.6489
  0
LINE
  8
0
 10
-1.84062
 20
19.6489
 11
-1.54507
 21
19.7553
  0
LINE
  8
0
 10
-1.54507
 20
19.7553
 11
-1.24344
 21
19.8429
  0
LINE
  8
0
 10
-1.24344
 20
19.8429
 11
-0.936905
 21
19.9114
  0
LINE
  8
0
 10
-0.936905
 20
19.9114
 11
-0.626663
 21
19.9606
  0
LINE
  8
0
 10
-0.626663
 20
19.9606
 11
-0.31395
 21
19.9901
  0
LINE
  8
0
 10
-0.31395
 20
19.9901
 11
0
 21
20
  0
LINE
  8
0
 10
0
 20
20
 11
0.31395
 21
19.9901
  0
LINE
  8
0
 10
0.31395
 20
19.9901
 11
0.626663
 21
19.9606
  0
LINE
  8
0
 10
0.626663
 20
19.9606
 11
0.936905
 21
19.9114
  0
LINE
  8
0
 10
0.936905
 20
19.9114
 11
1.24344
 21
19.8429
  0
LINE
  8
0
 10
1.24344
 20
19.8429
 11
1.54507
 21
19.7553
  0
LINE
  8
0
 10
1.54507
 20
19.7553
 11
1.84062
 21
19.6489
  0
LINE
  8
0
 10
1.84062
 20
19.6489
 11
2.12889
 21
19.5241
  0
LINE
  8
0
 10
2.12889
 20
19.5241
 11
2.40877
 21
19.3815
  0
LINE
  8
0
 10
2.40877
 20
19.3815
 11
2.67912
 21
19.2216
  0
LINE
  8
0
 10
2.67912
 20
19.2216
 11
2.93892
 21
19.0451
  0
LINE
  8
0
 10
2.93892
 20
19.0451
 11
3.18712
 21
18.8526
  0
LINE
  8
0
 10
3.18712
 20
18.8526
 11
3.42273
 21
18.6448
  0
LINE
  8
0
 10
3.42273
 20
18.6448
 11
3.64484
 21
18.4227
  0
LINE
  8
0
 10
3.64484
 20
18.4227
 11
3.85255
 21
18.1871
  0
LINE
  8
0
 10
3.85255
 20
18.1871
 11
4.04507
 21
17.9389
  0
LINE
  8
0
 10
4.04507
 20
17.9389
 11
4.22163
 21
17.6791
  0
LINE
  8
0
 10
4.22163
 20
17.6791
 11
4.38153
 21
17.4088
  0
LINE
  8
0
 10
4.38153
 20
17.4088
 11
4.52412
 21
17.1289
  0
LINE
  8
0
 10
4.52412
 20
17.1289
 11
4.64888
 21
16.8406
  0
LINE
  8
0
 10
4.64888
 20
16.8406
 11
4.75528
 21
16.5451
  0
LINE
  8
0
 10
4.75528
 20
16.5451
 11
4.84291
 21
16.2434
  0
LINE
  8
0
 10
4.84291
 20
16.2434
 11
4.91142
 21
15.9369
  0
LINE
  8
0
 10
4.91142
 20
15.9369
 11
4.96057
 21
15.6267
  0
LINE
  8
0
 10
4.96057
 20
15.6267
 11
4.99013
 21
15.3139
  0
LINE
  8
0
 10
4.99013
 20
15.3139
 11
5
 21
15
  0
LINE
  8
0
 10
5
 20
15
 11
4.99013
 21
14.686
  0
LINE
  8
0
 10
4.99013
 20
14.686
 11
4.96057
 21
14.3733
  0
LINE
  8
0
 10
4.96057
 20
14.3733
 11
4.91142
 21
14.0631
  0
LINE
  8
0
 10
4.91142
 20
14.0631
 11
4.84291
 21
13.7565
  0
LINE
  8
0
 10
4.84291
 20
13.7565
 11
4.75528
 21
13.4549
  0
LINE
  8
0
 10
4.75528
 20
13.4549
 11
4.64888
 21
13.1594
  0
LINE
  8
0
 10
4.64888
 20
13.1594
 11
4.52412
 21
12.8711
  0
LINE
  8
0
 10
4.52412
 20
12.8711
 11
4.38153
 21
12.5912
  0
LINE
  8
0
 10
4.38153
 20
12.5912
 11
4.22163
 21
12.3209
  0
LINE
  8
0
 10
4.22163
 20
12.3209
 11
4.04507
 21
12.0611
  0
LINE
  8
0
 10
4.04507
 20
12.0611
 11
3.85255
 21
11.8129
  0
LINE
  8
0
 10
3.85255
 20
11.8129
 11
3.64484
 21
11.5773
  0
LINE
  8
0
 10
3.64484
 20
11.5773
 11
3.42273
 21
11.3551
  0
LINE
  8
0
 10
3.42273
 20
11.3551
 11
3.18712
 21
11.1474
  0
LINE
  8
0
 10
3.18712
 20
11.1474
 11
2.93892
 21
10.9549
  0
LINE
  8
0
 10
2.93892
 20
10.9549
 11
2.67912
 21
10.7784
  0
LINE
  8
0
 10
2.67912
 20
10.7784
 11
2.40877
 21
10.6185
  0
LINE
  8
0
 10
2.40877
 20
10.6185
 11
2.12889
 21
10.4759
  0
LINE
  8
0
 10
2.12889
 20
10.4759
 11
1.84062
 21
10.3511
  0
LINE
  8
0
 10
1.84062
 20
10.3511
 11
1.54507
 21
10.2447
  0
LINE
  8
0
 10
1.54507
 20
10.2447
 11
1.24344
 21
10.1571
  0
LINE
  8
0
 10
1.24344
 20
10.1571
 11
0.936905
 21
10.0886
  0
LINE
  8
0
 10
0.936905
 20
10.0886
 11
0.626663
 21
10.0394
  0
LINE
  8
0
 10
0.626663
 20
10.0394
 11
0.31395
 21
10.0099
  0
LINE
  8
0
 10
0.31395
 20
10.0099
 11
0
 21
10
  0
LINE
  8
0
 10
0
 20
10
 11
-0.31395
 21
10.0099
  0
LINE
  8
0
 10
-0.25116
 20
-18.9921
 11
-0.501328
 21
-18.9684
  0
LINE
  8
0
 10
-0.501328
 20
-18.9684
 11
-0.749512
 21
-18.9291
  0
LINE
  8
0
 10
-0.749512
 20
-18.9291
 11
-0.994751
 21
-18.8743
  0
LINE
  8
0
 10
-0.994751
 20
-18.8743
 11
-1.23605
 21
-18.8042
  0
LINE
  8
0
 10
-1.23605
 20
-18.8042
 11
-1.47249
 21
-18.7191
  0
LINE
  8
0
 10
-1.47249
 20
-18.7191
 11
-1.70311
 21
-18.6193
  0
LINE
  8
0
 10
-1.70311
 20
-18.6193
 11
-1.927
 21
-18.5052
  0
LINE
  8
0
 10
-1.927
 20
-18.5052
 11
-2.1433
 21
-18.3773
  0
LINE
  8
0
 10
-2.1433
 20
-18.3773
 11
-2.35114
 21
-18.2361
  0
LINE
  8
0
 10
-2.35114
 20
-18.2361
 11
-2.54968
 21
-18.082
  0
LINE
  8
0
 10
-2.54968
 20
-18.082
 11
-2.73817
 21
-17.9159
  0
LINE
  8
0
 10
-2.73817
 20
-17.9159
 11
-2.91586
 21
-17.7382
  0
LINE
  8
0
 10
-2.91586
 20
-17.7382
 11
-3.08205
 21
-17.5497
  0
LINE
  8
0
 10
-3.08205
 20
-17.5497
 11
-3.23605
 21
-17.3511
  0
LINE
  8
0
 10
-3.23605
 20
-17.3511
 11
-3.3773
 21
-17.1433
  0
LINE
  8
0
 10
-3.3773
 20
-17.1433
 11
-3.50522
 21
-16.927
  0
LINE
  8
0
 10
-3.50522
 20
-16.927
 11
-3.61929
 21
-16.7031
  0
LINE
  8
0
 10
-3.61929
 20
-16.7031
 11
-3.7191
 21
-16.4725
  0
LINE
  8
0
 10
-3.7191
 20
-16.4725
 11
-3.80421
 21
-16.2361
  0
LINE
  8
0
 10
-3.80421
 20
-16.2361
 11
-3.87433
 21
-15.9948
  0
LINE
  8
0
 10
-3.87433
 20
-15.9948
 11
-3.92914
 21
-15.7495
  0
LINE
  8
0
 10
-3.92914
 20
-15.7495
 11
-3.96844
 21
-15.5013
  0
LINE
  8
0
 10
-3.96844
 20
-15.5013
 11
-3.9921
 21
-15.2512
  0
LINE
  8
0
 10
-3.9921
 20
-15.2512
 11
-4
 21
-15
  0
LINE
  8
0
 10
-4
 20
-15
 11
-3.9921
 21
-14.7488
  0
LINE
  8
0
 10
-3.9921
 20
-14.7488
 11
-3.96844
 21
-14.4987
  0
LINE
  8
0
 10
-3.96844
 20
-14.4987
 11
-3.92914
 21
-14.2505
  0
LINE
  8
0
 10
-3.92914
 20
-14.2505
 11
-3.87433
 21
-14.0052
  0
LINE
  8
0
 10
-3.87433
 20
-14.0052
 11
-3.80421
 21
-13.7639
  0
LINE
  8
0
 10
-3.80421
 20
-13.7639
 11
-3.7191
 21
-13.5275
  0
LINE
  8
0
 10
-3.7191
 20
-13.5275
 11
-3.61929
 21
-13.2969
  0
LINE
  8
0
 10
-3.61929
 20
-13.2969
 11
-3.50522
 21
-13.073
  0
LINE
  8
0
 10
-3.50522
 20
-13.073
 11
-3.3773
 21
-12.8567
  0
LINE
  8
0
 10
-3.3773
 20
-12.8567
 11
-3.23605
 21
-12.6488
  0
LINE
  8
0
 10
-3.23605
 20
-12.6488
 11
-3.08205
 21
-12.4503
  0
LINE
  8
0
 10
-3.08205
 20
-12.4503
 11
-2.91586
 21
-12.2618
  0
LINE
  8
0
 10
-2.91586
 20
-12.2618
 11
-2.73817
 21
-12.0841
  0
LINE
  8
0
 10
-2.73817
 20
-12.0841
 11
-2.54968
 21
-11.9179
  0
LINE
  8
0
 10
-2.54968
 20
-11.9179
 11
-2.35114
 21
-11.7639
  0
LINE
  8
0
 10
-2.35114
 20
-11.7639
 11
-2.1433
 21
-11.6227
  0
LINE
  8
0
 10
-2.1433
 20
-11.6227
 11
-1.927
 21
-11.4948
  0
LINE
  8
0
 10
-1.927
 20
-11.4948
 11
-1.70311
 21
-11.3807
  0
LINE
  8
0
 10
-1.70311
 20
-11.3807
 11
-1.47249
 21
-11.2809
  0
LINE
  8
0
 10
-1.47249
 20
-11.2809
 11
-1.23605
 21
-11.1958
  0
LINE
  8
0
 10
-1.23605
 20
-11.1958
 11
-0.994751
 21
-11.1257
  0
LINE
  8
0
 10
-0.994751
 20
-11.1257
 11
-0.749512
 21
-11.0708
  0
LINE
  8
0
 10
-0.749512
 20
-11.0708
 11
-0.501328
 21
-11.0315
  0
LINE
  8
0
 10
-0.501328
 20
-11.0315
 11
-0.25116
 21
-11.0079
  0
LINE
  8
0
 10
-0.25116
 20
-11.0079
 11
0
 21
-11
  0
LINE
  8
0
 10
0
 20
-11
 11
0.25116
 21
-11.0079
  0
LINE
  8
0
 10
0.25116
 20
-11.0079
 11
0.501328
 21
-11.0315
  0
LINE
  8
0
 10
0.501328
 20
-11.0315
 11
0.749512
 21
-11.0708
  0
LINE
  8
0
 10
0.749512
 20
-11.0708
 11
0.994751
 21
-11.1257
  0
LINE
  8
0
 10
0.994751
 20
-11.1257
 11
1.23605
 21
-11.1958
  0
LINE
  8
0
 10
1.23605
 20
-11.1958
 11
1.47249
 21
-11.2809
  0
LINE
  8
0
 10
1.47249
 20
-11.2809
 11
1.70311
 21
-11.3807
  0
LINE
  8
0
 10
1.70311
 20
-11.3807
 11
1.927
 21
-11.4948
  0
LINE
  8
0
 10
1.927
 20
-11.4948
 11
2.1433
 21
-11.6227
  0
LINE
  8
0
 10
2.1433
 20
-11.6227
 11
2.35114
 21
-11.7639
  0
LINE
  8
0
 10
2.35114
 20
-11.7639
 11
2.54968
 21
-11.9179
  0
LINE
  8
0
 10
2.54968
 20
-11.9179
 11
2.73817
 21
-12.0841
  0
LINE
  8
0
 10
2.73817
 20
-12.0841
 11
2.91586
 21
-12.2618
  0
LINE
  8
0
 10
2.91586
 20
-12.2618
 11
3.08205
 21
-12.4503
  0
LINE
  8
0
 10
3.08205
 20
-12.4503
 11
3.23605
 21
-12.6488
  0
LINE
  8
0
 10
3.23605
 20
-12.6488
 11
3.3773
 21
-12.8567
  0
LINE
  8
0
 10
3.3773
 20
-12.8567
 11
3.50522
 21
-13.073
  0
LINE
  8
0
 10
3.50522
 20
-13.073
 11
3.61929
 21
-13.2969
  0
LINE
  8
0
 10
3.61929
 20
-13.2969
 11
3.7191
 21
-13.5275
  0
LINE
  8
0
 10
3.7191
 20
-13.5275
 11
3.80421
 21
-13.7639
  0
LINE
  8
0
 10
3.80421
 20
-13.7639
 11
3.87433
 21
-14.0052
  0
LINE
  8
0
 10
3.87433
 20
-14.0052
 11
3.92914
 21
-14.2505
  0
LINE
  8
0
 10
3.92914
 20
-14.2505
 11
3.96844
 21
-14.4987
  0
LINE
  8
0
 10
3.96844
 20
-14.4987
 11
3.9921
 21
-14.7488
  0
LINE
  8
0
 10
3.9921
 20
-14.7488
 11
4
 21
-15
  0
LINE
  8
0
 10
4
 20
-15
 11
3.9921
 21
-15.2512
  0
LINE
  8
0
 10
3.9921
 20
-15.2512
 11
3.96844
 21
-15.5013
  0
LINE
  8
0
 10
3.96844
 20
-15.5013
 11
3.92914
 21
-15.7495
  0
LINE
  8
0
 10
3.92914
 20
-15.7495
 11
3.87433
 21
-15.9948
  0
LINE
  8
0
 10
3.87433
 20
-15.9948
 11
3.80421
 21
-16.2361
  0
LINE
  8
0
 10
3.80421
 20
-16.2361
 11
3.7191
 21
-16.4725
  0
LINE
  8
0
 10
3.7191
 20
-16.4725
 11
3.61929
 21
-16.7031
  0
LINE
  8
0
 10
3.61929
 20
-16.7031
 11
3.50522
 21
-16.927
  0
LINE
  8
0
 10
3.50522
 20
-16.927
 11
3.3773
 21
-17.1433
  0
LINE
  8
0
 10
3.3773
 20
-17.1433
 11
3.23605
 21
-17.3511
  0
LINE
  8
0
 10
3.23605
 20
-17.3511
 11
3.08205
 21
-17.5497
  0
LINE
  8
0
 10
3.08205
 20
-17.5497
 11
2.91586
 21
-17.7382
  0
LINE
  8
0
 10
2.91586
 20
-17.7382
 11
2.73817
 21
-17.9159
  0
LINE
  8
0
 10
2.73817
 20
-17.9159
 11
2.54968
 21
-18.082
  0
LINE
  8
0
 10
2.54968
 20
-18.082
 11
2.35114
 21
-18.2361
  0
LINE
  8
0
 10
2.35114
 20
-18.2361
 11
2.1433
 21
-18.3773
  0
LINE
  8
0
 10
2.1433
 20
-18.3773
 11
1.927
 21
-18.5052
  0
LINE
  8
0
 10
1.927
 20
-18.5052
 11
1.70311
 21
-18.6193
  0
LINE
  8
0
 10
1.70311
 20
-18.6193
 11
1.47249
 21
-18.7191
  0
LINE
  8
0
 10
1.47249
 20
-18.7191
 11
1.23605
 21
-18.8042
  0
LINE
  8
0
 10
1.23605
 20
-18.8042
 11
0.994751
 21
-18.8743
  0
LINE
  8
0
 10
0.994751
 20
-18.8743
 11
0.749512
 21
-18.9291
  0
LINE
  8
0
 10
0.749512
 20
-18.9291
 11
0.501328
 21
-18.9684
  0
LINE
  8
0
 10
0.501328
 20
-18.9684
 11
0.25116
 21
-18.9921
  0
LINE
  8
0
 10
0.25116
 20
-18.9921
 11
0
 21
-19
  0
LINE
  8
0
 10
0
 20
-19
 11
-0.25116
 21
-18.9921
  0
LINE
  8
0
 10
-45.1256
 20
-46.996
 11
-45.2507
 21
-46.9842
  0
LINE
  8
0
 10
-45.2507
 20
-46.9842
 11
-45.3748
 21
-46.9646
  0
LINE
  8
0
 10
-45.3748
 20
-46.9646
 11
-45.4974
 21
-46.9372
  0
LINE
  8
0
 10
-45.4974
 20
-46.9372
 11
-45.618
 21
-46.9021
  0
LINE
  8
0
 10
-45.618
 20
-46.9021
 11
-45.7362
 21
-46.8595
  0
LINE
  8
0
 10
-45.7362
 20
-46.8595
 11
-45.8515
 21
-46.8096
  0
LINE
  8
0
 10
-45.8515
 20
-46.8096
 11
-45.9635
 21
-46.7526
  0
LINE
  8
0
 10
-45.9635
 20
-46.7526
 11
-46.0716
 21
-46.6886
  0
LINE
  8
0
 10
-46.0716
 20
-46.6886
 11
-46.1756
 21
-46.618
  0
LINE
  8
0
 10
-46.1756
 20
-46.618
 11
-46.2748
 21
-46.541
  0
LINE
  8
0
 10
-46.2748
 20
-46.541
 11
-46.3691
 21
-46.4579
  0
LINE
  8
0
 10
-46.3691
 20
-46.4579
 11
-46.4579
 21
-46.3691
  0
LINE
  8
0
 10
-46.4579
 20
-46.3691
 11
-46.541
 21
-46.2748
  0
LINE
  8
0
 10
-46.541
 20
-46.2748
 11
-46.618
 21
-46.1756
  0
LINE
  8
0
 10
-46.618
 20
-46.1756
 11
-46.6886
 21
-46.0716
  0
LINE
  8
0
 10
-46.6886
 20
-46.0716
 11
-46.7526
 21
-45.9635
  0
LINE
  8
0
 10
-46.7526
 20
-45.9635
 11
-46.8096
 21
-45.8515
  0
LINE
  8
0
 10
-46.8096
 20
-45.8515
 11
-46.8595
 21
-45.7362
  0
LINE
  8
0
 10
-46.8595
 20
-45.7362
 11
-46.9021
 21
-45.618
  0
LINE
  8
0
 10
-46.9021
 20
-45.618
 11
-46.9372
 21
-45.4974
  0
LINE
  8
0
 10
-46.9372
 20
-45.4974
 11
-46.9646
 21
-45.3748
  0
LINE
  8
0
 10
-46.9646
 20
-45.3748
 11
-46.9842
 21
-45.2507
  0
LINE
  8
0
 10
-46.9842
 20
-45.2507
 11
-46.996
 21
-45.1256
  0
LINE
  8
0
 10
-46.996
 20
-45.1256
 11
-47
 21
-45
  0
LINE
  8
0
 10
-47
 20
-45
 11
-46.996
 21
-44.8744
  0
LINE
  8
0
 10
-46.996
 20
-44.8744
 11
-46.9842
 21
-44.7493
  0
LINE
  8
0
 10
-46.9842
 20
-44.7493
 11
-46.9646
 21
-44.6252
  0
LINE
  8
0
 10
-46.9646
 20
-44.6252
 11
-46.9372
 21
-44.5026
  0
LINE
  8
0
 10
-46.9372
 20
-44.5026
 11
-46.9021
 21
-44.382
  0
LINE
  8
0
 10
-46.9021
 20
-44.382
 11
-46.8595
 21
-44.2637
  0
LINE
  8
0
 10
-46.8595
 20
-44.2637
 11
-46.8096
 21
-44.1484
  0
LINE
  8
0
 10
-46.8096
 20
-44.1484
 11
-46.7526
 21
-44.0365
  0
LINE
  8
0
 10
-46.7526
 20
-44.0365
 11
-46.6886
 21
-43.9283
  0
LINE
  8
0
 10
-46.6886
 20
-43.9283
 11
-46.618
 21
-43.8244
  0
LINE
  8
0
 10
-46.618
 20
-43.8244
 11
-46.541
 21
-43.7251
  0
LINE
  8
0
 10
-46.541
 20
-43.7251
 11
-46.4579
 21
-43.6309
  0
LINE
  8
0
 10
-46.4579
 20
-43.6309
 11
-46.3691
 21
-43.5421
  0
LINE
  8
0
 10
-46.3691
 20
-43.5421
 11
-46.2748
 21
-43.459
  0
LINE
  8
0
 10
-46.2748
 20
-43.459
 11
-46.1756
 21
-43.382
  0
LINE
  8
0
 10
-46.1756
 20
-43.382
 11
-46.0716
 21
-43.3113
  0
LINE
  8
0
 10
-46.0716
 20
-43.3113
 11
-45.9635
 21
-43.2474
  0
LINE
  8
0
 10
-45.9635
 20
-43.2474
 11
-45.8515
 21
-43.1903
  0
LINE
  8
0
 10
-45.8515
 20
-43.1903
 11
-45.7362
 21
-43.1404
  0
LINE
  8
0
 10
-45.7362
 20
-43.1404
 11
-45.618
 21
-43.0979
  0
LINE
  8
0
 10
-45.618
 20
-43.0979
 11
-45.4974
 21
-43.0628
  0
LINE
  8
0
 10
-45.4974
 20
-43.0628
 11
-45.3748
 21
-43.0354
  0
LINE
  8
0
 10
-45.3748
 20
-43.0354
 11
-45.2507
 21
-43.0158
  0
LINE
  8
0
 10
-45.2507
 20
-43.0158
 11
-45.1256
 21
-43.0039
  0
LINE
  8
0
 10
-45.1256
 20
-43.0039
 11
-45
 21
-43
  0
LINE
  8
0
 10
-45
 20
-43
 11
-44.8744
 21
-43.0039
  0
LINE
  8
0
 10
-44.8744
 20
-43.0039
 11
-44.7493
 21
-43.0158
  0
LINE
  8
0
 10
-44.7493
 20
-43.0158
 11
-44.6252
 21
-43.0354
  0
LINE
  8
0
 10
-44.6252
 20
-43.0354
 11
-44.5026
 21
-43.0628
  0
LINE
  8
0
 10
-44.5026
 20
-43.0628
 11
-44.382
 21
-43.0979
  0
LINE
  8
0
 10
-44.382
 20
-43.0979
 11
-44.2637
 21
-43.1404
  0
LINE
  8
0
 10
-44.2637
 20
-43.1404
 11
-44.1484
 21
-43.1903
  0
LINE
  8
0
 10
-44.1484
 20
-43.1903
 11
-44.0365
 21
-43.2474
  0
LINE
  8
0
 10
-44.0365
 20
-43.2474
 11
-43.9283
 21
-43.3113
  0
LINE
  8
0
 10
-43.9283
 20
-43.3113
 11
-43.8244
 21
-43.382
  0
LINE
  8
0
 10
-43.8244
 20
-43.382
 11
-43.7251
 21
-43.459
  0
LINE
  8
0
 10
-43.7251
 20
-43.459
 11
-43.6309
 21
-43.5421
  0
LINE
  8
0
 10
-43.6309
 20
-43.5421
 11
-43.5421
 21
-43.6309
  0
LINE
  8
0
 10
-43.5421
 20
-43.6309
 11
-43.459
 21
-43.7251
  0
LINE
  8
0
 10
-43.459
 20
-43.7251
 11
-43.382
 21
-43.8244
  0
LINE
  8
0
 10
-43.382
 20
-43.8244
 11
-43.3113
 21
-43.9283
  0
LINE
  8
0
 10
-43.3113
 20
-43.9283
 11
-43.2474
 21
-44.0365
  0
LINE
  8
0
 10
-43.2474
 20
-44.0365
 11
-43.1903
 21
-44.1484
  0
LINE
  8
0
 10
-43.1903
 20
-44.1484
 11
-43.1404
 21
-44.2637
  0
LINE
  8
0
 10
-43.1404
 20
-44.2637
 11
-43.0979
 21
-44.382
  0
LINE
  8
0
 10
-43.0979
 20
-44.382
 11
-43.0628
 21
-44.5026
  0
LINE
  8
0
 10
-43.0628
 20
-44.5026
 11
-43.0354
 21
-44.6252
  0
LINE
  8
0
 10
-43.0354
 20
-44.6252
 11
-43.0158
 21
-44.7493
  0
LINE
  8
0
 10
-43.0158
 20
-44.7493
 11
-43.0039
 21
-44.8744
  0
LINE
  8
0
 10
-43.0039
 20
-44.8744
 11
-43
 21
-45
  0
LINE
  8
0
 10
-43
 20
-45
 11
-43.0039
 21
-45.1256
  0
LINE
  8
0
 10
-43.0039
 20
-45.1256
 11
-43.0158
 21
-45.2507
  0
LINE
  8
0
 10
-43.0158
 20
-45.2507
 11
-43.0354
 21
-45.3748
  0
LINE
  8
0
 10
-43.0354
 20
-45.3748
 11
-43.0628
 21
-45.4974
  0
LINE
  8
0
 10
-43.0628
 20
-45.4974
 11
-43.0979
 21
-45.618
  0
LINE
  8
0
 10
-43.0979
 20
-45.618
 11
-43.1404
 21
-45.7362
  0
LINE
  8
0
 10
-43.1404
 20
-45.7362
 11
-43.1903
 21
-45.8515
  0
LINE
  8
0
 10
-43.1903
 20
-45.8515
 11
-43.2474
 21
-45.9635
  0
LINE
  8
0
 10
-43.2474
 20
-45.9635
 11
-43.3113
 21
-46.0716
  0
LINE
  8
0
 10
-43.3113
 20
-46.0716
 11
-43.382
 21
-46.1756
  0
LINE
  8
0
 10
-43.382
 20
-46.1756
 11
-43.459
 21
-46.2748
  0
LINE
  8
0
 10
-43.459
 20
-46.2748
 11
-43.5421
 21
-46.3691
  0
LINE
  8
0
 10
-43.5421
 20
-46.3691
 11
-43.6309
 21
-46.4579
  0
LINE
  8
0
 10
-43.6309
 20
-46.4579
 11
-43.7251
 21
-46.541
  0
LINE
  8
0
 10
-43.7251
 20
-46.541
 11
-43.8244
 21
-46.618
  0
LINE
  8
0
 10
-43.8244
 20
-46.618
 11
-43.9283
 21
-46.6886
  0
LINE
  8
0
 10
-43.9283
 20
-46.6886
 11
-44.0365
 21
-46.7526
  0
LINE
  8
0
 10
-44.0365
 20
-46.7526
 11
-44.1484
 21
-46.8096
  0
LINE
  8
0
 10
-44.1484
 20
-46.8096
 11
-44.2637
 21
-46.8595
  0
LINE
  8
0
 10
-44.2637
 20
-46.8595
 11
-44.382
 21
-46.9021
  0
LINE
  8
0
 10
-44.382
 20
-46.9021
 11
-44.5026
 21
-46.9372
  0
LINE
  8
0
 10
-44.5026
 20
-46.9372
 11
-44.6252
 21
-46.9646
  0
LINE
  8
0
 10
-44.6252
 20
-46.9646
 11
-44.7493
 21
-46.9842
  0
LINE
  8
0
 10
-44.7493
 20
-46.9842
 11
-44.8744
 21
-46.996
  0
LINE
  8
0
 10
-44.8744
 20
-46.996
 11
-45
 21
-47
  0
LINE
  8
0
 10
-45
 20
-47
 11
-45.1256
 21
-46.996
  0
LINE
  8
0
 10
44.8744
 20
-46.996
 11
44.7493
 21
-46.9842
  0
LINE
  8
0
 10
44.7493
 20
-46.9842
 11
44.6252
 21
-46.9646
  0
LINE
  8
0
 10
44.6252
 20
-46.9646
 11
44.5026
 21
-46.9372
  0
LINE
  8
0
 10
44.5026
 20
-46.9372
 11
44.382
 21
-46.9021
  0
LINE
  8
0
 10
44.382
 20
-46.9021
 11
44.2637
 21
-46.8595
  0
LINE
  8
0
 10
44.2637
 20
-46.8595
 11
44.1484
 21
-46.8096
  0
LINE
  8
0
 10
44.1484
 20
-46.8096
 11
44.0365
 21
-46.7526
  0
LINE
  8
0
 10
44.0365
 20
-46.7526
 11
43.9283
 21
-46.6886
  0
LINE
  8
0
 10
43.9283
 20
-46.6886
 11
43.8244
 21
-46.618
  0
LINE
  8
0
 10
43.8244
 20
-46.618
 11
43.7251
 21
-46.541
  0
LINE
  8
0
 10
43.7251
 20
-46.541
 11
43.6309
 21
-46.4579
  0
LINE
  8
0
 10
43.6309
 20
-46.4579
 11
43.5421
 21
-46.3691
  0
LINE
  8
0
 10
43.5421
 20
-46.3691
 11
43.459
 21
-46.2748
  0
LINE
  8
0
 10
43.459
 20
-46.2748
 11
43.382
 21
-46.1756
  0
LINE
  8
0
 10
43.382
 20
-46.1756
 11
43.3113
 21
-46.0716
  0
LINE
  8
0
 10
43.3113
 20
-46.0716
 11
43.2474
 21
-45.9635
  0
LINE
  8
0
 10
43.2474
 20
-45.9635
 11
43.1903
 21
-45.8515
  0
LINE
  8
0
 10
43.1903
 20
-45.8515
 11
43.1404
 21
-45.7362
  0
LINE
  8
0
 10
43.1404
 20
-45.7362
 11
43.0979
 21
-45.618
  0
LINE
  8
0
 10
43.0979
 20
-45.618
 11
43.0628
 21
-45.4974
  0
LINE
  8
0
 10
43.0628
 20
-45.4974
 11
43.0354
 21
-45.3748
  0
LINE
  8
0
 10
43.0354
 20
-45.3748
 11
43.0158
 21
-45.2507
  0
LINE
  8
0
 10
43.0158
 20
-45.2507
 11
43.0039
 21
-45.1256
  0
LINE
  8
0
 10
43.0039
 20
-45.1256
 11
43
 21
-45
  0
LINE
  8
0
 10
43
 20
-45
 11
43.0039
 21
-44.8744
  0
LINE
  8
0
 10
43.0039
 20
-44.8744
 11
43.0158
 21
-44.7493
  0
LINE
  8
0
 10
43.0158
 20
-44.7493
 11
43.0354
 21
-44.6252
  0
LINE
  8
0
 10
43.0354
 20
-44.6252
 11
43.0628
 21
-44.5026
  0
LINE
  8
0
 10
43.0628
 20
-44.5026
 11
43.0979
 21
-44.382
  0
LINE
  8
0
 10
43.0979
 20
-44.382
 11
43.1404
 21
-44.2637
  0
LINE
  8
0
 10
43.1404
 20
-44.2637
 11
43.1903
 21
-44.1484
  0
LINE
  8
0
 10
43.1903
 20
-44.1484
 11
43.2474
 21
-44.0365
  0
LINE
  8
0
 10
43.2474
 20
-44.0365
 11
43.3113
 21
-43.9283
  0
LINE
  8
0
 10
43.3113
 20
-43.9283
 11
43.382
 21
-43.8244
  0
LINE
  8
0
 10
43.382
 20
-43.8244
 11
43.459
 21
-43.7251
  0
LINE
  8
0
 10
43.459
 20
-43.7251
 11
43.5421
 21
-43.6309
  0
LINE
  8
0
 10
43.5421
 20
-43.6309
 11
43.6309
 21
-43.5421
  0
LINE
  8
0
 10
43.6309
 20
-43.5421
 11
43.7251
 21
-43.459
  0
LINE
  8
0
 10
43.7251
 20
-43.459
 11
43.8244
 21
-43.382
  0
LINE
  8
0
 10
43.8244
 20
-43.382
 11
43.9283
 21
-43.3113
  0
LINE
  8
0
 10
43.9283
 20
-43.3113
 11
44.0365
 21
-43.2474
  0
LINE
  8
0
 10
44.0365
 20
-43.2474
 11
44.1484
 21
-43.1903
  0
LINE
  8
0
 10
44.1484
 20
-43.1903
 11
44.2637
 21
-43.1404
  0
LINE
  8
0
 10
44.2637
 20
-43.1404
 11
44.382
 21
-43.0979
  0
LINE
  8
0
 10
44.382
 20
-43.0979
 11
44.5026
 21
-43.0628
  0
LINE
  8
0
 10
44.5026
 20
-43.0628
 11
44.6252
 21
-43.0354
  0
LINE
  8
0
 10
44.6252
 20
-43.0354
 11
44.7493
 21
-43.0158
  0
LINE
  8
0
 10
44.7493
 20
-43.0158
 11
44.8744
 21
-43.0039
  0
LINE
  8
0
 10
44.8744
 20
-43.0039
 11
45
 21
-43
  0
LINE
  8
0
 10
45
 20
-43
 11
45.1256
 21
-43.0039
  0
LINE
  8
0
 10
45.1256
 20
-43.0039
 11
45.2507
 21
-43.0158
  0
LINE
  8
0
 10
45.2507
 20
-43.0158
 11
45.3748
 21
-43.0354
  0
LINE
  8
0
 10
45.3748
 20
-43.0354
 11
45.4974
 21
-43.0628
  0
LINE
  8
0
 10
45.4974
 20
-43.0628
 11
45.618
 21
-43.0979
  0
LINE
  8
0
 10
45.618
 20
-43.0979
 11
45.7362
 21
-43.1404
  0
LINE
  8
0
 10
45.7362
 20
-43.1404
 11
45.8515
 21
-43.1903
  0
LINE
  8
0
 10
45.8515
 20
-43.1903
 11
45.9635
 21
-43.2474
  0
LINE
  8
0
 10
45.9635
 20
-43.2474
 11
46.0716
 21
-43.3113
  0
LINE
  8
0
 10
46.0716
 20
-43.3113
 11
46.1756
 21
-43.382
  0
LINE
  8
0
 10
46.1756
 20
-43.382
 11
46.2748
 21
-43.459
  0
LINE
  8
0
 10
46.2748
 20
-43.459
 11
46.3691
 21
-43.5421
  0
LINE
  8
0
 10
46.3691
 20
-43.5421
 11
46.4579
 21
-43.6309
  0
LINE
  8
0
 10
46.4579
 20
-43.6309
 11
46.541
 21
-43.7251
  0
LINE
  8
0
 10
46.541
 20
-43.7251
 11
46.618
 21
-43.8244
  0
LINE
  8
0
 10
46.618
 20
-43.8244
 11
46.6886
 21
-43.9283
  0
LINE
  8
0
 10
46.6886
 20
-43.9283
 11
46.7526
 21
-44.0365
  0
LINE
  8
0
 10
46.7526
 20
-44.0365
 11
46.8096
 21
-44.1484
  0
LINE
  8
0
 10
46.8096
 20
-44.1484
 11
46.8595
 21
-44.2637
  0
LINE
  8
0
 10
46.8595
 20
-44.2637
 11
46.9021
 21
-44.382
  0
LINE
  8
0
 10
46.9021
 20
-44.382
 11
46.9372
 21
-44.5026
  0
LINE
  8
0
 10
46.9372
 20
-44.5026
 11
46.9646
 21
-44.6252
  0
LINE
  8
0
 10
46.9646
 20
-44.6252
 11
46.9842
 21
-44.7493
  0
LINE
  8
0
 10
46.9842
 20
-44.7493
 11
46.996
 21
-44.8744
  0
LINE
  8
0
 10
46.996
 20
-44.8744
 11
47
 21
-45
  0
LINE
  8
0
 10
47
 20
-45
 11
46.996
 21
-45.1256
  0
LINE
  8
0
 10
46.996
 20
-45.1256
 11
46.9842
 21
-45.2507
  0
LINE
  8
0
 10
46.9842
 20
-45.2507
 11
46.9646
 21
-45.3748
  0
LINE
  8
0
 10
46.9646
 20
-45.3748
 11
46.9372
 21
-45.4974
  0
LINE
  8
0
 10
46.9372
 20
-45.4974
 11
46.9021
 21
-45.618
  0
LINE
  8
0
 10
46.9021
 20
-45.618
 11
46.8595
 21
-45.7362
  0
LINE
  8
0
 10
46.8595
 20
-45.7362
 11
46.8096
 21
-45.8515
  0
LINE
  8
0
 10
46.8096
 20
-45.8515
 11
46.7526
 21
-45.9635
  0
LINE
  8
0
 10
46.7526
 20
-45.9635
 11
46.6886
 21
-46.0716
  0
LINE
  8
0
 10
46.6886
 20
-46.0716
 11
46.618
 21
-46.1756
  0
LINE
  8
0
 10
46.618
 20
-46.1756
 11
46.541
 21
-46.2748
  0
LINE
  8
0
 10
46.541
 20
-46.2748
 11
46.4579
 21
-46.3691
  0
LINE
  8
0
 10
46.4579
 20
-46.3691
 11
46.3691
 21
-46.4579
  0
LINE
  8
0
 10
46.3691
 20
-46.4579
 11
46.2748
 21
-46.541
  0
LINE
  8
0
 10
46.2748
 20
-46.541
 11
46.1756
 21
-46.618
  0
LINE
  8
0
 10
46.1756
 20
-46.618
 11
46.0716
 21
-46.6886
  0
LINE
  8
0
 10
46.0716
 20
-46.6886
 11
45.9635
 21
-46.7526
  0
LINE
  8
0
 10
45.9635
 20
-46.7526
 11
45.8515
 21
-46.8096
  0
LINE
  8
0
 10
45.8515
 20
-46.8096
 11
45.7362
 21
-46.8595
  0
LINE
  8
0
 10
45.7362
 20
-46.8595
 11
45.618
 21
-46.9021
  0
LINE
  8
0
 10
45.618
 20
-46.9021
 11
45.4974
 21
-46.9372
  0
LINE
  8
0
 10
45.4974
 20
-46.9372
 11
45.3748
 21
-46.9646
  0
LINE
  8
0
 10
45.3748
 20
-46.9646
 11
45.2507
 21
-46.9842
  0
LINE
  8
0
 10
45.2507
 20
-46.9842
 11
45.1256
 21
-46.996
  0
LINE
  8
0
 10
45.1256
 20
-46.996
 11
45
 21
-47
  0
LINE
  8
0
 10
45
 20
-47
 11
44.8744
 21
-46.996
  0
ENDSEC
  0
SECTION
  2
OBJECTS
  0
DICTIONARY
  0
ENDSEC
  0
EOF
